<svg width="83" height="82" viewBox="0 0 83 82" fill="none" xmlns="http://www.w3.org/2000/svg">
<path d="M8.59351 6.44364C9.08856 2.92524 12.3401 0.474498 15.8569 0.969889L76.8615 9.56492C80.3783 10.0603 82.8262 13.3143 82.3311 16.8327L73.9829 76.1755C73.4878 79.6931 70.2363 82.1443 66.7196 81.6489L5.71485 73.0536C2.1981 72.5582 -0.249787 69.3044 0.245259 65.7868L8.59351 6.44364Z" fill="#18C47D"/>
<path d="M49.1318 31.2882C49.0209 32.9573 48.8569 34.7227 48.6415 36.5846C48.431 38.4059 48.1995 40.0608 47.9456 41.5491C47.7366 43.0017 47.4296 44.7709 47.0246 46.8569C46.6244 48.9024 46.2724 50.5231 45.9702 51.7186C45.7131 52.8784 45.3353 54.5573 44.8355 56.7555L44.0495 60.3563C43.8309 61.1921 43.4018 62.0655 42.7637 62.976C41.6016 64.5236 40.2113 65.2024 38.5928 65.0158C37.0964 64.8421 36.0115 63.9382 35.3412 62.3015C34.5086 60.2773 34.1679 58.0844 34.3174 55.7227C34.3994 53.5992 34.7289 50.3968 35.3059 46.1157C35.5212 44.2538 35.6755 42.918 35.7688 42.1085L35.8459 41.4407L35.6032 41.4125C35.6402 41.0888 35.7961 40.1017 36.0677 38.4516C36.738 34.4274 37.2716 31.4127 37.667 29.4075C38.0479 27.5239 38.596 25.8029 39.3096 24.2447C39.84 23.1987 40.5649 22.4212 41.4843 21.9125C42.4487 21.3679 43.4757 21.1789 44.5622 21.3458C46.9346 21.7434 48.3362 23.0952 48.7669 25.401C49.1012 27.1215 49.2218 29.0839 49.1318 31.2882Z" fill="white"/>
</svg>
