<svg width="85" height="83" viewBox="0 0 85 83" fill="none" xmlns="http://www.w3.org/2000/svg">
<path d="M0.389245 19.3345C-0.255439 15.8402 2.05247 12.4847 5.54415 11.8396L65.8885 0.690102C69.3804 0.0449679 72.7335 2.35449 73.3782 5.8486L84.0051 63.4448C84.6498 66.9398 82.3419 70.2949 78.8502 70.9399L18.5058 82.0894C15.0141 82.7344 11.6608 80.4247 11.0162 76.9312L0.389245 19.3345Z" fill="#0F73EC"/>
<path d="M42.1838 20.1389C45.1612 20.5966 47.7221 21.2102 49.8665 21.9795C52.0515 22.7456 54.0998 23.8496 56.0117 25.2916C57.9205 26.6928 59.4588 28.5732 60.6267 30.9328C61.7947 33.2923 62.5922 36.131 63.0195 39.4487C62.9651 44.9303 61.7465 49.3804 59.3634 52.7994C58.772 53.5822 57.8493 54.8207 56.5953 56.5147L55.5499 58.0081C52.015 62.8676 47.0711 65.162 40.7185 64.8913C40.1469 64.896 39.2427 64.8249 38.0055 64.678L37.7572 64.6365C31.8154 63.8835 27.2706 61.1797 24.1229 56.5253C22.3674 53.9675 21.1947 51.036 20.6052 47.7312C20.0563 44.4231 20.1728 41.2665 20.9551 38.2612C23.5243 28.4508 29.4081 22.5664 38.6062 20.6077L39.2663 20.4324C40.109 20.2428 40.7535 20.13 41.2 20.0945C41.5654 20.0655 41.8932 20.0802 42.1838 20.1389ZM52.0769 41.3011L52.1232 41.1134L52.1087 40.9306C51.6501 38.7599 50.9275 37.1211 49.9409 36.0142C48.9917 34.8636 47.5324 33.9783 45.5633 33.3586C43.7598 32.7663 42.1829 32.1971 40.8323 31.6506C39.0159 30.8961 37.4914 30.7312 36.2591 31.1565C35.0234 31.5409 33.9205 32.5688 32.9506 34.2403C30.0941 39.4136 29.6822 44.2493 31.7146 48.7472C32.4056 50.2454 33.4019 51.4741 34.7037 52.4332C36.0459 53.3891 37.5417 53.9649 39.1912 54.1605C39.7691 54.2372 40.3625 54.2512 40.9713 54.2028C43.569 53.9958 45.6427 52.8496 47.1925 50.7643C47.3794 50.5451 47.6409 50.238 47.9772 49.8433C48.8705 48.7504 49.4756 47.8848 49.7924 47.2464C50.2118 46.3545 50.7546 44.9624 51.4211 43.07C51.6876 42.3131 51.9062 41.7234 52.0769 41.3011Z" fill="white"/>
</svg>
