<svg width="81" height="80" viewBox="0 0 81 80" fill="none" xmlns="http://www.w3.org/2000/svg">
<path d="M0.143607 13.5251C-0.198269 9.98837 2.38965 6.84393 5.92387 6.50182L67.6734 0.524487C71.2076 0.182378 74.3497 2.77208 74.6916 6.30882L80.4764 66.152C80.8183 69.6892 78.2304 72.8337 74.6961 73.1746L12.9467 79.1531C9.41243 79.4941 6.27023 76.9045 5.92836 73.3676L0.143607 13.5251Z" fill="#F4962B"/>
<path d="M56.8012 28.6814C58.0541 33.6502 57.3337 38.2039 54.6402 42.3423C51.9466 46.4808 47.8972 49.2353 42.4919 50.6059C41.4121 50.8963 39.5483 51.0856 36.9003 51.1738C35.5543 51.1992 34.5565 51.2378 33.9072 51.2896L33.2374 51.3428L33.4243 52.9221C33.7902 55.4681 33.9867 57.1693 34.0139 58.0255L34.0574 58.5738C34.125 60.4487 34.0269 61.785 33.7636 62.5826C33.1069 64.5968 31.8968 65.8172 30.1334 66.2438C29.3719 66.4272 28.6381 66.4447 27.9319 66.2966C27.2224 66.1077 26.6691 65.8248 26.2714 65.4478L26.079 65.3404C25.4411 65.0233 25.0152 64.5463 24.8011 63.9094C24.6244 63.2285 24.5095 62.2976 24.4565 61.1163C24.4357 60.3414 24.4184 59.0962 24.4045 57.3805C24.3491 54.1149 24.2551 51.6494 24.1226 49.9841C23.8933 47.1002 23.2635 42.7768 22.2334 37.0135C21.2763 31.6533 20.6707 27.6345 20.4169 24.957C20.3071 23.5759 20.2873 22.5557 20.3574 21.896C20.5528 20.2455 21.3229 19.1418 22.6674 18.5851C23.0263 18.4748 23.3883 18.4051 23.7536 18.376C24.7684 18.2953 25.7343 18.6271 26.6512 19.3715C26.7795 19.4431 26.936 19.6145 27.121 19.886C27.2557 20.0386 27.3685 20.1728 27.4594 20.2883L27.9292 20.8026L28.3871 20.3983C31.0701 18.1817 34.2252 16.7655 37.8526 16.1497C42.5724 15.4059 46.6155 16.1672 49.9818 18.4335C53.3854 20.6558 55.6586 24.0717 56.8012 28.6814ZM43.9465 37.3078C46.2725 34.7111 46.7915 31.9924 45.5036 29.1519C45.2554 28.5994 44.8888 28.0973 44.4036 27.6453C43.9183 27.1935 43.4225 26.8651 42.916 26.6602C41.5313 26.1982 39.8906 26.3697 37.994 27.1747C36.0942 27.9392 34.8119 29.0223 34.1473 30.424C32.5906 33.4502 31.9739 36.994 32.2968 41.0559L32.3454 41.6652L32.959 41.6776C33.446 41.6388 33.8925 41.6033 34.2984 41.5709C38.5198 41.2348 41.7358 39.8137 43.9465 37.3078Z" fill="white"/>
</svg>
