<svg width="65" height="114" viewBox="0 0 65 114" fill="none" xmlns="http://www.w3.org/2000/svg">
<path d="M29.2911 84.4165C25.5557 86.1298 25.8676 94.6277 26.4896 98.6624C26.8609 104.528 28.7317 107.135 29.5724 107.973C32.1874 109.463 35.2702 107.415 35.177 107.322C36.9514 105.273 38.2582 99.4072 38.2582 99.3141C39.5665 93.6345 37.8853 88.3272 37.8853 88.2341C35.0452 82.126 30.9739 83.1439 29.2911 84.4165Z" fill="#F3D8C7"/>
<path d="M55.7257 112.163C51.8023 111.139 46.6027 109.68 45.918 109.835L48.1601 94.6582C49.3543 94.6582 50.4939 95.5272 50.9616 95.9618C51.4904 96.6135 52.6621 97.9172 52.7361 97.9172C54.5105 100.059 57.6865 97.6378 57.6865 97.6378C62.7302 95.4963 64.5063 99.6863 64.5063 99.7794C65.7005 102.833 64.1944 106.763 63.2911 108.345C60.3016 112.517 57.0018 112.628 55.7257 112.163Z" fill="#E4A860"/>
<path d="M52.8305 100.152C52.1586 99.5565 52.644 98.7559 53.2049 98.7559C54.3252 98.849 54.3252 99.5938 54.1388 99.8732C53.8398 100.544 53.1423 100.339 52.8305 100.152Z" fill="#C06425"/>
<path d="M50.2146 98.1032C49.0187 97.1348 49.308 96.0897 50.0281 95.2168C51.1323 95.8592 52.963 98.2203 53.016 98.1988C53.016 98.198 53.016 98.1972 53.0177 98.1962C53.0177 98.1977 53.016 98.1985 53.016 98.1988C52.4535 99.4056 50.8687 98.5994 50.2146 98.1032Z" fill="#C06425"/>
<path d="M58.435 99.1274C55.2976 100.766 53.9523 104.59 53.671 106.297C52.7002 110.915 56.0064 112.194 57.7808 112.256C60.023 111.958 61.8296 109.897 62.4516 108.904C64.5073 105.552 64.1328 102.572 64.1328 102.479C63.6844 97.9356 60.1484 98.3515 58.435 99.1274Z" fill="#F3D8C7"/>
<path d="M9.55857 111.977C13.482 110.953 18.6815 109.494 19.3662 109.65L17.1241 94.4727C15.9299 94.4727 14.7903 95.3417 14.3226 95.7761C13.7938 96.4278 12.6221 97.7315 12.5481 97.7315C10.7737 99.8731 7.59768 97.4521 7.59768 97.4521C2.554 95.3106 0.777941 99.5005 0.777941 99.5937C-0.416276 102.648 1.08976 106.577 1.99306 108.16C4.98262 112.331 8.28238 112.443 9.55857 111.977Z" fill="#E4A860"/>
<path d="M12.4535 99.9661C13.1253 99.3702 12.6399 98.5693 12.079 98.5693C10.9587 98.6625 10.9587 99.4073 11.1451 99.6867C11.4441 100.357 12.1417 100.152 12.4535 99.9661Z" fill="#C06425"/>
<path d="M15.0707 97.9177C16.2665 96.9493 15.9772 95.9041 15.2571 95.0312C14.1529 95.6736 12.3222 98.0348 12.2692 98.0133C12.2692 98.0124 12.2692 98.0116 12.2676 98.0108C12.2676 98.0121 12.2692 98.0129 12.2692 98.0133C12.8317 99.2202 14.4165 98.4139 15.0707 97.9177Z" fill="#C06425"/>
<path d="M6.84956 98.9418C9.98699 100.581 11.3323 104.404 11.6136 106.111C12.5844 110.73 9.27816 112.008 7.50372 112.07C5.26155 111.773 3.45496 109.712 2.83294 108.719C0.77722 105.367 1.15171 102.387 1.15171 102.294C1.60014 97.7501 5.13619 98.1659 6.84956 98.9418Z" fill="#F3D8C7"/>
<path d="M24.7154 69.1466C26.3597 65.4966 25.961 62.4115 25.556 61.3252C30.0709 61.884 39.099 63.0198 39.099 63.0944C38.7261 64.882 39.2549 67.0671 39.5668 67.9361L40.5006 70.6363L42.6495 75.7573L45.5443 82.1819C46.5906 84.2677 47.9729 90.2515 48.5338 92.9827C49.0016 94.1001 48.4406 100.804 48.5338 100.804C48.6271 102.852 47.3203 108.532 47.3203 108.346C46.5729 110.581 44.7037 112.815 44.424 112.722C42.9292 113.765 40.8124 113.591 39.9412 113.374L36.7652 111.884C34.822 110.841 34.6468 108.781 34.8027 107.88C34.5793 107.061 35.706 104.994 36.2975 104.063C37.4178 102.014 37.7923 98.3831 37.7923 98.4763C38.1652 94.007 37.4178 89.4446 37.4178 89.5377C36.3907 84.2304 31.72 84.2304 31.6267 84.3235C27.3674 84.1746 26.5525 90.3446 26.6763 93.4484C26.3966 96.3348 27.4237 100.432 27.4237 100.525C27.5169 100.897 29.8523 107.787 29.8523 107.88C30.1319 110.115 28.4507 111.139 28.5456 111.232C26.4529 113.467 22.9409 113.591 21.4462 113.374C19.9514 113.002 19.204 112.039 19.0175 111.605L17.616 108.253C17.0551 107.229 16.1212 101.828 16.1212 101.735C15.6551 99.4074 15.9348 94.845 15.9348 94.9381C15.7114 90.8413 18.3939 83.9821 19.7649 81.0647C21.4462 77.092 24.7893 69.1466 24.7154 69.1466Z" fill="#F9AC5C"/>
<path d="M28.8254 104.436C24.2671 104.436 19.2347 106.887 17.4297 108.067C17.8958 110.581 19.4838 112.536 19.7651 112.722C21.2599 114.026 23.4394 113.715 24.5291 113.467C27.4431 113.02 29.1677 111.139 29.5727 110.301C30.8795 108.16 28.9186 104.436 28.8254 104.436Z" fill="#C06425"/>
<path d="M47.321 108.532C44.0405 105.375 40.969 103.69 36.1986 103.974C34.7826 106.106 34.5447 107.645 34.617 107.973C34.617 111.511 37.1388 112.442 38.1659 113.001C39.5675 113.559 42.5216 113.882 43.3976 113.559C45.8294 112.924 47.3869 108.596 47.321 108.532Z" fill="#C06425"/>
<path d="M29.48 70.9151C27.3873 69.9467 29.1987 68.0287 30.0394 67.563C30.2274 67.4701 32.3747 67.7493 32.5612 67.6561C34.1315 67.1347 34.461 68.1218 34.4305 68.6804C34.2055 70.8405 33.5272 71.5047 33.2154 71.5668C31.8701 72.0883 30.1647 71.3495 29.48 70.9151Z" fill="#C06425"/>
<path d="M40.22 81.3431C38.6497 80.0024 38.5694 78.0533 38.7253 77.2464C40.2201 74.453 41.4336 77.2464 41.3403 77.2464C41.3403 78.9223 42.4622 79.9466 42.5554 80.0397C43.4523 81.1571 43.1148 81.6225 42.8351 81.7157C41.4335 81.8088 40.3133 81.4363 40.22 81.3431Z" fill="#C06425"/>
<path d="M19.8584 104.249C18.5887 103.727 17.8959 104.59 17.7095 105.087C17.4202 105.534 17.7143 105.832 17.8976 105.925C18.3444 106.223 19.1416 106.049 19.4839 105.925C21.0719 104.994 19.7652 104.156 19.8584 104.249Z" fill="#C06425"/>
<path d="M40.4074 101.92C39.1377 101.399 37.9788 102.076 37.7924 102.572C37.5015 103.019 37.8888 103.317 38.072 103.41C38.5205 103.708 39.7854 103.627 40.1278 103.503C41.7158 102.572 40.3142 101.827 40.4074 101.92Z" fill="#C06425"/>
<path d="M47.2242 98.8485C45.4465 97.9201 43.8279 99.3139 43.6351 99.6919C43.3024 100.345 43.8858 100.917 44.143 101.083C44.7698 101.614 46.1971 101.921 46.7581 101.642C48.9809 99.984 47.094 98.6826 47.2242 98.8485Z" fill="#C06425"/>
<path d="M45.6277 92.674C45.2982 90.6314 43.0271 90.4305 42.569 90.5635C41.7799 90.7932 41.6529 91.6625 41.6722 91.9805C41.6095 92.8518 41.902 93.8207 42.8664 94.3868C45.7611 94.8533 45.6888 92.4516 45.6277 92.674Z" fill="#C06425"/>
<path d="M35.5108 79.9329C33.4792 79.5114 32.481 81.5545 32.4425 82.0275C32.3749 82.8446 32.817 83.1103 33.1223 83.2056C33.2156 83.2988 34.8968 83.2056 35.4577 82.5539C36.578 80.5986 35.6442 79.9468 35.5108 79.9329Z" fill="#C06425"/>
<path d="M22.6598 81.5295C21.9124 80.7102 23.6563 79.0776 24.6223 78.3636C25.2009 77.8982 25.0884 77.2464 25.0884 77.1533C25.0884 75.4773 27.0509 75.8497 26.9577 75.8497C28.8253 76.8926 28.7948 78.2707 28.5457 78.8293C27.705 80.5984 25.4629 81.157 25.4629 81.2501C22.6598 82.0881 22.5665 81.5295 22.6598 81.5295Z" fill="#C06425"/>
<path d="M44.892 104.529C44.5175 104.342 43.7861 104.508 43.6768 104.901C43.5081 105.255 43.8504 105.479 43.9565 105.553C44.2185 105.789 44.892 105.646 44.9852 105.553C45.5445 104.901 44.8373 104.455 44.892 104.529Z" fill="#C06425"/>
<path d="M44.704 86.6534C44.0257 85.2746 44.8053 83.1385 45.8259 82.6465C46.5685 83.7066 47.3191 87.3984 47.3191 87.3984C46.3017 88.2631 45.0882 87.3775 44.704 86.6534Z" fill="#C06425"/>
<path d="M19.7833 87.1554C20.5709 85.8362 19.8074 83.5926 18.8318 83.0195C18.0041 84.0159 17.1152 87.6859 17.1152 87.6859C18.0587 88.6303 19.3397 87.8457 19.7833 87.1554Z" fill="#C06425"/>
<path d="M24.9949 103.784L24.3407 104.436C23.3699 105.106 23.3137 104.28 23.4069 103.784C23.5001 102.946 24.3407 102.853 24.3407 102.853C25.7616 102.853 25.3694 103.473 24.9949 103.784Z" fill="#C06425"/>
<path d="M19.9836 97.5007H22.0072C23.4072 97.0785 23.0729 95.5576 22.1872 95.0328C20.7825 94.047 18.7364 96.1473 18.7364 96.1473C17.15 97.7304 19.9836 97.5007 19.9836 97.5007Z" fill="#C06425"/>
<path d="M13.2271 36.4642C11.8063 41.0824 12.1374 45.527 12.4797 47.1719C24.933 48.8478 49.8798 52.1813 50.0292 52.1068C51.5979 49.7976 51.6799 43.2613 51.524 40.2818C51.6172 36.2779 49.1886 29.2016 49.1886 29.1085C52.1766 28.8106 54.1696 28.0533 54.7933 27.7119C59.0526 25.8497 58.4354 22.4667 57.5948 21.0079C55.9505 18.1029 52.6137 18.9906 51.1495 19.7975C49.6547 20.2443 47.2888 22.7149 46.2923 23.8943C45.8438 23.1495 44.4873 21.9079 43.8637 21.3804L48.0667 7.22758L47.2261 6.48269C44.7364 10.6416 39.7361 18.9595 39.6606 18.9595C36.3737 16.9482 31.1918 17.2525 29.0123 17.6559L24.1551 4.24805L23.2213 4.52738C23.5636 9.49325 24.2676 19.425 24.3415 19.425C23.5941 19.4995 22.1621 20.4492 21.54 20.9147C19.8218 17.3394 17.4607 15.4523 16.4964 14.9557C14.1047 13.6149 12.012 14.8936 11.2646 15.7006C9.39696 17.1903 9.9579 19.7974 9.9579 19.7044C10.1074 20.7471 11.5138 22.1252 12.2001 22.6838C13.6933 24.0991 15.8116 24.8875 16.6828 25.1048C17.8031 25.2537 17.5861 26.0359 17.337 26.4083L15.6558 29.481C14.3474 31.6224 13.2271 36.5573 13.2271 36.4642Z" fill="#F9AC5C"/>
<path d="M30.6004 24.174C29.255 23.28 30.0394 22.498 30.6004 22.2187C30.7868 21.5669 30.4139 21.0082 30.4139 20.915C29.4415 20.2447 30.258 19.5185 30.7868 19.2391C33.4018 17.9728 35.3017 19.3943 35.9253 20.2633C36.5778 22.2187 34.7102 23.6154 34.7102 23.6154C32.5613 25.9431 30.6004 24.0809 30.6004 24.174Z" fill="#C06425"/>
<path d="M47.4206 31.1078C46.5302 30.9765 45.381 29.9366 44.9165 29.433C43.5374 27.7909 45.7507 28.2506 45.8117 28.322C47.3145 28.719 48.2902 30.017 48.5907 30.6163C48.6888 31.7486 47.4801 31.1792 47.4206 31.1078Z" fill="#89432A"/>
<path d="M22.8043 26.2372C22.1164 26.8153 20.5734 26.9861 19.887 26.9991C17.7397 26.943 19.5511 25.5932 19.6443 25.5956C20.9382 24.7353 22.56 24.8648 23.2093 25.037C24.1255 25.7129 22.8975 26.2396 22.8043 26.2372Z" fill="#89432A"/>
<path d="M27.236 27.7123C26.3954 27.0606 26.5818 25.8812 26.7682 25.1053C27.236 24.2674 29.3849 24.7329 29.6646 25.1053C30.5984 26.1295 30.2255 27.7123 30.1307 27.7123C29.1036 29.016 27.236 27.7123 27.236 27.7123Z" fill="#C06425"/>
<path d="M37.5128 28.6441C35.6435 28.1971 36.7333 26.8439 37.5128 26.2232C38.2586 25.1059 40.5007 26.9681 40.4075 26.9681C41.6773 28.011 40.5634 28.5199 39.8466 28.6441H37.5128Z" fill="#C06425"/>
<path d="M25.9288 3.4105C25.9288 4.95321 24.6752 6.20381 23.1273 6.20381C21.5795 6.20381 20.3242 4.95321 20.3242 3.4105C20.3242 1.86779 21.5795 0.617188 23.1273 0.617188C24.6752 0.617188 25.9288 1.86779 25.9288 3.4105Z" fill="#C06425"/>
<path d="M50.7765 5.8314C50.7765 7.3741 49.5212 8.62471 47.9734 8.62471C46.4255 8.62471 45.1719 7.3741 45.1719 5.8314C45.1719 4.28869 46.4255 3.03809 47.9734 3.03809C49.5212 3.03809 50.7765 4.28869 50.7765 5.8314Z" fill="#C06425"/>
<path d="M20.3242 21.9392C19.5784 22.3117 18.643 23.6462 18.2701 24.2671C15.729 23.3731 14.1603 22.0944 13.6925 21.5669C11.6384 19.5184 12.9452 18.1218 12.8519 18.1218C13.7858 16.0733 16.8686 17.8424 16.7753 17.8424C18.4566 18.4941 20.419 21.9392 20.3242 21.9392Z" fill="#F3D8C7"/>
<path d="M47.3967 25.0328C48.038 25.5676 48.636 27.0814 48.8561 27.7714C51.5355 27.488 53.3581 26.6062 53.9352 26.2007C56.4104 24.682 55.4621 23.0215 55.5537 23.043C55.1197 20.8347 51.7107 21.8446 51.8007 21.8662C50.015 22.1123 47.3067 25.0113 47.3967 25.0328Z" fill="#F3D8C7"/>
<path d="M27.2372 36.7437C27.2372 39.212 25.6894 41.213 23.7815 41.213C21.872 41.213 20.3242 39.212 20.3242 36.7437C20.3242 34.2753 21.872 32.2744 23.7815 32.2744C25.6894 32.2744 27.2372 34.2753 27.2372 36.7437Z" fill="#85633C"/>
<path d="M27.2377 37.0231C27.2377 39.3371 25.7734 41.213 23.9685 41.213C22.1635 41.213 20.6992 39.3371 20.6992 37.0231C20.6992 34.7089 22.1635 32.833 23.9685 32.833C25.7734 32.833 27.2377 34.7089 27.2377 37.0231Z" fill="#FDF7F7"/>
<path d="M27.4237 37.3021C27.4237 39.4619 26.0447 41.2128 24.3409 41.2128C22.6388 41.2128 21.2598 39.4619 21.2598 37.3021C21.2598 35.1424 22.6388 33.3916 24.3409 33.3916C26.0447 33.3916 27.4237 35.1424 27.4237 37.3021Z" fill="#36231D"/>
<path d="M24.2481 35.8122C24.2481 36.2237 23.9556 36.5571 23.594 36.5571C23.2339 36.5571 22.9414 36.2237 22.9414 35.8122C22.9414 35.4008 23.2339 35.0674 23.594 35.0674C23.9556 35.0674 24.2481 35.4008 24.2481 35.8122Z" fill="#FDF7F7"/>
<path d="M38.2598 38.7925C38.2598 41.2608 39.8076 43.2618 41.717 43.2618C43.6249 43.2618 45.1727 41.2608 45.1727 38.7925C45.1727 36.3241 43.6249 34.3232 41.717 34.3232C39.8076 34.3232 38.2598 36.3241 38.2598 38.7925Z" fill="#85633C"/>
<path d="M38.2598 39.0717C38.2598 41.3858 39.724 43.2618 41.529 43.2618C43.3356 43.2618 44.7982 41.3858 44.7982 39.0717C44.7982 36.7577 43.3356 34.8818 41.529 34.8818C39.724 34.8818 38.2598 36.7577 38.2598 39.0717Z" fill="#FDF7F7"/>
<path d="M38.0723 39.3511C38.0723 41.5109 39.4529 43.2618 41.155 43.2618C42.8572 43.2618 44.2378 41.5109 44.2378 39.3511C44.2378 37.1913 42.8572 35.4404 41.155 35.4404C39.4529 35.4404 38.0723 37.1913 38.0723 39.3511Z" fill="#36231D"/>
<path d="M41.248 37.8612C41.248 38.2725 41.5406 38.6061 41.9022 38.6061C42.2639 38.6061 42.5564 38.2725 42.5564 37.8612C42.5564 37.4498 42.2639 37.1162 41.9022 37.1162C41.5406 37.1162 41.248 37.4498 41.248 37.8612Z" fill="#FDF7F7"/>
<path d="M51.0367 54.9219C50.0434 61.5927 40.1892 65.6612 29.0281 64.0092C17.8671 62.3572 9.62494 55.6103 10.6182 48.9395C11.6115 42.2686 21.4658 38.2002 32.6268 39.8522C43.7879 41.5042 52.0301 48.2511 51.0367 54.9219Z" fill="#F3D8C7"/>
<path d="M25.7217 45.1511C25.8552 44.9452 25.8359 44.6217 25.8359 44.3784C25.8359 43.5042 24.9679 42.8887 23.7818 42.8887C22.594 42.8887 21.6328 43.5973 21.6328 44.4715C21.6328 44.5555 21.6425 44.6378 21.6585 44.7182C22.0443 44.0821 22.9026 43.6335 23.7818 43.6335C24.8554 43.6335 25.5916 44.3494 25.7217 45.1511Z" fill="#57422F"/>
<path d="M41.2487 46.799C41.3933 46.6433 41.3419 46.4265 41.3419 46.2402C41.0622 45.7748 40.5575 45.123 39.4742 45.123C38.9133 45.123 37.6998 45.5885 37.5117 46.2402C37.5133 46.3334 37.5262 46.3916 37.5519 46.4638C37.8798 46.1095 38.6272 45.8679 39.381 45.8679C40.3293 45.8679 40.5945 46.1471 41.2487 46.799Z" fill="#57422F"/>
<path d="M43.4915 53.5972C43.4915 53.5972 37.2986 56.9559 30.511 56.0105C23.7138 55.0636 18.8324 50.3384 18.2715 49.6865C18.2715 50.8039 23.066 55.7785 30.1333 56.7631C37.1925 57.7461 42.7441 54.6214 43.4915 53.5972Z" fill="#57422F"/>
</svg>
