<svg width="79" height="77" viewBox="0 0 79 77" fill="none" xmlns="http://www.w3.org/2000/svg">
<path d="M3.66536 6.84367C3.84666 3.29519 6.86821 0.565397 10.4142 0.746826L71.9951 3.89577C75.5424 4.07704 78.27 7.1007 78.0883 10.6493L75.0425 70.2923C74.8625 73.8404 71.8408 76.5699 68.2935 76.3881L6.71246 73.2405C3.16646 73.0587 0.438564 70.0349 0.619867 66.4868L3.66536 6.84367Z" fill="#19CBD5"/>
<path d="M54.9341 61.179C55.5609 62.013 56.0093 62.6596 56.281 63.1163C56.9769 64.3194 57.2888 65.4694 57.2148 66.568C57.1795 67.7084 56.7648 68.6139 55.9708 69.283C55.0932 69.9891 54.0468 70.2625 52.8301 70.1033C51.652 69.9859 50.588 69.4647 49.6381 68.5383C49.1237 68.0333 48.4374 67.1776 47.5775 65.9681C46.8349 64.9676 46.2467 64.2358 45.8127 63.7742C45.1826 63.0617 44.3195 62.6483 43.2217 62.5341C42.6544 62.4746 41.9632 62.4344 41.1483 62.4086C41.068 62.407 40.986 62.4038 40.904 62.4022C40.8237 62.399 40.7208 62.3958 40.5987 62.3926C40.4765 62.3877 40.3961 62.3861 40.3543 62.3845C38.5622 62.37 37.2426 62.2687 36.3924 62.0805C33.1939 61.4117 30.3393 60.2035 27.8255 58.4553C25.3133 56.7071 23.2816 54.5253 21.7318 51.9097C20.1821 49.2941 19.2503 46.4529 18.9366 43.386C18.6646 40.2795 19.0452 37.1521 20.0782 34.0039C21.3902 29.723 23.5654 25.8556 26.604 22.4018C30.2348 18.2323 34.8012 16.0686 40.3061 15.9106L41.5903 15.8887C45.4237 15.7612 48.251 15.8883 50.072 16.2701C59.0198 18.0517 63.5395 23.4893 63.6279 32.5828C63.7099 43.2657 60.4439 51.5229 53.8299 57.354C53.7463 57.433 53.6177 57.5923 53.4489 57.8316L52.8767 58.548L53.7013 59.5515C54.0934 60.0526 54.3683 60.4076 54.5242 60.6162L54.9341 61.179ZM46.2017 48.9884C48.4438 47.5894 50.2119 45.0751 51.5041 41.4457C52.7964 37.8162 53.0792 34.523 52.3544 31.5658C51.8497 29.4304 50.5896 28.006 48.574 27.2922C47.8893 27.0674 46.8832 26.6493 45.5571 26.0381C44.2729 25.4282 43.2876 25.0108 42.6013 24.786C41.2335 24.255 40.0956 24.1592 39.1891 24.4984C37.3359 25.1348 35.5646 26.4259 33.877 28.3719C32.1877 30.3178 30.8987 32.5205 30.0082 34.9799C29.1612 37.3999 28.8895 39.593 29.1965 41.5591C29.5662 44.1387 30.439 46.224 31.8164 47.8152C33.2357 49.3668 35.0197 50.3385 37.1671 50.7303L37.7136 50.8081L37.9113 50.325C38.7037 48.4332 39.6729 47.3621 40.8205 47.1118C42.1336 46.785 43.6638 47.3822 45.4109 48.903L45.8288 49.2216L46.2017 48.9884Z" fill="white"/>
</svg>
