<svg width="79" height="80" viewBox="0 0 79 80" fill="none" xmlns="http://www.w3.org/2000/svg">
<path d="M0.151805 13.4786C-0.169653 9.93995 2.43737 6.81079 5.9734 6.4891L66.3721 0.996533C69.9082 0.675012 73.036 3.28289 73.3574 6.82156L78.7772 66.5152C79.0986 70.0553 76.4932 73.1836 72.9572 73.5053L12.5585 78.998C9.02243 79.3197 5.89465 76.7109 5.57319 73.1724L0.151805 13.4786Z" fill="#F65CC7"/>
<path d="M55.3499 20.8104C56.6808 21.0619 57.7528 21.6427 58.5677 22.5529C59.3794 23.4226 59.7764 24.4514 59.7571 25.6392C59.7475 26.458 59.5482 27.2119 59.1592 27.9004C58.8104 28.5854 58.309 29.1611 57.6548 29.6274C56.9974 30.0531 56.2259 30.3457 55.3403 30.5051C54.4948 30.6609 53.1994 30.7949 51.4506 30.9072C50.6406 30.9783 50.0121 31.0333 49.5653 31.0725L43.9671 31.5629L44.1536 32.283C44.3464 33.0842 44.6791 34.5478 45.1501 36.6743C46.0919 40.8866 46.7718 43.9969 47.1929 46.0052C48.1187 50.5052 48.7745 54.2719 49.1635 57.3057C49.3322 58.7634 49.1827 60.3307 48.7166 62.0078C48.0834 64.1082 46.6513 65.2775 44.4252 65.5123C42.1493 65.6716 40.5404 64.7901 39.5953 62.8682C38.6936 60.9838 38.16 59.0878 37.9928 57.1801C37.6842 53.6487 37.3001 48.324 36.8404 41.2065C36.633 38.3615 36.4868 36.2269 36.4032 34.8026C36.3887 34.6403 36.3437 34.3579 36.2682 33.9556L36.1171 32.9259L34.0919 32.9192C32.3335 32.9097 30.9432 32.8884 29.9178 32.8555C29.0547 32.8083 28.3973 32.7638 27.944 32.7216C26.6614 32.5478 25.6456 32.146 24.8966 31.5163C24.146 30.8866 23.7056 30.0663 23.577 29.055C23.307 26.9108 24.4771 25.3358 27.0874 24.3299L27.2706 24.314C27.3847 24.2222 27.4618 24.1744 27.502 24.1708C29.2363 23.8963 31.7903 23.427 35.1656 22.7632C40.6689 21.6674 44.8013 20.9986 47.5594 20.7568C49.7903 20.5612 51.891 20.5204 53.8632 20.6338C54.3984 20.6688 54.8935 20.7277 55.3499 20.8104Z" fill="white"/>
</svg>
