<svg width="85" height="83" viewBox="0 0 85 83" fill="none" xmlns="http://www.w3.org/2000/svg">
<path d="M0.77273 18.3735C0.16196 14.8734 2.50057 11.5397 5.99803 10.9273L66.7375 0.292678C70.235 -0.319804 73.5669 2.02108 74.1776 5.52114L84.4997 64.5521C85.112 68.0526 82.7718 71.3852 79.2744 71.998L18.5349 82.6329C15.0374 83.2457 11.7071 80.9038 11.0947 77.4039L0.77273 18.3735Z" fill="#F22E68"/>
<path d="M56.4646 17.7255C57.4112 19.2026 57.9224 20.453 57.9947 21.4764C58.5171 29.799 58.8723 37.2414 59.0555 43.8036C59.0684 45.3779 58.7019 47.5649 57.9545 50.3645C57.3566 52.6376 56.3745 54.6523 55.0132 56.4087C53.6438 58.1249 51.9963 59.4796 50.0724 60.4727C46.0332 62.5374 41.708 62.6862 37.0967 60.919C30.113 58.2397 25.693 53.0537 23.8398 45.3608C23.6533 44.6083 23.438 43.488 23.1937 41.9998C23.0619 41.3196 22.9622 40.7996 22.8931 40.4394L22.7661 39.7792L22.5266 39.8253L22.3016 37.6902C21.8821 33.7874 21.5735 30.7764 21.3726 28.6573C21.3051 28.0896 21.318 27.4023 21.4112 26.596C21.6651 24.6799 22.6199 23.5 24.2754 23.0564C25.0678 22.8622 25.8328 22.9637 26.5738 23.3605C27.3453 23.7097 27.9368 24.3013 28.345 25.1354C29.0538 26.4509 29.7048 28.1098 30.2979 30.1118C30.7961 31.8417 31.5596 34.5161 32.5883 38.1355C33.2649 40.5778 33.76 42.2875 34.0734 43.2646C35.1872 47.1164 37.4809 49.766 40.951 51.2134C43.2044 52.1485 45.093 52.158 46.6167 51.242C47.9893 50.3968 48.7656 48.9399 48.9489 46.8715C49.1996 44.0844 49.2012 39.8931 48.9553 34.2974L48.9505 33.3024C48.8781 32.0712 48.7158 30.2561 48.4619 27.8568C48.2368 25.8256 48.0874 24.2981 48.015 23.2746C47.9234 21.7158 48.0777 20.2545 48.4779 18.8909C49.0099 17.1286 50.246 16.1225 52.1892 15.8729C54.044 15.5985 55.468 16.216 56.4646 17.7255Z" fill="white"/>
</svg>
