<svg width="50" height="167" viewBox="0 0 50 167" fill="none" xmlns="http://www.w3.org/2000/svg">
<path fill-rule="evenodd" clip-rule="evenodd" d="M20.4016 1.16412C16.4746 1.56838 12.0035 3.84739 8.96488 7.00253C7.58296 8.42206 6.24979 10.3352 5.21599 12.3646C4.55619 13.6631 3.94697 15.172 4.07289 15.1674C4.11486 15.1659 4.09538 15.2087 4.03393 15.2529C3.82799 15.3974 3.12244 17.7622 2.72667 19.6417C2.26603 21.7766 2.0393 23.6819 1.8973 26.4698C1.82169 27.8745 2.04441 32.9037 2.24769 34.4674C2.51409 36.6182 2.55666 36.9119 2.76979 38.137C4.04888 45.8591 6.31122 52.5122 9.38181 57.5982C10.1217 58.8364 11.1446 60.3176 11.7943 61.1058C12.8954 62.4261 15.0046 64.5107 16.4494 65.7026C18.2846 67.2067 21.111 68.7282 22.5968 69.002L23.2123 69.117L23.1686 69.6559C23.1227 70.1319 23.1571 70.2257 23.4105 70.5118C23.5639 70.6854 23.6984 70.8917 23.701 70.9657C23.704 71.0496 23.4781 71.501 23.1999 71.9743C22.3646 73.3742 22.1264 74.0682 22.1578 74.9416C22.2123 76.1515 22.6244 76.7901 23.462 76.9291C23.9391 77.007 24.4682 76.7769 25.2357 76.1379C26.0849 75.4329 26.4106 75.3892 27.25 75.8864C27.9604 76.3032 28.2989 76.9234 28.5693 78.2946C29.0243 80.6808 28.3849 83.7187 26.8655 86.3239C25.8631 88.057 23.321 90.9412 19.6962 94.4646C17.018 97.0694 15.4876 99.0637 14.1283 101.726C12.8973 104.142 12.562 106.23 13.1202 107.98C13.4407 108.992 13.6656 109.373 14.9168 111.057C16.3228 112.925 16.5902 113.347 17.0924 114.404C17.3211 114.891 17.5479 115.357 17.5929 115.44C17.6489 115.522 17.7083 116.005 17.7361 116.499C17.8203 117.951 17.492 119.091 16.5915 120.43C16.1519 121.089 13.9494 123.455 13.3036 123.973C12.0943 124.933 11.3072 125.615 11.1775 125.821C11.0981 125.95 11.0265 126.016 11.025 125.974C11.0196 125.826 9.88543 126.816 8.85846 127.865C7.46554 129.285 6.3372 131.023 5.93214 132.365C5.75346 132.962 5.28318 135.414 5.23077 136.016C5.20823 136.28 5.1538 136.798 5.11448 137.18C4.96035 138.46 4.96246 140.273 5.12016 140.847C5.289 141.452 5.70637 141.901 6.08512 141.887C6.42191 141.875 6.45781 141.704 6.32225 140.856C6.15852 139.808 6.25779 138.17 6.60365 136.072C6.96745 133.887 7.46936 132.288 8.1265 131.222C8.68474 130.327 10.2964 128.562 11.4946 127.57C14.2985 125.235 15.1245 124.468 16.4221 123.041C17.9326 121.384 18.7552 119.911 19.0776 118.329C19.2301 117.586 19.1885 116.123 18.9831 115.392C18.7297 114.494 17.6422 112.689 16.3597 111.028C15.7081 110.187 15.0544 109.315 14.9088 109.078C13.8567 107.367 13.9709 105.56 15.3256 102.771C16.2384 100.883 18.0127 98.3536 19.3355 97.0412C24.6374 91.7915 26.3919 89.8522 27.6974 87.782C29.5924 84.795 30.3856 81.3623 29.8399 78.4831C29.7242 77.9079 29.5996 77.364 29.5642 77.2702C29.5055 77.1142 29.6207 77.0891 30.5246 77.0146C31.8805 76.9028 32.5442 76.6048 32.9513 75.9047C33.1898 75.4959 33.2353 75.3151 33.2145 74.7355C33.1903 74.0619 32.8337 72.6308 32.5967 72.2181C32.53 72.1154 32.4091 71.9826 32.3237 71.9437C32.1951 71.8743 32.1925 71.8013 32.3136 71.3857C32.5118 70.7462 32.39 70.002 32.0126 69.4683C31.7683 69.1298 31.7435 69.0246 31.8305 68.8004C31.995 68.3942 31.9364 67.932 31.6707 67.5833C31.5052 67.3781 31.4687 67.2534 31.5525 67.2183C31.8439 67.1128 33.5205 65.9569 34.4319 65.2287C35.4971 64.3789 37.0304 62.7428 37.8516 61.5645C38.4838 60.6672 39.9018 58.1917 40.5495 56.8616C41.4821 54.9419 42.7549 51.3759 43.2218 49.3878C43.9264 46.4116 44.1736 45.0749 44.4833 42.5551C44.8347 39.7177 44.8967 37.9343 44.77 34.1024C44.5991 29.3445 44.5185 28.5779 43.7693 25.0215C42.564 19.3521 40.6231 14.3215 38.147 10.521C36.3397 7.73009 33.7291 5.19919 31.0373 3.60982C29.5296 2.72638 27.2536 1.84854 25.4702 1.48033C24.4398 1.26419 21.8708 1.03028 21.2403 1.08395C21.0737 1.09795 20.6957 1.13254 20.4016 1.16412ZM22.6725 2.48443C27.4864 2.70173 32.0384 5.01478 35.458 8.98055C38.5271 12.5487 41.1181 18.3784 42.591 25.0608C43.2571 28.0618 43.4249 29.4997 43.5648 33.089C43.7018 36.5934 43.6875 38.2589 43.5039 40.1948C43.01 45.525 42.1384 49.4238 40.4063 54.0179C38.9534 57.8646 36.5609 61.6809 34.475 63.474C31.8675 65.707 29.3422 66.9996 25.4707 68.0552C25.0011 68.1882 23.2796 68.0919 22.6934 67.9019C19.9319 67.0204 16.226 64.1927 13.4287 60.836C12.6142 59.8636 11.5525 58.4688 11.5495 58.3849C11.5483 58.3529 11.3238 57.9817 11.0455 57.5594C9.82865 55.6639 8.31092 52.4403 7.2348 49.476C5.92547 45.8977 4.59029 40.4021 4.07046 36.4893C3.70742 33.7095 3.40353 28.4821 3.49866 26.7295C3.51588 26.3176 3.55615 25.6838 3.56353 25.3043C3.68061 22.6864 4.43586 18.7807 5.32195 16.1772C6.96299 11.3862 9.78619 7.55339 13.3808 5.22182C15.7706 3.67101 17.9961 2.86359 20.7666 2.52189C20.9977 2.49257 21.2178 2.46365 21.2494 2.45151C21.28 2.4394 21.9241 2.45929 22.6725 2.48443ZM30.4255 68.3515C30.5189 68.6113 28.4518 69.4551 26.613 69.9114C26.1221 70.0341 25.0042 70.0012 24.6924 69.8433C24.4891 69.7556 24.4152 69.453 24.5831 69.447C25.0038 69.4319 27.9511 68.7466 28.5651 68.5134C29.3661 68.2205 30.3436 68.1333 30.4255 68.3515ZM30.9436 70.1561C31.0782 70.3934 31.1074 70.8987 30.9979 71.0817C30.8593 71.3189 30.1617 71.5651 29.5511 71.587C28.4358 71.6271 26.9081 71.3558 27.0268 71.1504C27.0573 71.1072 27.6516 70.9378 28.3526 70.7865C29.0636 70.6349 29.8451 70.3847 30.1044 70.2493C30.7031 69.9226 30.798 69.9192 30.9436 70.1561ZM25.3527 71.7909C26.2976 72.2733 27.1176 72.507 28.2922 72.6439C29.3498 72.753 30.6355 72.7498 30.7477 72.6397C30.7881 72.5962 30.9865 72.5471 31.2066 72.5182L31.6048 72.4618L31.8318 73.4863C31.9567 74.0402 32.0515 74.6162 32.0568 74.7641C32.0787 75.3747 31.5222 75.7319 30.4809 75.7693C29.7653 75.795 28.9222 75.4991 28.1328 74.9471C27.3331 74.3855 26.9797 74.24 26.2707 74.1705C25.6042 74.1104 24.8786 74.4416 24.1243 75.1432C23.6451 75.5926 23.6135 75.6038 23.4712 75.4298C23.2397 75.1429 23.349 74.6757 23.9978 73.0714C24.307 72.2908 24.5666 71.607 24.5647 71.554C24.5591 71.3971 24.6328 71.4155 25.3527 71.7909Z" fill="#19CBD5"/>
<path fill-rule="evenodd" clip-rule="evenodd" d="M29.804 6.2017C29.4347 6.47814 29.493 6.62414 30.6048 7.96508C30.8798 8.29242 31.2332 8.74302 31.3894 8.96956C31.5446 9.19613 31.8457 9.6386 32.0679 9.94682C32.768 10.9653 34.7257 14.4043 35.3987 15.814C35.946 16.9541 36.9282 16.7177 36.8832 15.4655C36.8628 14.8969 36.4496 13.9531 35.4593 12.2075C33.9966 9.62537 32.527 7.73892 30.9964 6.49707C30.4738 6.07256 30.1022 5.97985 29.804 6.2017Z" fill="#19CBD5"/>
<path fill-rule="evenodd" clip-rule="evenodd" d="M37.202 19.6269C36.9781 19.8561 37.0044 20.0032 37.4144 21.1372C37.8701 22.3746 38.2511 22.7302 38.6467 22.2947C38.992 21.9341 38.6466 20.2294 38.1322 19.6995C37.8254 19.4043 37.4348 19.3653 37.202 19.6269Z" fill="#19CBD5"/>
<path fill-rule="evenodd" clip-rule="evenodd" d="M38.6955 26.6236C38.5569 26.8608 38.5431 27.0614 38.6371 27.9226C39.1957 33.1929 39.2698 35.2566 39.1281 41.3106C39.0036 46.6475 39.0007 46.2583 39.2085 46.472C39.4598 46.7262 39.7026 46.7174 40.0295 46.4315C40.4087 46.1227 40.4684 45.7513 40.6409 42.6151C40.9102 37.7993 40.932 36.3446 40.7676 33.5257C40.5855 30.5183 40.3747 29.0499 39.874 27.4238C39.5521 26.4037 39.0442 26.0528 38.6955 26.6236Z" fill="#19CBD5"/>
</svg>
