<svg width="24" height="36" viewBox="0 0 24 36" fill="none" xmlns="http://www.w3.org/2000/svg">
<path fill-rule="evenodd" clip-rule="evenodd" d="M10.5181 0.192327C9.72806 0.455327 8.91706 1.20332 8.49606 2.01432C8.19106 2.62532 8.15906 2.79333 8.14906 3.63633C8.13806 4.37333 8.18106 4.7003 8.36006 5.1633C8.64406 5.8693 9.12906 6.63831 9.61306 7.16431L9.98206 7.54331L8.65506 7.50132C6.87506 7.42732 6.11706 7.63832 5.40006 8.40732C4.71507 9.13432 4.55706 9.56632 4.63106 10.4503C4.69406 11.3563 5.03106 11.9673 5.72606 12.4413C6.17906 12.7573 6.29506 12.7783 7.01107 12.7783C8.14907 12.7783 8.88606 12.4093 10.1501 11.2093L11.1301 10.2823L11.0671 10.6933C10.9831 11.3673 10.8141 12.9893 10.6351 14.8963C10.4661 16.7813 10.4881 21.9953 10.6771 23.1323C10.7301 23.4593 10.7301 23.6903 10.6661 23.6903C10.6131 23.6903 10.3711 23.4793 10.1081 23.2263C8.73906 21.8573 6.31606 20.8673 2.35606 20.0663C1.10306 19.8033 0.829064 19.8343 0.429064 20.2563C-0.581936 21.3303 0.271063 23.9853 2.17706 25.7443C3.27206 26.7553 4.58906 27.4293 6.27406 27.8613C7.18006 28.0933 7.62206 28.1353 8.69706 28.1353C9.42406 28.1353 10.3081 28.0823 10.6771 28.0193C11.0351 27.9453 11.3721 27.9243 11.4251 27.9453C11.4781 27.9773 11.5721 28.2613 11.6461 28.5563C12.0251 30.1893 12.9521 33.0113 13.4681 34.1383C13.8791 35.0123 14.2681 35.4023 14.5841 35.2023C14.8681 35.0233 14.8371 34.5073 14.4581 33.4223C14.2581 32.8433 13.9741 31.9263 13.8261 31.3793C13.1941 29.1253 12.9101 27.9983 12.9101 27.7983C12.9101 27.5873 12.9101 27.5873 14.4061 27.2403C16.8921 26.6503 20.1461 24.4593 21.5051 22.4373C22.8851 20.3943 23.4111 17.9293 23.0321 15.3383C22.8741 14.2113 22.4741 13.8113 21.6421 13.9373C21.0731 14.0323 17.8821 15.9803 16.2281 17.2553C14.3321 18.7093 12.6891 20.9103 12.2681 22.5643C11.9941 23.6703 11.8891 22.9753 11.7941 19.4253C11.7201 16.9183 11.7841 15.7913 12.1731 12.4213C12.2891 11.4103 12.4151 10.2513 12.4471 9.8613L12.5101 9.13431L13.4681 9.20832C15.1531 9.33432 16.7651 8.94531 17.6701 8.20731C18.4181 7.59631 18.5861 6.36432 18.0181 5.62632C17.6921 5.18432 17.3651 5.00531 16.5861 4.83631C16.0071 4.71031 14.4801 4.74132 14.0051 4.88932C13.7841 4.96332 13.7841 4.95232 13.9421 4.39432C14.0261 4.08932 14.1001 3.45732 14.1001 2.99332C14.1101 2.27732 14.0681 2.05633 13.8261 1.55033C13.1621 0.192329 11.9611 -0.313673 10.5181 0.192327ZM12.3291 1.70933C12.8871 2.26733 13.0451 3.13133 12.7611 4.15333C12.6141 4.70133 11.6021 7.02832 11.4441 7.18632C11.3071 7.32332 10.7491 6.99632 10.4431 6.59632C9.92706 5.92232 9.49506 4.82632 9.45306 4.10032C9.39006 3.00532 9.95906 1.96232 10.8541 1.56232C11.5081 1.25632 11.9191 1.29833 12.3291 1.70933ZM16.9641 6.31132C17.2171 6.52232 17.1541 6.93231 16.8271 7.25931C16.3741 7.71231 15.5841 7.90231 13.9621 7.96531L12.5401 8.02833L13.0141 7.47031C13.6251 6.76431 14.2571 6.31131 14.8471 6.16431C15.4161 6.01731 16.7221 6.11132 16.9641 6.31132ZM10.2551 8.60831C10.6131 8.62931 10.6971 8.67132 10.6971 8.82932C10.6971 9.01932 10.0751 9.79832 9.53806 10.2823C9.05306 10.7243 8.22106 11.2303 7.67406 11.4303C7.15806 11.6093 7.10506 11.6093 6.74707 11.4403C6.10506 11.1353 5.91506 10.2813 6.35706 9.6073C6.57806 9.2493 7.11506 8.96531 7.92606 8.75431C8.58006 8.58731 9.00106 8.56531 10.2551 8.60831ZM21.7141 15.9593C21.7561 16.2333 21.7561 16.9603 21.7241 17.5713C21.5981 19.9413 20.3761 22.3003 18.5121 23.7753C17.9541 24.2173 16.6161 25.0923 16.1001 25.3653C15.7741 25.5233 13.0561 26.4293 12.8881 26.4293C12.8251 26.4293 13.0461 24.9233 13.2151 24.1653C13.6571 22.1853 14.7211 20.3843 16.3121 18.8883C17.1121 18.1403 17.1971 18.0773 18.3871 17.2453C19.0191 16.8033 21.3991 15.4753 21.5681 15.4753C21.6091 15.4753 21.6721 15.6963 21.7141 15.9593ZM3.08206 21.7523C6.42106 22.4373 8.57006 23.4163 9.88606 24.8493C10.4551 25.4703 11.0031 26.3663 10.8871 26.4923C10.8451 26.5243 10.0661 26.5663 9.14906 26.5663C7.41106 26.5763 6.45306 26.4193 5.14706 25.9243C3.85206 25.4293 2.40906 24.1333 1.80806 22.9123C1.39706 22.0803 1.31306 21.4803 1.59706 21.4803C1.69206 21.4783 2.36606 21.6053 3.08206 21.7523Z" fill="#19CBD5"/>
</svg>
