<svg width="57" height="102" viewBox="0 0 57 102" fill="none" xmlns="http://www.w3.org/2000/svg">
<path fill-rule="evenodd" clip-rule="evenodd" d="M47.2733 0.592121C47.0179 0.652849 46.7139 0.80564 46.59 0.943692C46.2261 1.31961 42.442 8.4299 41.7636 9.98072C39.4813 15.2718 38.3224 19.0104 37.7976 22.7415C37.3315 26.0677 37.5708 30.6431 38.2721 31.8089C38.5574 32.2841 38.5671 32.2207 37.743 34.7706C36.4587 38.7863 34.1667 44.5979 32.0019 49.399C31.8042 49.8338 31.5631 50.392 31.4607 50.6268C31.2057 51.2586 30.0709 53.7202 28.9777 56.0162C28.0469 57.9642 22.8695 67.6502 22.7061 67.7465C22.6569 67.7681 22.2685 68.4191 21.8476 69.1734C21.4267 69.9276 21.0508 70.5317 21.0149 70.507C20.9876 70.4882 21.0391 70.1893 21.1348 69.8522C21.5589 68.2929 22.0498 66.1531 22.5614 63.6114C23.0568 61.0996 23.1339 60.8183 23.3292 60.7995C23.8121 60.7275 24.2998 59.644 26.6094 53.4124C27.9995 49.6796 28.574 46.177 28.4435 42.427C28.2522 37.397 27.1878 30.4012 26.4164 29.0206C25.7811 27.9147 24.8884 27.7179 24.2573 28.564C23.7525 29.2459 22.6521 32.01 22.2978 33.4641C22.2556 33.657 22.064 34.3748 21.8721 35.0501C21.4097 36.7495 20.8979 39.6122 20.6252 41.9853C20.4256 43.6992 20.3606 44.5728 20.258 46.952C20.2277 47.8072 20.2776 51.182 20.341 52.1585C20.3845 52.7169 20.4171 53.408 20.4299 53.6811C20.4543 54.2965 20.6418 55.8447 20.9513 57.9644C21.0829 58.8624 21.1796 59.7772 21.1703 60.0219C21.1524 60.2606 21.2317 60.5927 21.3512 60.7595C21.5854 61.1017 21.5702 61.2446 21.0205 64.0388C20.5069 66.6082 19.952 69.0936 19.5257 70.7479C19.3326 71.4924 19.0214 72.6828 18.8349 73.4174L18.5137 74.741L16.4936 77.8604C14.1831 81.4474 13.18 82.9834 12.7178 83.6537C12.534 83.9025 12.1357 84.548 11.8414 85.0683C11.538 85.5836 10.8382 86.6044 10.2728 87.3291C9.70823 88.0545 8.74065 89.2953 8.13199 90.1C6.53703 92.2039 6.5659 92.196 7.25478 90.3313C7.59306 89.4093 8.07765 87.9893 8.33238 87.1763C8.86611 85.4836 8.88281 85.4528 9.85284 84.0472C10.2452 83.4821 10.6555 82.7907 10.7665 82.5183C10.8762 82.2462 11.0896 81.7391 11.2436 81.3852C11.6287 80.4676 12.2106 78.6403 12.4893 77.4407C13.3983 73.571 13.7365 70.1845 13.8864 63.6359C13.8979 63.2963 13.9187 62.3223 13.9411 61.4603C13.9921 59.5186 13.7812 58.2886 13.3587 57.9978C12.972 57.7317 12.239 57.9236 11.7339 58.4243C11.2064 58.9664 9.38432 62.4019 8.77608 64.0287C7.84203 66.5307 7.30414 68.5971 6.89412 71.2933C6.64313 72.944 6.38641 75.1749 6.34766 76.1366C6.33616 76.4762 6.30131 77.134 6.2835 77.6239C6.10472 81.5363 6.21401 85.1197 6.5175 85.6761C6.9459 86.4585 6.94648 86.7087 6.48261 88.1574C5.93485 89.9237 4.66472 93.1141 3.65558 95.3001C3.21038 96.2596 2.75741 97.2572 2.63835 97.5228C2.51928 97.7884 1.99331 98.6936 1.45583 99.5486L0.481556 101.077L0.601902 101.424C0.73707 101.837 1.02754 102.051 1.29024 101.953C1.39717 101.916 1.89038 101.322 2.37568 100.655C3.98375 98.4356 5.22469 96.7566 6.01943 95.7444C7.09816 94.3435 10.0188 90.4948 11.0854 89.071C11.5792 88.4093 12.4784 87.1347 13.0861 86.217L14.203 84.5636L15.342 83.9416C16.7272 83.1825 18.6022 81.9967 18.8503 81.7222C18.9518 81.6255 19.0574 81.5449 19.0933 81.5696C19.1292 81.5943 19.5659 81.3109 20.0621 80.9415C20.5432 80.5762 21.1294 80.1314 21.3639 79.973C21.6345 79.7694 22.2818 79.5754 23.3598 79.3844C28.6953 78.3934 31.8611 76.8288 35.8753 73.2173C37.1165 72.1094 40.6427 68.4408 41.9938 66.8786C42.7351 66.0106 43.7953 64.3473 44.0121 63.7169C44.279 62.9268 43.9457 62.2653 43.2492 62.1625C42.8561 62.114 36.5051 64.4105 33.8483 65.5604C31.7526 66.47 30.1273 67.4669 28.4341 68.8624C25.7392 71.0854 22.3612 75.1625 21.1232 77.6785L20.647 78.6735L18.3408 80.3144C17.0718 81.2222 16.0015 81.947 15.9657 81.9224C15.9119 81.8853 17.7298 79.0033 18.7769 77.4551C18.9688 77.1697 19.4559 76.4056 19.8444 75.7546C20.2423 75.1101 20.7115 74.3336 20.9034 74.0481C21.9271 72.4284 24.0572 68.7874 26.138 65.0556C28.7903 60.3125 28.4584 60.7659 31.1402 58.0886C32.1054 57.125 33.491 55.7266 34.2337 54.9706C35.3817 53.7839 35.5889 53.6067 35.7214 53.7256C36.0051 53.9764 36.5792 53.7597 37.9422 52.8598C41.0554 50.7992 41.5182 50.4914 42.9318 49.4743C45.6741 47.5059 48.7889 44.236 51.1261 40.8486C51.4654 40.3579 51.852 39.8035 51.9835 39.6297C52.6598 38.676 55.0692 34.655 55.4558 33.8495C56.7075 31.2172 57.0512 30.2157 56.9691 29.4774C56.9302 29.1163 56.8583 28.9981 56.538 28.7909C56.0508 28.4833 55.5985 28.5896 54.4939 29.263C53.638 29.7733 53.4962 29.899 53.751 29.9066C53.8266 29.9031 53.7234 29.9576 53.5062 30.0169C52.67 30.2633 47.11 34.0623 45.1663 35.7174C43.4752 37.1566 41.232 39.5927 40.1958 41.1206C40.0315 41.355 39.6124 41.9717 39.2562 42.4916C37.7165 44.7446 35.5292 49.6544 35.2497 51.4943C35.206 51.8263 34.2013 52.9992 32.0638 55.216C30.2446 57.0956 30.3573 57.0477 31.0315 55.6195C32.8838 51.6472 33.905 49.3717 35.5782 45.3884C36.9584 42.1073 38.435 38.0997 39.4944 34.7511C39.9334 33.3698 40.0048 33.2379 40.2869 33.2643C40.7671 33.2883 41.0004 32.948 42.3785 30.264C44.0253 27.0832 45.0486 24.4616 46.0639 20.8739C47.2586 16.6577 48.2153 10.6922 48.4567 5.88868C48.5958 3.2148 48.5778 1.74094 48.3966 1.32427C48.3292 1.15231 48.1442 0.900807 47.9996 0.758954C47.7684 0.543057 47.6376 0.509866 47.2733 0.592121ZM47.1094 5.29567C46.9723 9.33456 46.2795 14.4246 45.2719 18.7973C45.0023 19.9345 43.9845 23.4359 43.7156 24.115C43.646 24.2891 43.3719 24.9778 43.1095 25.6469C42.18 28.0278 40.6578 31.4331 40.6158 31.2378C40.5967 31.1823 40.8711 30.1053 41.2206 28.8421C42.3761 24.5858 43.9768 17.4752 43.9946 16.4158C44.004 16.0325 43.8202 15.7117 43.4851 15.5776C43.1231 15.4262 42.8697 16.1001 42.0455 19.4018C41.608 21.1462 41.1705 22.8905 41.0695 23.2809C40.8506 24.1186 39.4567 29.227 39.3104 29.7249L39.2053 30.0555L39.1208 29.7331C38.8194 28.5795 38.9795 24.0412 39.4044 21.8415C40.2798 17.2801 42.296 11.8204 44.9259 6.86771C46.6414 3.65089 46.9942 3.0441 47.0893 3.16503C47.141 3.22969 47.1411 4.18901 47.1094 5.29567ZM55.0149 31.2363C54.9271 31.4679 54.3171 32.6628 53.6629 33.896C50.5411 39.7364 46.7995 44.5093 42.9417 47.6022C42.0321 48.3266 37.5856 51.4595 37.5774 51.3838C37.5667 51.3342 39.2523 49.4049 39.8728 48.7603C40.1351 48.4811 40.6803 47.8824 41.0921 47.4417C41.762 46.7057 45.1383 43.1559 46.3399 41.9374C46.6022 41.6581 47.2133 41.0071 47.6883 40.4711C48.4451 39.6416 48.5615 39.4719 48.6024 39.1235C48.6555 38.798 48.6105 38.697 48.3595 38.5243C47.9643 38.2522 47.8009 38.3486 46.5368 39.635C45.978 40.2111 45.165 41.0297 44.7273 41.4513C44.0021 42.177 42.1969 44.1217 38.6122 48.0566C37.8335 48.9266 37.2009 49.5483 37.2035 49.4523C37.2196 48.9203 39.5053 44.398 40.4356 43.0205C42.0494 40.6521 44.1802 38.3329 46.5851 36.3278C48.5808 34.6675 54.8272 30.6023 55.1027 30.7774C55.1373 30.8065 55.089 31.0085 55.0149 31.2363ZM25.7366 31.4188C25.9785 32.5459 26.3615 35.0083 26.5497 36.6679C27.4522 44.6927 27.1759 47.9407 25.1005 53.694C24.7599 54.6421 24.3059 55.9166 24.0897 56.5198C23.8651 57.117 23.6668 57.62 23.6379 57.6279C23.609 57.6358 23.6546 57.0276 23.7532 56.2736C23.9289 54.8075 24.2926 51.3977 24.41 50.0871C24.447 49.6527 24.6437 47.9659 24.8406 46.348C25.2837 42.7007 25.2773 42.7796 25.0415 42.464C24.8966 42.2533 24.7952 42.2112 24.5695 42.2647C24.0264 42.3785 24.0006 42.4717 23.4088 47.0328C23.2429 48.2968 23.0174 49.9914 22.9148 50.7982C22.8028 51.5986 22.6289 53.1068 22.5139 54.1402C22.4041 55.164 22.2796 56.0112 22.2508 56.0191C21.999 56.0969 21.5855 50.2454 21.6069 46.8774C21.6279 43.1895 22.3363 38.3889 23.4011 34.8484C23.5025 34.5006 23.5896 34.1576 23.5899 34.0878C23.5902 34.0179 23.6513 33.838 23.7104 33.6831C23.7785 33.5357 23.9694 32.9985 24.1389 32.5034C24.3083 32.0082 24.6241 31.1949 24.8352 30.7138L25.2329 29.8182L25.3654 30.0758C25.4391 30.2124 25.601 30.8247 25.7366 31.4188ZM41.7984 64.589C41.4498 65.0732 39.893 66.8122 38.5518 68.2412C38.0902 68.7308 37.4275 69.4296 37.0783 69.8024C34.9319 72.0832 32.4202 74.1256 30.3676 75.2738C29.697 75.6473 28.1814 76.3722 27.559 76.6111C25.3077 77.5115 24.3334 77.8293 24.4214 77.6666C24.4433 77.6261 25.4635 76.8814 26.6832 75.9952C27.9072 75.125 28.918 74.3738 28.9289 74.3536C28.9456 74.3228 29.8313 73.6665 30.9004 72.8986C31.9661 72.1151 32.9964 71.3496 33.1874 71.2022C33.8027 70.6796 33.7878 69.932 33.1565 69.8451C32.9184 69.8068 32.078 70.3555 28.7823 72.7081C26.5354 74.3065 24.3978 75.8413 24.0324 76.1052C23.6671 76.3691 23.3591 76.5747 23.3607 76.548C23.3187 76.3527 26.1529 73.0971 27.6545 71.5988C30.3007 68.9657 32.0456 67.8146 35.5152 66.4182C37.9478 65.4338 41.9468 64.0397 42.0723 64.126C42.0921 64.137 41.9676 64.3434 41.7984 64.589ZM12.6232 61.0422C12.616 61.649 12.6231 62.1837 12.6428 62.2382C12.6534 62.2879 12.6513 62.3828 12.6265 62.4503C12.5965 62.5275 12.5536 63.4296 12.5137 64.4605C12.3403 69.2963 11.9483 73.2152 11.3488 76.1708C11.0052 77.8542 10.2644 80.365 10.1389 80.2786C10.1116 80.2598 10.1537 79.9545 10.2315 79.605C10.2955 79.2593 10.4579 78.3418 10.5805 77.5911C10.699 76.8242 11.0221 74.791 11.2965 73.0732C11.9725 68.9044 12.0392 68.324 11.8645 68.0082C11.6643 67.6484 11.2758 67.6585 11.0202 68.0402C10.9147 68.1896 10.6862 69.0907 10.5031 70.0918C9.82474 73.7172 9.71845 74.2559 9.40818 75.9491C8.9019 78.7322 7.96055 83.095 7.88031 83.0398C7.79068 82.9781 7.85353 77.4544 7.95864 75.3003C8.15712 71.4424 9.28823 66.1809 10.369 64.1829C10.4951 63.9499 10.5719 63.7385 10.5361 63.7138C10.4464 63.6522 12.3308 60.0084 12.4942 59.9121C12.6529 59.8245 12.6446 59.7487 12.6232 61.0422Z" fill="#22232D"/>
</svg>
