<svg width="19" height="38" viewBox="0 0 19 38" fill="none" xmlns="http://www.w3.org/2000/svg">
<path fill-rule="evenodd" clip-rule="evenodd" d="M7.54147 0.119999C6.61447 0.414999 5.77248 1.658 5.55048 3.069C5.29748 4.67 5.62447 6.271 6.59347 8.114C7.07747 9.051 7.47847 9.54601 8.27847 10.199L8.73147 10.568L8.82648 13.57C9.02648 19.658 8.91048 23.702 8.44748 26.42C8.38448 26.757 8.35246 26.673 8.07846 25.672C7.82546 24.692 7.06746 22.575 6.08746 20.132C5.83446 19.5 5.80348 19.31 5.88748 19.026C5.94048 18.836 5.99246 18.31 5.99246 17.857C5.99246 15.35 4.82348 12.886 3.29648 12.19C2.43248 11.8 1.00048 12.011 0.473479 12.601C-0.263521 13.423 -0.126511 15.139 0.789489 16.519C1.32649 17.33 2.48548 18.499 3.67548 19.437C4.25448 19.879 4.74946 20.353 4.80246 20.511C4.86546 20.658 5.07649 21.206 5.27649 21.733C6.34049 24.461 6.71948 25.483 6.86648 26.051C7.06648 26.841 7.30847 28.431 7.40347 29.527C7.43547 29.99 7.51949 30.507 7.58249 30.686C7.70849 31.065 7.31947 32.687 6.49747 35.236C6.08647 36.531 6.00249 36.89 6.08649 37.111C6.20249 37.427 6.41348 37.522 6.77148 37.437C6.96148 37.384 7.12949 37.184 7.39249 36.658C8.66749 34.13 9.66749 30.244 10.1945 25.788C10.2575 25.24 10.3315 24.629 10.3635 24.429C10.3845 24.239 10.5425 23.902 10.7005 23.692C11.1425 23.123 11.4375 22.639 12.6065 20.659C13.5225 19.111 13.7125 18.847 13.9545 18.816C14.1755 18.795 14.3015 18.658 14.5655 18.131C14.9345 17.404 15.4085 16.762 16.5035 15.466C17.6835 14.086 18.0835 13.128 18.1045 11.664C18.1255 9.92601 17.2515 8.736 15.9035 8.715C15.2715 8.694 15.0395 8.768 14.4505 9.157C12.9755 10.158 12.1545 12.791 12.4175 15.666C12.4805 16.34 12.5755 17.088 12.6285 17.341C12.7235 17.783 12.7125 17.826 12.1645 18.658C11.8595 19.132 11.3955 19.901 11.1535 20.364C10.9115 20.828 10.6685 21.238 10.6375 21.28C10.5955 21.322 10.5635 20.585 10.5635 19.647C10.5635 15.097 10.3215 10.694 10.0265 9.99901C9.88949 9.66201 9.90047 9.567 10.1315 8.84C10.9845 6.238 11.2905 3.479 10.8895 2.131C10.4065 0.531001 8.97447 -0.333001 7.54147 0.119999ZM8.97449 1.732C9.12249 1.816 9.34347 2.122 9.48047 2.385C9.70147 2.838 9.72247 3.017 9.72247 4.407C9.71147 5.629 9.66947 6.11301 9.48047 6.83001C9.35447 7.32501 9.20646 7.99901 9.14346 8.32601C9.08046 8.66301 8.98546 8.937 8.93246 8.937C8.76346 8.937 8.18448 8.105 7.80548 7.336C7.04748 5.777 6.98349 5.52401 6.98349 4.14501C6.98349 3.00701 7.00446 2.82801 7.24646 2.36501C7.67846 1.51001 8.30049 1.279 8.97449 1.732ZM16.4525 10.653C16.7055 11.18 16.7055 12.222 16.4625 12.907C16.2725 13.444 15.8625 14.076 14.6725 15.719C13.8195 16.899 13.8295 16.899 13.7355 15.224C13.6615 13.76 13.8515 12.665 14.3675 11.559C14.8515 10.527 15.2315 10.19 15.8315 10.221C16.1995 10.253 16.2735 10.295 16.4525 10.653ZM2.94946 13.444C3.23346 13.634 3.86546 14.381 3.87646 14.539C3.87646 14.581 3.99249 14.866 4.12949 15.171C4.55049 16.066 4.90847 18.31 4.63547 18.31C4.59347 18.31 3.98249 17.741 3.27649 17.046C1.90749 15.708 1.53849 15.14 1.40149 14.181C1.33849 13.77 1.35946 13.665 1.54846 13.475C1.83346 13.191 2.54946 13.181 2.94946 13.444Z" fill="#BF6324"/>
</svg>
