<svg width="129" height="135" viewBox="0 0 129 135" fill="none" xmlns="http://www.w3.org/2000/svg">
<path fill-rule="evenodd" clip-rule="evenodd" d="M66.5235 47.3487C66.5347 47.3734 66.4178 47.936 66.2576 48.5969C66.103 49.2598 65.9246 50.0956 65.855 50.4603C65.7915 50.8274 65.6857 51.3603 65.6175 51.6513C65.5493 51.9424 65.4597 52.3605 65.4092 52.584C65.3648 52.8098 65.2614 53.2834 65.1823 53.6376C65.0025 54.4395 65.0494 54.6387 65.4568 54.7378C65.6172 54.7775 65.8233 54.7671 66.0072 54.7081C66.298 54.615 67.2692 54.1643 67.6709 53.9375C67.7854 53.8659 68.359 53.6293 68.9426 53.4036C70.9781 52.6105 71.0649 52.5957 70.9276 52.9619C70.8058 53.2866 70.5099 55.3519 70.5075 55.8974C70.5012 56.5078 70.4989 56.514 68.8852 58.0314C68.294 58.5844 67.6855 59.1648 67.5478 59.3154C67.4045 59.4638 67.2015 59.664 67.1005 59.7541C66.0038 60.7374 64.0723 63.3549 63.2814 64.925C62.0507 67.3812 61.7057 68.8217 61.567 72.0847C61.4866 74.1502 61.4919 74.2264 61.8638 74.3658C62.1767 74.4832 62.3848 74.3053 63.3219 73.154C64.8706 71.2348 65.4119 70.832 67.1993 70.2894C67.4359 70.2162 67.9062 70.076 68.2433 69.9669C68.5844 69.8658 68.8887 69.7913 68.9297 69.8066C68.9712 69.8222 68.9586 69.8916 68.8885 70.0068C68.7056 70.3156 68.0883 71.9975 68.129 72.0869C68.151 72.1355 68.1311 72.1888 68.0652 72.2383C67.9972 72.2934 67.9102 72.5441 67.7749 73.1197C67.2021 75.5463 67.1978 78.3606 67.7552 81.2584C68.0151 82.5956 68.1355 82.8493 68.5965 83.0221C69.0216 83.1816 69.2494 83.0245 70.5473 81.665C71.935 80.2112 73.0264 79.2592 74.5902 78.1613C77.5213 76.0938 78.7889 74.9789 79.6006 73.7473C79.723 73.5642 79.8451 73.4008 79.8696 73.3901C79.9937 73.3286 80.6466 75.5949 80.74 76.4052C80.7585 76.5536 80.7915 76.6804 80.8151 76.6893C80.8387 76.6981 80.8446 76.7541 80.8284 76.8158C80.812 76.8768 80.8262 77.0913 80.8584 77.2921C80.8905 77.4929 80.9351 77.8058 80.9402 77.99C80.9949 78.8863 81.4761 79.2017 82.0201 78.7046C82.2599 78.4779 83.5321 76.8458 84.1164 76.0075C85.0316 74.6996 85.9998 73.1224 86.5208 72.1119C86.9808 71.2263 87.8036 69.0151 87.8303 68.601C87.8427 68.4777 87.8858 68.238 87.934 68.0737C88.0204 67.7357 88.0821 67.3546 88.1493 66.6722C88.1707 66.4173 88.1959 66.1709 88.2018 66.1194C88.3127 65.0696 88.216 63.0995 88.017 62.2093C87.9651 61.9877 87.9138 61.7663 87.9058 61.7159C87.8937 61.6577 87.9952 61.5678 88.1703 61.478C88.3289 61.3961 88.5049 61.2868 88.5646 61.235C88.7588 61.0583 89.7807 59.8787 90.1835 59.3626L90.5812 58.8579L90.9456 59.594C91.1444 59.9986 91.5584 60.9963 91.8636 61.8183C92.6247 63.8488 93.0046 64.4359 93.5073 64.3884C93.9198 64.3479 94.1298 64.0761 95.2632 62.0958C95.4977 61.6854 96.0405 60.7772 96.4638 60.08C97.4625 58.44 97.9973 57.4814 98.3578 56.6462C98.8043 55.6346 98.8184 55.5254 98.5587 54.6194C98.4349 54.1956 98.2632 53.5925 98.1712 53.2817C97.9439 52.4685 97.5488 51.4919 97.46 51.5123C97.4235 51.5191 97.4163 51.5024 97.4532 51.4759C97.5312 51.4111 96.9865 50.3304 96.6452 49.8928L96.3822 49.5518L96.7196 48.7955C97.3048 47.4854 98.5767 43.9334 99.089 42.1713C99.8311 39.6534 100.244 37.1335 100.525 33.4383C100.666 31.5512 100.699 29.7576 100.615 28.149C100.591 27.7628 100.581 27.429 100.588 27.4117C100.594 27.3943 100.578 27.0779 100.548 26.7096C100.518 26.3414 100.499 26.0311 100.506 26.0132C100.513 25.9953 100.454 25.3606 100.368 24.6004C100.196 22.9929 99.9598 21.4489 99.6667 20.0384C99.5576 19.4851 99.4237 18.8355 99.3728 18.5944C99.322 18.3528 99.2545 18.0108 99.2212 17.83C99.1094 17.229 98.6497 15.0959 98.4651 14.3122C98.3631 13.8831 98.2723 13.4786 98.257 13.4121C98.2472 13.3477 98.1777 13.0657 98.1087 12.7839C98.0371 12.5076 97.9306 12.0903 97.8793 11.8689C97.8218 11.6452 97.683 11.2426 97.5693 10.9709C97.3401 10.4135 97.08 10.1739 96.6877 10.142C96.2497 10.1057 95.9695 10.2968 94.5105 11.5824C94.0436 12.0003 93.4623 12.5097 93.2285 12.7189C92.16 13.6456 91.6474 14.1136 90.539 15.1468C88.792 16.7691 88.8311 16.7364 88.2482 17.3201C87.956 17.6148 87.4971 18.083 87.2278 18.3524C86.9585 18.6219 86.6201 18.9664 86.4828 19.1177C86.3395 19.2661 85.9364 19.6945 85.5892 20.0627C84.0221 21.7255 82.4356 23.7112 80.7012 26.18C79.9954 27.182 78.8678 29.1107 77.9951 30.7915C76.2164 34.2417 74.841 37.9096 74.3457 40.5405C74.2843 40.8476 74.222 41.1946 74.2018 41.3015C74.1694 41.4781 74.1242 41.5084 73.7182 41.639C72.7647 41.9352 71.3399 42.681 70.2961 43.4346C69.1063 44.289 66.8991 46.4392 66.6471 46.985C66.5687 47.1565 66.5123 47.324 66.5235 47.3487ZM68.2128 46.5268C70.3166 44.3846 71.4096 43.5547 73.3459 42.6304L73.9271 42.3564L73.8401 42.7146C73.7849 42.9165 73.5264 43.7491 73.2621 44.5801C73.0001 45.405 72.7452 46.1922 72.7084 46.3262C72.0957 48.4275 71.5338 50.1238 71.1865 50.9237L70.7972 51.8357L70.4293 51.9537C69.5681 52.2372 68.3588 52.7138 67.1974 53.2417C66.5094 53.5499 65.9393 53.7941 65.9375 53.78C65.9263 53.7553 66.1065 52.9337 66.4923 51.2053C66.5804 50.827 66.6537 50.4509 66.6674 50.3613C66.6804 50.2722 66.7168 50.1035 66.7471 49.9869C66.8746 49.5562 67.1548 48.4151 67.1935 48.1668C67.2915 47.583 67.4953 47.2545 68.2128 46.5268ZM63.5448 66.5393C63.9451 65.7055 64.4684 64.7228 64.69 64.4015C64.7785 64.2729 64.8541 64.1259 64.8503 64.0644C64.85 64.0106 64.8717 63.9714 64.8953 63.9802C64.9188 63.989 65.0186 63.8851 65.1257 63.7429C65.2248 63.6048 65.4307 63.3251 65.5799 63.1251C65.737 62.9211 65.8756 62.6967 65.9042 62.6204C65.9245 62.5474 65.9647 62.4947 65.9945 62.5059C66.0477 62.5259 66.2793 62.1949 66.3425 62.0095C66.3624 61.9562 66.398 61.9158 66.4216 61.9246C66.4452 61.9335 66.6002 61.7895 66.7674 61.5963C67.1296 61.1864 67.8137 60.4591 68.7476 59.4953C70.1285 58.0595 70.6802 57.397 70.8419 56.9657C70.9216 56.7531 71.0437 56.7516 71.3694 56.9613C71.5119 57.0487 71.8219 57.2455 72.0622 57.3964C72.3018 57.5471 72.5518 57.708 72.6124 57.7441C72.7252 57.8203 72.7231 57.8259 72.3148 58.34C72.0764 58.6345 71.4338 59.2699 70.8179 59.8341C69.6018 60.921 69.3131 61.2235 68.4549 62.2361C67.789 63.024 67.1574 63.9527 66.5426 65.0361C66.0301 65.9353 65.9769 66.0772 66.0614 66.3379C66.1142 66.5195 66.161 66.5569 66.3768 66.6109C66.5192 66.6439 66.8053 66.6367 67.0323 66.5875C67.2516 66.5418 67.6048 66.4989 67.8085 66.4947C68.842 66.4511 70.0797 66.2416 70.9152 65.9549C71.1154 65.8885 71.3005 65.8435 71.3359 65.8567C71.4245 65.8899 71.5064 67.0191 71.4793 67.7567C71.4612 68.1273 71.3847 68.8535 71.3013 69.3813C70.9823 71.4175 70.8755 72.2603 70.7753 73.4964C70.6496 75.1604 70.7411 75.6534 71.2126 75.7624C71.4661 75.8236 71.5208 75.8038 72.6059 75.2268C73.5038 74.7549 74.1036 74.36 74.9302 73.6995C76.802 72.2117 78.0404 70.5266 79.145 67.9765C79.3026 67.6108 79.4889 67.2028 79.558 67.0732L79.6785 66.8421L80.1512 67.3968C80.7859 68.1472 81.0012 68.5983 81.2782 69.7462C81.558 70.9226 81.6355 71.0931 81.9216 71.1933C82.478 71.3815 82.9744 70.7929 83.5502 69.2573C84.0852 67.8478 84.5865 65.704 84.697 64.3311C84.7163 64.1362 84.7459 63.8236 84.7585 63.6467C84.7735 63.4635 84.7733 63.0323 84.7505 62.6803L84.7121 62.0459L84.9843 62.0738C85.6644 62.1472 86.0211 62.1664 86.6209 62.1483C86.9748 62.1396 87.2644 62.1401 87.2677 62.1483C87.3101 62.3594 87.3834 63.1686 87.3611 63.228C87.3456 63.2695 87.3603 63.3019 87.3906 63.2928C87.4185 63.2899 87.431 63.3284 87.415 63.3896C87.4012 63.4452 87.3899 63.7979 87.4003 64.1658C87.4292 65.7062 87.1996 67.7017 86.8737 68.786C86.5582 69.8064 86.4962 69.9718 86.1433 70.7696C85.3965 72.4369 84.5757 73.8 82.7726 76.3448C82.3557 76.9362 81.8497 77.5487 81.802 77.5308C81.7784 77.522 81.7168 77.236 81.666 76.8868C81.4519 75.4996 81.143 74.3462 80.6399 73.0655C80.335 72.2974 80.265 72.1976 79.982 72.1247C79.8216 72.0851 79.4437 72.3201 79.3219 72.5374C78.9045 73.2905 78.6073 73.7248 78.2728 74.0778C77.8859 74.4989 77.1717 75.1273 76.6956 75.481C76.1067 75.9203 74.1868 77.3025 73.6557 77.6765C72.8099 78.262 72.0357 78.8884 71.2477 79.6234C70.4829 80.3339 69.5366 81.2931 69.4969 81.3991C69.4525 81.5174 68.9319 81.935 68.9065 81.8782C68.8794 81.8072 68.7181 80.871 68.5726 79.947C68.3498 78.4753 68.3099 76.318 68.483 74.7593C68.6386 73.4097 68.784 72.8239 69.3615 71.248C69.6606 70.4504 69.9191 69.7253 69.9461 69.6344C70.0075 69.4348 69.9231 69.336 69.5436 69.1265L69.2557 68.9782L68.1201 69.2395C66.0621 69.7139 65.4178 69.9239 64.7219 70.3775C64.2378 70.6809 63.554 71.3546 62.9111 72.1511C62.5825 72.5601 62.375 72.7721 62.3609 72.7195C62.3529 72.6691 62.3586 72.2939 62.3737 71.8952C62.3906 71.4902 62.3958 71.1352 62.3894 71.0995C62.3847 71.0575 62.3899 70.9718 62.4087 70.9047C62.429 70.8317 62.5045 70.361 62.5812 69.8511C62.7948 68.3601 62.9715 67.7457 63.5448 66.5393ZM77.3118 34.1387C78.4081 31.6999 80.0432 28.7416 81.4107 26.748C83.097 24.281 85.347 21.5871 87.7089 19.2052C88.0032 18.9049 88.3786 18.5332 88.5346 18.3697C88.9451 17.9575 89.1302 17.805 89.1758 17.8284C89.1916 17.8408 89.3298 17.9738 89.4726 18.115C90.2847 18.9313 92.1507 19.9209 93.6783 20.3389C94.9374 20.6831 96.0186 20.7648 97.6856 20.6491C98.2242 20.615 98.6781 20.5902 98.7017 20.599C98.8671 20.661 99.4421 25.0744 99.5098 26.7637C99.5232 27.1596 99.5621 28.151 99.5919 28.9707C99.6492 30.3804 99.6047 32.0276 99.4817 33.5584C99.3676 34.9236 99.3398 35.2298 99.2609 35.8002C99.2174 36.114 99.172 36.5218 99.1576 36.7051C99.0263 38.3671 98.5004 40.7575 97.7435 43.0811C97.2637 44.5587 95.6619 48.8831 95.5365 49.0382C95.4909 49.0883 95.3682 49.2176 95.2605 49.3256C95.1528 49.4336 94.9004 49.8373 94.6942 50.2251C94.4824 50.6107 94.0488 51.3712 93.7229 51.9162C93.397 52.4612 92.9866 53.1428 92.8183 53.4296C92.6498 53.717 92.3005 54.2526 92.0534 54.625C91.8057 54.9972 91.5271 55.4179 91.4353 55.5722C91.3458 55.7203 91.1267 56.0897 90.942 56.3845C90.7572 56.6792 90.5072 57.1311 90.3795 57.3999C90.1563 57.8689 89.8812 58.1898 89.7393 58.1366C89.7039 58.1234 89.19 58.1462 88.5893 58.1839C87.136 58.2857 86.6165 58.3064 86.1482 58.2793C85.3613 58.2401 83.9861 58.0078 83.0511 57.7512C82.6598 57.6448 82.6363 57.6359 82.6996 57.5388C82.7396 57.4866 83.0482 57.0765 83.3839 56.6298C84.5305 55.0991 85.4742 53.553 86.1642 52.0731C86.6286 51.0682 86.6604 50.9119 86.4409 50.5264C86.3361 50.3386 86.2775 50.2969 86.0635 50.2569C85.5765 50.1549 85.0143 49.9108 83.8572 49.2946C82.8565 48.7645 81.524 48.2578 81.0793 48.2395C80.6866 48.2272 80.301 48.3922 80.0787 48.6799C79.8359 48.9861 79.5875 49.8634 79.2437 51.6075C78.8738 53.5101 78.2785 56.2116 78.2322 56.2276C78.2076 56.2388 78.0253 56.1499 77.8142 56.0305C77.6066 55.9187 77.2698 55.7387 77.064 55.6411C75.3144 54.7899 72.0777 52.7132 71.9766 52.372C71.9589 52.3117 71.9788 52.0965 72.0238 51.9049C72.0746 51.7147 72.1272 51.4312 72.1528 51.2726C72.1728 51.1118 72.3738 50.4324 72.6 49.7559C72.8267 49.0797 73.1522 48.0496 73.3295 47.4694C73.5124 46.8912 73.7711 46.0581 73.9046 45.6303C74.0405 45.1963 74.1522 44.8269 74.1469 44.8051C74.1418 44.7827 74.2739 44.3947 74.4362 43.9431C74.7691 43.0367 74.9775 42.1585 74.9144 41.9667C74.8906 41.904 74.8547 41.8566 74.8323 41.8616C74.7166 41.9193 74.7215 41.6179 74.85 41.1678C74.9362 40.8835 75.0773 40.3638 75.1705 40.0079C75.59 38.4252 76.4521 36.0732 77.3118 34.1387ZM67.6284 64.904C68.0544 64.1809 68.3365 63.7884 68.93 63.0674C69.6865 62.1452 69.8427 61.9812 71.0059 60.8546C72.3639 59.5515 72.9536 58.8764 73.1086 58.463L73.2282 58.1439L73.4761 58.2369C73.618 58.2901 74.004 58.4822 74.3464 58.6643C75.1096 59.072 76.543 59.7241 77.1347 59.9255L77.576 60.0775L77.5692 60.5803C77.5545 61.6259 77.6697 61.9653 78.0892 62.1226C78.4139 62.2443 78.7783 62.0643 79.4097 61.4586L79.8922 60.9992L80.2137 61.1127C80.9903 61.377 82.5184 61.7409 83.2658 61.8324C83.5475 61.8709 83.7892 61.9276 83.8039 61.96C83.8446 62.0495 83.8316 63.5204 83.7795 64.3964C83.6909 65.9804 83.285 67.7281 82.6647 69.2202C82.4041 69.8434 82.2336 70.1908 82.1705 70.2139C82.1135 70.2398 82.0781 70.2266 82.0798 70.1862C82.0813 70.1465 81.9928 69.7359 81.89 69.2732C81.6841 68.3669 81.3792 67.6532 80.9581 67.1044C80.8173 66.9237 80.5319 66.5333 80.3173 66.2442C79.8729 65.633 79.6792 65.5201 79.345 65.657C79.179 65.7227 79.1182 65.7946 79.032 66.0245C78.8082 66.6213 78.0331 68.3112 77.7152 68.9065C77.0568 70.1418 75.8338 71.7316 74.9245 72.5222C74.0023 73.3285 72.5253 74.3381 71.8462 74.6221L71.6131 74.7234L71.6066 74.364C71.6042 73.5616 71.6086 73.3879 71.6904 72.4686C71.7813 71.4721 71.8778 70.6927 72.0279 69.8796C72.2426 68.7133 72.3106 67.5803 72.2362 66.5212C72.1564 65.3865 71.9796 64.9965 71.554 64.9988C71.4604 64.9976 70.9944 65.1261 70.5276 65.2741C69.5675 65.5877 68.9827 65.6921 68.205 65.6832C67.9177 65.6765 67.5582 65.6831 67.4164 65.6843L67.1483 65.6982L67.2456 65.546C67.296 65.4664 67.4666 65.1734 67.6284 64.904ZM71.8997 53.3328C71.9115 53.3372 72.0357 53.4376 72.165 53.5603C72.482 53.8474 72.4877 53.8495 72.5819 53.7774C72.6455 53.734 72.6551 53.7441 72.6284 53.8153C72.6084 53.8686 72.6335 53.9451 72.6885 53.9792C72.7716 54.0443 72.7663 54.096 72.6465 54.3607C72.5212 54.6233 72.2787 55.5566 72.1207 56.3737L72.0807 56.5877L71.8069 56.4377C71.6564 56.3544 71.5183 56.2553 71.5059 56.2168C71.485 56.1821 71.5178 55.8438 71.5683 55.4584C71.6244 55.0752 71.6937 54.4947 71.7253 54.1765C71.7815 53.6122 71.8408 53.3107 71.8997 53.3328ZM73.3396 54.5067C73.3934 54.5065 73.6891 54.6717 73.9968 54.8747L74.5521 55.2448L74.4836 55.482C74.4409 55.6145 74.3378 56.1215 74.242 56.6107C74.1539 57.0965 74.066 57.5286 74.0528 57.5639C74.0372 57.6054 73.9324 57.5796 73.7266 57.4819C73.1189 57.1798 72.7141 56.9474 72.6775 56.8659C72.6334 56.7687 72.9472 55.3569 73.1233 54.8498C73.2107 54.5998 73.2719 54.5082 73.3396 54.5067ZM75.1603 55.6341C75.1877 55.6514 75.4129 55.7691 75.6688 55.9124L76.1324 56.1669L75.9407 56.7686C75.8307 57.0977 75.705 57.5764 75.6579 57.8281C75.6109 58.0798 75.5568 58.2955 75.5345 58.3006C75.4836 58.3288 75.1314 58.1898 74.7808 58.0109L74.4952 57.8565L74.6054 57.4193C74.9677 56.0403 75.1014 55.612 75.1603 55.6341ZM91.3341 15.7201C92.1613 14.9524 92.9401 14.2401 93.0656 14.1393C93.185 14.0357 93.4819 13.7831 93.7156 13.5745C93.955 13.3675 94.2791 13.0783 94.4397 12.9364C95.1616 12.3045 96.3368 11.3097 96.4452 11.2358C96.5514 11.1675 96.5832 11.173 96.6413 11.269C96.7576 11.4808 97.5308 14.6815 97.9246 16.6152C97.9771 16.8709 98.1015 17.4364 98.197 17.8829C98.4058 18.8171 98.5654 19.7393 98.5245 19.7579C98.3479 19.833 95.8876 19.7459 95.1811 19.6358C93.6424 19.4093 91.7674 18.6589 90.5699 17.7921C90.2257 17.5415 89.8041 17.1749 89.8173 17.1395C89.8246 17.1218 90.5091 16.4822 91.3341 15.7201ZM77.0954 56.6559C77.2895 56.7491 77.5017 56.8486 77.5723 56.8751C77.6963 56.9215 77.6875 56.9451 77.3198 57.9254L76.9411 58.9355L76.5047 58.7514L76.0684 58.5673L76.1439 58.2585C76.188 58.0863 76.3373 57.6165 76.4879 57.2149L76.7508 56.4781L77.0954 56.6559ZM81.0777 49.1613C81.3644 49.1339 83.155 49.7855 84.188 50.3008C84.6094 50.5061 85.1081 50.7405 85.2909 50.8091C85.4738 50.8776 85.6325 50.9576 85.636 50.9858C85.6448 51.0697 85.0919 52.2576 84.8513 52.6657C84.0435 54.0471 82.988 55.6932 82.8201 55.8184C82.7995 55.8375 82.6925 55.9797 82.5807 56.1329C81.7572 57.2865 80.0622 59.3997 79.5107 59.9541C78.7268 60.7515 78.5738 60.8899 78.5323 60.8743C78.5026 60.8632 78.4967 60.8072 78.5211 60.7422C78.5432 60.6833 78.5637 60.5023 78.5642 60.3406C78.5749 59.7919 78.9527 57.6159 79.2436 56.3912C79.3801 55.8296 79.8025 53.6965 80.1995 51.5956C80.3819 50.6059 80.5045 50.0998 80.6563 49.7121C80.8652 49.1891 80.8673 49.1835 81.0777 49.1613ZM77.9128 57.9802C77.9137 58.1756 77.6925 59.2858 77.6422 59.2938C77.6119 59.3029 77.5553 59.2746 77.5088 59.2367C77.4431 59.1782 77.4678 59.0595 77.6704 58.5361C77.7989 58.1934 77.9083 57.9376 77.9128 57.9802ZM81.352 59.2833L82.1781 58.2657L82.3969 58.3477C82.5388 58.4009 82.6101 58.4616 82.5947 58.5025C82.4512 58.8664 81.4474 60.6458 81.373 60.6653C81.3227 60.6733 81.1557 60.651 81.0015 60.6136C80.8452 60.5818 80.6332 60.5363 80.5296 60.5243C80.371 60.4987 80.3575 60.4802 80.4345 60.401C80.4824 60.3447 80.898 59.8474 81.352 59.2833ZM82.2581 60.3709C82.3881 60.1503 82.5178 59.929 82.5355 59.8819C82.5587 59.8369 82.7122 59.5368 82.8714 59.2197C83.1009 58.787 83.2021 58.6433 83.2739 58.6497C83.3339 58.6518 83.6578 58.7399 84.0031 58.8426L84.6328 59.0314L84.5333 59.1892C84.4798 59.2772 84.1906 59.7074 83.8828 60.1511L83.3262 60.9531L83.0754 60.9396C82.9359 60.9347 82.7292 60.9109 82.6221 60.8912C82.5093 60.8694 82.3224 60.846 82.2047 60.8357C82.0954 60.8217 82.0001 60.8064 82.0045 60.7946C82.0089 60.7828 82.1201 60.5955 82.2581 60.3709ZM84.4578 60.2726C84.7658 59.8828 85.0742 59.4732 85.1365 59.3616C85.2415 59.172 85.2795 59.1594 85.5267 59.1843C85.6757 59.1998 86.0006 59.2135 86.2482 59.2187C86.5034 59.2204 86.6962 59.2454 86.6851 59.2751C86.6386 59.399 85.0947 61.1448 85.0141 61.1619C84.9638 61.1699 84.7986 61.1617 84.6377 61.1423C84.479 61.1167 84.2403 61.088 84.1054 61.0707C83.9759 61.056 83.8711 61.0301 83.8779 61.0122C83.8846 60.9942 84.1441 60.6604 84.4578 60.2726ZM86.3715 60.7203C86.749 60.3431 87.2992 59.6129 87.39 59.3706C87.4321 59.2584 87.5669 59.2213 88.2504 59.1609C88.6948 59.1255 89.0693 59.0976 89.0749 59.0997C89.081 59.1021 88.783 59.4822 88.4149 59.9436C88.0383 60.4088 87.6629 60.8879 87.5828 61.0127C87.4354 61.2267 87.4131 61.2318 86.9801 61.2178C86.7349 61.2065 86.4055 61.2045 86.2415 61.2102C86.0635 61.2176 85.9625 61.2003 85.9781 61.1588C85.9911 61.124 86.1662 60.9267 86.3715 60.7203ZM92.2437 56.057C92.5841 55.4906 93.003 54.8051 93.1766 54.5401C93.3463 54.2666 93.6019 53.8373 93.7414 53.573C93.8808 53.3086 94.1794 52.8007 94.4024 52.4397C94.6254 52.0787 94.8663 51.6701 94.939 51.5291C95.2046 51.0357 95.7565 50.0502 95.7806 50.0388C95.8442 49.9955 96.2288 50.6585 96.5352 51.3325C97.0224 52.4044 97.4872 53.7717 97.7829 54.9944L97.8902 55.4454L97.6752 56.0185C97.3694 56.834 96.9935 57.5483 96.3065 58.645C95.9755 59.1676 95.6758 59.6616 95.6447 59.7446C95.6081 59.825 95.5614 59.8951 95.5367 59.9063C95.4981 59.9187 94.8739 60.9915 93.9022 62.7024C93.7137 63.043 93.528 63.3233 93.4883 63.3219C93.4541 63.3225 93.1094 62.5529 92.7268 61.6149C92.3443 60.6763 91.8376 59.4755 91.6096 58.9525L91.1857 57.9984L91.4045 57.5411C91.5254 57.2903 91.8978 56.6214 92.2437 56.057Z" fill="#18C47D"/>
<path fill-rule="evenodd" clip-rule="evenodd" d="M76.7737 37.5546C76.7823 37.7466 77.0298 37.8592 77.1703 37.7373C77.2897 37.6336 77.6589 36.9903 78.7329 35.0082C80.3393 32.0532 80.671 31.4023 80.7046 31.1526C80.743 30.8164 80.3517 30.6025 80.1237 30.8337C79.9721 30.9854 79.7173 31.3952 79.2082 32.3231C78.9726 32.7536 78.6819 33.2779 78.5657 33.4973C77.8291 34.8305 76.7547 37.2641 76.7737 37.5546Z" fill="#18C47D"/>
<path fill-rule="evenodd" clip-rule="evenodd" d="M81.1603 29.4638C81.1845 29.6143 81.4733 29.7431 81.604 29.6641C81.6978 29.6117 82.153 28.9539 82.2239 28.7649C82.2483 28.6999 82.2121 28.5987 82.1452 28.5262C81.9544 28.3338 81.7175 28.4266 81.4503 28.7979C81.1875 29.1574 81.1249 29.2887 81.1603 29.4638Z" fill="#18C47D"/>
<path fill-rule="evenodd" clip-rule="evenodd" d="M83.1044 26.4536C83.1109 26.5437 83.1613 26.6432 83.2175 26.6912C83.3939 26.8315 83.6343 26.7125 83.8947 26.3591C84.0312 26.1743 84.176 25.9861 84.2234 25.9501C84.296 25.8827 85.2749 24.6198 85.5338 24.2518C85.6012 24.1626 85.9269 23.7256 86.2628 23.2784C86.6047 22.8341 86.9148 22.3842 86.9609 22.28C87.1427 21.8498 86.7364 21.6027 86.2985 21.8902C86.1493 21.9827 85.4385 22.8548 84.8412 23.6748C83.8129 25.0881 83.657 25.3059 83.5581 25.4979C83.4981 25.6033 83.3686 25.8241 83.2725 25.9902C83.173 26.148 83.0877 26.2849 83.0918 26.2928C83.0918 26.2928 83.0958 26.3692 83.1044 26.4536Z" fill="#18C47D"/>
<path fill-rule="evenodd" clip-rule="evenodd" d="M84.6611 30.6218C84.3481 32.7684 85.1727 34.7012 86.9102 35.9259C87.5268 36.3663 88.5094 36.7278 89.2197 36.792C91.2694 36.9676 93.1067 35.9319 94.0598 34.0727C94.8822 32.4543 94.8009 30.5507 93.8345 28.9415C93.1049 27.7244 92.1415 27.0062 90.777 26.6564C90.4211 26.5632 89.9128 26.4807 89.6422 26.4669C88.3273 26.3979 86.8861 26.9897 85.9304 27.9927C85.3426 28.6065 84.7914 29.754 84.6611 30.6218ZM86.2427 28.9375C86.5069 28.5383 87.1395 27.9465 87.5948 27.686C88.2925 27.2805 89.2985 27.0781 90.1028 27.1782C91.4201 27.3485 92.7162 28.3668 93.3193 29.7047C93.8263 30.8314 93.8644 32.0246 93.4357 33.1849C92.81 34.8706 91.3141 35.9135 89.5642 35.8906C88.9413 35.8796 87.953 35.5691 87.4037 35.2019C86.4023 34.5303 85.7181 33.4446 85.5304 32.2017C85.417 31.4446 85.4438 30.923 85.6466 30.2576C85.8323 29.6191 85.9161 29.4484 86.2427 28.9375Z" fill="#18C47D"/>
<path fill-rule="evenodd" clip-rule="evenodd" d="M86.6139 31.1853C86.5141 31.9904 86.785 33.0285 87.2497 33.6403C87.8949 34.4887 89.0991 34.9607 90.0956 34.7478C90.8923 34.5815 91.7052 34.031 92.2168 33.3132C92.4807 32.9337 92.7798 32.1361 92.8297 31.6431C92.9634 30.4061 92.3816 29.0832 91.4303 28.4572C90.3628 27.7472 88.8416 27.9041 87.8655 28.8182C87.6357 29.0352 87.3464 29.3579 87.2261 29.5354C86.9515 29.9436 86.6722 30.6884 86.6139 31.1853ZM87.9209 29.8561C88.1692 29.518 88.7481 29.0883 89.1489 28.9354C89.5639 28.7808 90.0979 28.7591 90.5565 28.8837C91.4535 29.1324 92.1002 29.9411 92.2009 30.9486C92.2481 31.3975 92.2405 31.435 91.9703 32.1556C91.6933 32.8943 91.6912 32.8999 91.2984 33.265C90.5598 33.9585 89.69 34.1575 88.8157 33.8296C88.4259 33.6835 88.3282 33.62 88.0463 33.3121C87.6915 32.9296 87.4276 32.393 87.3809 31.9239C87.3006 31.2407 87.5199 30.3864 87.9209 29.8561Z" fill="#18C47D"/>
<path fill-rule="evenodd" clip-rule="evenodd" d="M91.0463 53.3037C91.0949 53.3891 91.1482 53.409 91.278 53.404C91.5703 53.3786 92.2096 52.4464 93.3662 50.3328C93.6445 49.8243 93.9751 49.1934 94.0972 48.9226C94.2248 48.6538 94.4569 48.1612 94.6122 47.8356C95.0775 46.8644 95.1698 46.5824 95.0809 46.3878C94.9996 46.2089 94.7753 46.1248 94.685 46.2393C94.647 46.2859 94.6606 46.3044 94.7188 46.2923C94.7833 46.2826 94.7927 46.2932 94.7474 46.3235C94.7083 46.3562 94.6385 46.3633 94.5908 46.3454C94.5437 46.3277 94.4951 46.3498 94.4796 46.3913C94.4619 46.4384 94.3096 46.7184 94.1407 47.0255C93.9739 47.327 93.7824 47.6927 93.7095 47.8342C93.6424 47.9773 93.4768 48.2927 93.3439 48.5396C93.2168 48.7882 92.8979 49.4235 92.6365 49.9587C91.8864 51.5102 91.3526 52.5568 91.2042 52.7904C91.0046 53.0923 90.977 53.183 91.0463 53.3037Z" fill="#18C47D"/>
<path fill-rule="evenodd" clip-rule="evenodd" d="M96.5098 40.7645C96.4967 41.0691 96.5491 41.163 96.7649 41.2171C97.0772 41.3003 97.1987 41.1571 97.4096 40.4685C97.6316 39.7502 97.6117 39.5336 97.3188 39.4174C97.0883 39.3309 96.9283 39.507 96.7124 40.0997C96.6095 40.3912 96.5166 40.6934 96.5098 40.7645Z" fill="#18C47D"/>
<path fill-rule="evenodd" clip-rule="evenodd" d="M95.584 44.2242C95.6094 44.4429 95.8284 44.5788 95.9897 44.471C96.141 44.3729 96.4733 43.4868 96.4588 43.2389C96.4484 43.0329 96.2467 42.8696 96.0828 42.9297C95.9353 42.9818 95.553 43.9637 95.584 44.2242Z" fill="#18C47D"/>
</svg>
