<svg width="31" height="20" viewBox="0 0 31 20" fill="none" xmlns="http://www.w3.org/2000/svg">
<path fill-rule="evenodd" clip-rule="evenodd" d="M1.72807 16.3988C2.47074 16.9804 3.50585 16.9114 4.46239 16.2267C4.89575 15.9093 5.06019 15.7332 5.65373 14.9103C5.85608 14.635 6.09441 14.3656 6.19499 14.3077C6.53195 14.1084 6.58491 14.2125 6.68365 15.1702C6.78882 16.266 6.87279 16.8779 6.98631 17.3575C7.03794 17.5574 7.08726 17.9493 7.10419 18.2221C7.1444 18.8502 7.18658 18.9622 7.43455 19.1056C7.74205 19.2769 7.90777 19.2977 8.86827 19.2676C9.35588 19.2513 9.95707 19.2391 10.1986 19.2443C11.6174 19.2667 14.1014 18.8822 14.5294 18.5687C14.7306 18.4214 14.7199 18.342 14.4318 17.927C14.2154 17.61 14.1421 17.5531 13.4759 17.1848C12.6413 16.7263 12.0296 16.2157 11.5935 15.6316C11.3217 15.2604 11.3015 15.2113 11.329 14.9458C11.3561 14.5935 11.579 14.3031 11.9494 14.1266C12.4237 13.8981 13.0469 13.8615 14.3203 13.9987C14.6985 14.0384 15.1581 14.0825 15.3399 14.0923C16.703 14.1796 17.6778 14.5039 18.2608 15.0512C18.4125 15.1937 18.4287 15.2374 18.3623 15.4282C18.3266 15.5417 18.2244 15.7587 18.1407 15.9156C17.7334 16.6578 17.6787 17.5457 18.014 17.8629C18.2381 18.0712 18.5931 18.1994 18.8509 18.1611C18.9726 18.1434 19.61 18.1046 20.2613 18.0632C21.6177 17.9892 22.9848 17.8434 23.925 17.6777C24.6207 17.5563 25.0567 17.3401 25.1235 17.085C25.173 16.8825 25.021 14.8783 24.9098 14.2939C24.7578 13.4701 24.608 12.2805 24.6121 11.8968C24.6158 11.6962 24.6066 11.4885 24.6019 11.4288C24.5938 11.3632 24.6692 11.2607 24.8082 11.1588C24.9938 11.0229 25.0678 11.0161 25.3331 11.0753C25.5014 11.1108 25.902 11.3004 26.226 11.4829C27.3263 12.1193 27.4712 12.1877 27.9521 12.2711C29.4647 12.5183 30.1786 11.5997 30.271 9.28107C30.2907 8.79946 30.2736 8.37558 30.2354 8.35621C30.1985 8.3275 30.1956 8.29056 30.2339 8.27825C30.2983 8.24693 30.2644 7.60591 30.1786 7.18574C29.9799 6.25392 29.5537 5.48801 28.9955 5.07303C28.368 4.60567 27.3552 4.49958 26.5407 4.82672C25.913 5.07282 25.5331 5.39847 24.1718 6.83931C24.0581 6.95419 23.8924 7.1071 23.7994 7.17524L23.628 7.30901L23.672 6.69826C23.7305 5.84742 23.6873 4.91227 23.5415 3.75063C23.4711 3.20037 23.4142 2.71084 23.4171 2.66135C23.4242 2.49741 23.0329 1.38992 22.9081 1.21951C22.8363 1.12157 22.7175 1.00246 22.63 0.947685C22.3977 0.792808 21.7616 0.735802 21.263 0.823367C19.9206 1.04592 16.5372 1.80396 16.0751 1.98444C15.5791 2.17317 15.2823 2.55682 15.3132 2.97807C15.3343 3.22366 15.7423 3.8126 16.069 4.06458C16.6733 4.53313 16.8123 4.90681 16.5366 5.33064C16.4086 5.53496 16.3058 5.61027 15.9197 5.82986C15.2042 6.22745 14.0828 6.64397 13.3812 6.7779C12.0716 7.02378 11.1744 6.96768 10.8165 6.61969C10.3197 6.1356 10.4833 5.58023 11.4522 4.45834C12.0316 3.78873 12.1251 3.62469 12.1117 3.27041C12.0997 2.96241 12.0295 2.85514 11.7594 2.76781C11.4768 2.67379 11.0897 2.75121 8.79744 3.37597C8.56272 3.44481 8.24466 3.51901 8.0934 3.5508C7.94214 3.58258 7.22566 3.75071 6.50379 3.92278C5.77799 4.08947 5.14712 4.23477 5.10659 4.23285C4.94661 4.23116 4.69059 4.37878 4.63067 4.50241C4.58474 4.59173 4.60661 4.6863 4.69375 4.80529C4.80708 4.96003 4.90854 5.36873 5.41911 7.68891C5.52773 8.17211 5.67674 8.77619 5.75311 9.0212C5.96022 9.69332 5.86642 10.0953 5.41739 10.4242C5.15443 10.6168 5.00892 10.5804 4.10804 10.0755C3.20716 9.57072 2.69842 9.45956 2.02103 9.63893C1.3928 9.79811 1.13737 10.001 0.836445 10.5855C0.309716 11.5972 0.276433 13.4994 0.76072 14.8962C0.959028 15.4566 1.39689 16.1418 1.72807 16.3988ZM1.51072 14.5447C1.11025 13.2296 1.21824 11.4622 1.73331 10.8239C1.85793 10.6695 1.94917 10.6102 2.12135 10.5638C2.57645 10.46 2.95116 10.5504 3.74193 10.9696C4.65799 11.4633 5.15562 11.5902 5.54088 11.4351C5.94146 11.2682 6.20717 11.0578 6.42496 10.7162C6.74871 10.2173 6.75267 10.1354 6.54613 8.80453C6.4925 8.47141 6.42153 8.03963 6.39705 7.8439C6.33959 7.4737 6.02375 6.26278 5.76131 5.41752C5.67836 5.15326 5.60822 4.92702 5.60559 4.91315C5.61193 4.90023 6.14044 4.79904 6.79341 4.68495C7.44723 4.57098 8.62848 4.32352 9.41731 4.134C10.5291 3.8667 10.8302 3.81246 10.7562 3.90655C10.7041 3.97625 10.5536 4.14972 10.4254 4.29928C10.0301 4.75502 9.79954 5.15411 9.68576 5.5617C9.54292 6.07032 9.60791 6.4508 9.91705 6.93761C10.1231 7.26215 10.2069 7.34371 10.4976 7.50326C11.3348 7.97568 12.8896 7.9783 14.3424 7.51614C15.0493 7.29182 16.6036 6.58911 16.9337 6.34739C17.2897 6.08666 17.5487 5.68328 17.6377 5.2532C17.7788 4.54801 17.5837 4.06492 16.9301 3.49711C16.7238 3.32322 16.5011 3.10642 16.4356 3.02725C16.3213 2.88148 16.3222 2.87251 16.5359 2.73181C16.7858 2.56457 16.9719 2.51558 17.8757 2.4081C18.6591 2.30981 20.7683 1.95381 21.5962 1.77554C21.9232 1.70229 22.2072 1.66886 22.2262 1.69481C22.3055 1.80303 22.4779 2.73079 22.5176 3.27196C22.542 3.58666 22.597 4.18057 22.6445 4.58137C22.8068 6.04694 22.8955 7.48812 22.8386 7.6487C22.718 7.98227 22.8262 8.17312 23.1724 8.21227C23.6988 8.27058 24.3409 7.90336 25.1105 7.09375C25.4056 6.7828 25.8605 6.35409 26.1226 6.13879C26.5316 5.7994 26.6322 5.74154 26.9306 5.67343C27.4843 5.5531 27.8242 5.57348 28.1673 5.75025C28.5394 5.94496 28.7197 6.16954 28.959 6.7233C29.1792 7.2511 29.2599 7.79468 29.2726 8.83936C29.2922 10.9647 28.9653 11.5682 27.9781 11.2372C27.6902 11.1471 27.4751 11.0271 26.862 10.644C26.7833 10.591 26.4921 10.4635 26.2168 10.3476C25.2086 9.94475 24.5592 10.0637 24.0629 10.7605C23.8272 11.0993 23.7625 11.4003 23.8604 11.8041C23.8979 11.9745 23.9105 12.2187 23.8863 12.3479C23.8616 12.4765 23.8712 12.7712 23.9134 13.0013C23.9506 13.2359 23.992 13.6171 23.9971 13.8511C24.0071 14.0815 24.0572 14.5279 24.11 14.8383C24.1624 15.1482 24.2149 15.6093 24.2261 15.8629C24.237 16.116 24.2584 16.3938 24.2713 16.4874C24.2856 16.5717 24.2614 16.6692 24.2154 16.7029C23.973 16.8804 18.8221 17.3884 18.7163 17.2439C18.6557 17.1612 18.8938 16.3932 19.088 16.0524C19.2917 15.6813 19.3555 15.1192 19.2245 14.8427C19.0996 14.5859 18.6475 14.1955 18.1342 13.9056C17.5374 13.5663 16.7121 13.3702 15.2854 13.2189C14.6111 13.1425 14.0175 13.0777 13.9676 13.0743C12.1128 12.8243 10.8028 13.4271 10.5473 14.6366C10.4173 15.2705 10.4641 15.4423 10.9413 16.0837C11.4426 16.7465 12.1291 17.3376 12.8505 17.7279C13.1087 17.8638 13.3081 17.9953 13.309 18.018C13.3008 18.0398 13.1073 18.0785 12.871 18.1011C12.6303 18.1186 12.1822 18.1775 11.8646 18.2205C11.547 18.2635 10.742 18.3211 10.0742 18.3513C9.41146 18.377 8.7438 18.4063 8.59887 18.4252C8.45036 18.4392 8.25343 18.4404 8.16041 18.4213C7.99434 18.4 7.99076 18.3951 7.99271 18.0844C7.98688 17.9142 7.91522 17.3407 7.82682 16.8194C7.74331 16.2945 7.66878 15.7705 7.66354 15.6555C7.65762 15.3115 7.38767 14.1858 7.28546 14.0463C7.09861 13.8024 6.72726 13.544 6.49088 13.5027C5.98285 13.4151 5.59386 13.6842 4.85167 14.64C4.02744 15.7109 3.089 16.1605 2.38563 15.8277C2.18106 15.7323 2.09331 15.6453 1.87969 15.3105C1.73759 15.0918 1.57168 14.7461 1.51072 14.5447Z" fill="#19CBD5"/>
</svg>
