<svg width="27" height="28" viewBox="0 0 27 28" fill="none" xmlns="http://www.w3.org/2000/svg">
<path fill-rule="evenodd" clip-rule="evenodd" d="M3.25087 0.823643C2.68576 1.00165 2.15032 1.50885 2.04577 2.01462C1.83809 2.95271 2.35801 4.14229 5.00698 8.69569C5.64698 9.78213 6.10753 10.7343 6.03406 10.7937C5.58762 11.1808 2.25488 13.6207 1.86777 13.8439C1.28712 14.1858 0.394222 15.2425 0.127206 15.8967C-0.170892 16.6257 0.0678839 17.3109 0.707876 17.5779C1.362 17.8449 2.80585 17.8449 4.87417 17.5623C5.78259 17.4437 7.21091 17.2939 8.07413 17.2501L9.63667 17.1456L10.8573 19.6603C11.527 21.0449 12.3747 22.8447 12.7618 23.6627C13.5798 25.433 14.5023 26.9065 14.9939 27.2187C15.7229 27.6949 16.7204 27.4123 17.1216 26.624C17.27 26.3555 18.1487 21.9363 18.7294 18.6036C18.848 17.859 18.9823 17.1159 19.0275 16.952C19.0727 16.6694 19.221 16.6242 20.3075 16.5352C22.5397 16.3572 25.0092 15.9998 25.515 15.7907C26.1253 15.5237 26.6155 15.0165 26.8387 14.392C26.973 13.9908 26.9574 13.8114 26.6904 13.2604C26.3189 12.5017 25.2028 11.6541 22.2854 9.92764L20.3513 8.78188L20.3668 7.889C20.3668 7.39735 20.412 6.2219 20.4417 5.28523C20.501 3.38079 20.3527 2.88914 19.5332 2.39891C18.5358 1.81825 17.2869 2.3537 14.0869 4.67632C13.5063 5.10722 13.4625 5.10722 13.0457 4.89954C5.7953 1.09067 4.35285 0.495877 3.25087 0.823643ZM5.98886 3.42741C6.94108 3.81451 8.60817 4.67772 10.661 5.80795L11.7022 6.38862L11.1808 6.78985C9.41061 8.20405 7.74355 9.46849 7.71388 9.42328C7.68421 9.39361 7.3861 8.84263 7.03008 8.18851C6.34488 6.92407 5.94366 6.43242 5.75011 6.59631C5.67523 6.65564 5.7049 6.59631 5.79532 6.47763C5.92953 6.29962 5.8843 6.07638 5.51274 5.43639C4.96175 4.42483 4.20311 2.95131 4.20311 2.84676C4.20311 2.74222 4.90243 2.96684 5.98886 3.42741ZM18.6234 5.46607C18.6079 6.22474 18.5641 7.02862 18.5047 7.26596L18.4157 7.66719L16.8984 6.89298C16.0507 6.46208 15.3811 6.04531 15.4107 5.97043C15.4701 5.79242 18.1939 4.09567 18.4468 4.09567C18.5937 4.09708 18.6375 4.40931 18.6234 5.46607ZM17.2686 9.2608C17.7743 9.54336 18.1911 9.87113 18.1911 9.98981C18.1911 10.4815 17.5511 14.4542 17.4621 14.5432C17.3731 14.6478 13.1474 14.871 11.3461 14.8851H10.6765L9.67905 13.0245C9.12807 11.9974 8.68162 11.0904 8.66749 10.9999C8.66749 10.8954 9.75395 10.0181 11.0636 9.02063L13.4738 7.22074L14.9021 7.97941C15.6919 8.39759 16.7486 8.97824 17.2686 9.2608ZM21.3007 11.6117C21.9406 11.9832 22.5651 12.2813 22.6993 12.2813C22.8476 12.2813 22.9522 12.3407 22.9522 12.4297C22.9522 12.5046 23.3393 12.8168 23.7998 13.129C24.2618 13.4412 24.6631 13.769 24.6928 13.8735C24.7818 14.1264 23.4424 14.3652 21.36 14.4683L19.529 14.5573V14.1999C19.529 13.7987 19.8271 11.4167 19.9161 11.12C19.9924 10.8672 20.0221 10.8671 21.3007 11.6117ZM7.99784 14.0671C8.28039 14.6322 8.51918 15.1239 8.51918 15.1677C8.51918 15.1973 7.96817 15.2722 7.29851 15.3316C6.61331 15.3768 5.2754 15.5251 4.2921 15.6438C3.32434 15.778 2.50635 15.8515 2.47668 15.8218C2.35801 15.6876 3.80045 14.4373 5.33332 13.3367L6.95521 12.1754L7.2081 12.5922C7.35786 12.8323 7.71528 13.502 7.99784 14.0671ZM16.9408 17.4451C16.7472 18.8734 15.6015 24.4836 15.4969 24.4836C15.4517 24.4836 14.9459 23.5017 14.3808 22.281C13.8157 21.0759 12.9963 19.3947 12.5795 18.5456C12.1486 17.698 11.7912 16.9831 11.7912 16.9534C11.7912 16.9082 12.773 16.8644 15.9433 16.7754L17.0439 16.7457L16.9408 17.4451Z" fill="#18C47D"/>
</svg>
