<svg width="21" height="18" viewBox="0 0 21 18" fill="none" xmlns="http://www.w3.org/2000/svg">
<path fill-rule="evenodd" clip-rule="evenodd" d="M8.74988 0.370931C8.30344 0.86258 8.13954 1.39801 7.90219 3.06369C7.78352 3.88169 7.679 4.55134 7.64933 4.56689C7.61966 4.59655 6.69709 4.92432 5.59512 5.32555C2.93202 6.26223 2.11262 6.63521 1.24941 7.28933C0.11918 8.15254 -0.030614 9.17963 0.848139 9.92276C1.36946 10.3692 2.08294 10.6221 4.2558 11.1434C5.19248 11.3666 6.18989 11.604 6.45832 11.6789L6.93444 11.8131V13.613C6.93444 14.9664 6.8751 15.4736 6.72676 15.6516C6.26478 16.1574 6.29446 16.6335 6.80165 17.2142C7.35263 17.8542 7.79908 17.8838 8.08164 17.3032C8.18618 17.0955 8.75128 16.44 9.34607 15.8593C9.94085 15.2786 10.8041 14.4154 11.2505 13.9252C11.7125 13.4491 12.1434 13.0026 12.2324 12.9433C12.3214 12.8981 13.0956 13.0478 13.9433 13.2852C15.9522 13.8658 17.2025 13.8955 17.7225 13.3601C18.3469 12.7498 18.2282 12.2284 17.0528 10.2802C16.4877 9.32798 16.0116 8.46478 16.0116 8.37578C16.0116 8.27123 16.3987 7.61709 16.8593 6.91776C17.3212 6.20289 17.9301 5.26622 18.1986 4.81978C18.467 4.37333 19.0321 3.55535 19.4489 3.00436C20.3573 1.76959 20.5198 1.08438 20.0296 0.564473C19.4348 -0.0599785 18.929 0.0431602 15.9381 1.45736C13.9588 2.39404 12.8724 2.87155 12.7382 2.87155C12.693 2.87155 12.3807 2.49999 12.084 2.05355C11.7718 1.60711 11.2208 0.982649 10.8634 0.639342C10.0751 -0.0755279 9.28673 -0.178643 8.74988 0.370931ZM10.3576 2.64834C10.6402 3.0199 10.8931 3.37734 10.9227 3.45222C10.9679 3.60056 9.49442 4.13741 9.36021 4.01732C9.25566 3.91278 9.62862 1.97868 9.74729 1.97868C9.7925 1.99281 10.0751 2.29091 10.3576 2.64834ZM16.8154 3.34766C16.4142 4.01732 14.9548 6.14499 14.8361 6.21986C14.6878 6.30887 13.7794 4.88053 13.7794 4.56831C13.7794 4.46376 13.8981 4.36063 14.0478 4.31542C14.182 4.27021 14.8362 4.0032 15.4917 3.70511C16.7858 3.12445 16.9793 3.07923 16.8154 3.34766ZM12.8582 6.60695L13.6621 7.94629L13.0518 8.72048C12.0544 10.0005 11.2661 10.8044 11.0584 10.7139C10.9538 10.6843 10.3435 10.5359 9.70491 10.3862L8.54361 10.1333L8.6326 9.58228C8.67781 9.28418 8.78094 8.40686 8.86995 7.64819C8.95896 6.87399 9.04797 6.21985 9.07763 6.19018C9.16664 6.08563 11.6221 5.26763 11.8453 5.26763C11.9795 5.26763 12.4104 5.83274 12.8582 6.60695ZM7.32153 7.66231C7.14351 9.29973 7.05313 9.71509 6.87511 9.71509C6.78611 9.71509 6.07124 9.55121 5.29845 9.34353C4.52424 9.13585 3.63135 8.89709 3.30499 8.80809C2.76955 8.65975 2.75399 8.6442 3.02242 8.45065C3.29085 8.25709 5.37331 7.35009 6.48941 6.94745C7.39642 6.60697 7.42607 6.63663 7.32153 7.66231ZM16.0116 11.9628C16.0116 12.097 14.7768 11.8441 14.1524 11.5913C13.5576 11.3384 13.5576 11.368 14.3756 10.3565L14.7471 9.91006L15.3716 10.8919C15.729 11.4274 16.0116 11.919 16.0116 11.9628ZM9.58341 12.3344C9.71763 12.3641 9.56786 12.6466 9.13696 13.1383C8.77952 13.5395 8.46733 13.8828 8.42212 13.8828C8.37691 13.8828 8.37691 13.4816 8.39245 12.9899L8.45178 12.1112L8.91375 12.186C9.18218 12.2313 9.48028 12.3061 9.58341 12.3344Z" fill="#F65CC7"/>
</svg>
