<svg width="37" height="48" viewBox="0 0 37 48" fill="none" xmlns="http://www.w3.org/2000/svg">
<path fill-rule="evenodd" clip-rule="evenodd" d="M23.8252 0.101871C22.3292 0.522871 21.4132 1.96587 21.3922 3.90387C21.3922 4.78887 21.4662 5.17888 21.9822 6.76888C22.1512 7.30588 22.2772 7.88488 22.2562 8.07488C22.1932 8.71688 22.0032 8.68588 20.6342 7.88488C19.0752 6.95788 18.1802 6.47387 17.4322 6.15787C17.1162 6.03187 16.5472 5.71587 16.1682 5.47287C15.2942 4.91487 15.1042 4.86187 14.6722 5.05187C14.1452 5.29387 13.9562 5.49387 13.0612 6.79987C12.6082 7.46387 12.0392 8.27487 11.7972 8.59087C10.3862 10.4549 8.47921 14.1309 8.47921 15.0049C8.47921 15.4159 8.59521 15.4789 9.42721 15.4999C10.0592 15.5209 10.2062 15.4789 11.3442 14.9519C12.7662 14.2889 14.0402 13.9729 15.2412 13.9619C15.9992 13.9619 16.0842 13.9829 16.4102 14.2779C16.8522 14.6569 17.0212 15.2359 16.8952 15.8999C16.7372 16.7529 16.1792 17.6169 14.7572 19.1759C14.3362 19.6399 13.8302 20.2079 13.6402 20.4399C12.1972 22.1669 10.8172 23.1469 9.52221 23.3889C9.18521 23.4519 9.11121 23.4309 8.92221 23.1569C8.80621 22.9989 8.61721 22.6519 8.49021 22.3879C7.90021 21.1239 6.77321 20.1869 6.02521 20.3239C5.53021 20.4189 5.01421 20.7659 4.81421 21.1459C4.71921 21.3249 4.15021 22.2099 3.57121 23.1159C2.34921 24.9909 1.21221 26.9499 0.517207 28.3609C0.00120729 29.4039 -0.135791 30.1939 0.138209 30.5309C0.359209 30.7939 3.17121 32.5429 4.05621 32.9639C5.29921 33.5639 7.02621 34.5229 7.53221 34.9019C7.79521 35.1019 8.08021 35.2919 8.16421 35.3439C8.25921 35.3969 8.32221 35.5969 8.32221 35.8809C8.32221 36.2599 8.25921 36.3649 7.92221 36.6599C7.71121 36.8489 7.06921 37.1969 6.51121 37.4499C4.59421 38.2929 4.36221 38.4189 3.78321 38.9769C1.98221 40.7469 2.50821 42.5899 5.50021 44.9699C6.12121 45.4649 6.70121 45.8549 6.76421 45.8229C6.83821 45.8019 6.89021 45.8339 6.86921 45.8969C6.84821 46.0129 7.73321 46.5919 8.37521 46.8869C9.80721 47.5299 11.2402 47.7089 12.3352 47.3709C13.5672 46.9919 14.6942 45.7489 15.0522 44.3479C15.3362 43.2739 15.2732 42.4519 14.6832 39.2399C14.6412 38.9769 14.5992 38.6079 14.5992 38.4179L14.5882 38.0599L15.3572 38.7129C16.4312 39.6189 17.7162 40.4719 19.4022 41.4089C20.2022 41.8509 20.9082 42.2519 20.9712 42.3039C21.1822 42.4729 23.0352 43.0309 23.3832 43.0309C23.5832 43.0309 23.8572 42.9889 24.0152 42.9259C24.4472 42.7679 25.1422 41.9779 25.5112 41.2299C26.5222 39.2289 28.8082 33.9939 29.0182 33.2039C29.2502 32.3609 29.0292 31.5929 28.4392 31.2239C28.0922 31.0129 26.9122 30.9819 26.2592 31.1709C25.0482 31.5179 24.4162 31.3389 24.1212 30.5599C23.9742 30.1909 23.9742 29.9809 24.0582 29.2539C24.2262 27.9159 24.7642 26.0199 25.2692 24.9569C26.2172 22.9769 27.1652 21.8389 27.9762 21.7019C29.1032 21.5129 29.6822 22.2709 30.2302 24.6509C30.5562 26.0729 30.6832 26.3569 31.1672 26.6839C31.5882 26.9679 31.7992 26.9789 32.1782 26.7049C32.5782 26.4209 32.8522 25.8309 34.2532 22.1759C34.3902 21.7969 34.6012 21.3019 34.7062 21.0699C34.8112 20.8379 35.2852 19.7219 35.7592 18.5949C36.2442 17.4679 36.6652 16.4879 36.7072 16.4359C36.8652 16.2249 36.9182 15.7409 36.8122 15.5409C36.7382 15.3929 36.5912 15.3299 36.3482 15.3299C36.0322 15.3299 35.3902 15.0669 31.8092 13.4869C31.0612 13.1609 30.1132 12.7709 29.7132 12.6339C28.6182 12.2549 28.1752 11.7389 28.1752 10.8219C28.1752 10.2849 28.3652 10.1269 29.9132 9.42087C31.4612 8.71487 32.1042 8.14687 32.5252 7.07187C32.9252 6.08187 32.9042 5.54487 32.4202 4.57587C31.5882 2.89087 29.0922 0.994873 26.7642 0.278873C25.8262 -0.00312701 24.4892 -0.0881289 23.8252 0.101871ZM26.5012 1.61788C28.6392 2.36588 30.8832 4.22988 31.2302 5.53588C31.3142 5.85188 31.3042 6.03087 31.1982 6.30487C30.8932 7.01087 30.4082 7.42088 29.0812 8.06388C27.5332 8.80088 26.8802 9.33887 26.7112 10.0019C26.5432 10.6969 26.5642 11.2549 26.8062 11.8769C27.1542 12.7929 27.2592 12.8779 29.2292 13.8989C29.7242 14.1519 30.3672 14.4779 30.6512 14.6359C31.1992 14.9199 33.1162 15.6789 34.4952 16.1529C34.9272 16.2999 35.2962 16.4269 35.3172 16.4369C35.3282 16.4579 34.9482 17.2589 34.4642 18.2379C33.9792 19.2179 33.1582 21.0289 32.6422 22.2619C31.9152 23.9999 31.6942 24.4529 31.6412 24.2629C31.5992 24.1259 31.5152 23.7569 31.4412 23.4409C31.2202 22.4719 30.9142 21.7769 30.4832 21.2289C29.9462 20.5439 29.3772 20.2599 28.4292 20.1969C27.7972 20.1549 27.6072 20.1869 27.1122 20.4179C25.6692 21.0709 24.1522 23.1349 23.3522 25.5159C22.9622 26.6739 22.3832 29.4239 22.3832 30.0979C22.3832 30.8249 22.6672 31.5619 23.1522 32.0989C23.9522 32.9729 24.7842 33.1839 26.1752 32.8679C26.6072 32.7629 27.1122 32.6779 27.2812 32.6679C27.5862 32.6579 27.5972 32.6679 27.5762 33.0889C27.5552 33.5839 27.4392 33.8789 26.7022 35.1849C26.0702 36.3219 24.4902 39.4719 23.9212 40.7459C23.7002 41.2519 23.4682 41.6619 23.4152 41.6619C23.1942 41.6619 21.7932 40.9879 21.0352 40.5139C20.5932 40.2399 19.7502 39.7349 19.1712 39.4079C17.0652 38.1969 15.0632 36.9119 14.9052 36.6799C14.5792 36.1949 14.2202 36.1529 13.8312 36.5749C13.2412 37.2179 13.1042 38.4289 13.4312 40.2399C13.5572 40.9349 13.6842 41.9569 13.7152 42.5149C13.7682 43.3889 13.7472 43.5789 13.5472 44.0419C13.1682 44.8949 12.8102 45.3269 12.2412 45.6109C11.6202 45.9159 11.1462 45.9369 10.1772 45.7159C9.26121 45.4949 8.46021 45.0729 7.05921 44.0729C4.21521 42.0299 3.73121 41.0079 5.13221 40.0179C5.53221 39.7229 5.90121 39.5539 7.00721 39.1119C7.15421 39.0589 7.60721 38.7959 8.02921 38.5429C9.54621 37.5949 10.0202 36.6159 9.57721 35.2779C9.35621 34.6349 9.01921 34.2559 8.38721 33.9929C8.12421 33.8769 7.78721 33.6559 7.63921 33.4979C7.49221 33.3399 7.09121 33.0659 6.74421 32.8979C6.39621 32.7189 5.84921 32.4029 5.53321 32.1819C5.21721 31.9709 4.57521 31.6029 4.11121 31.3709C3.64821 31.1389 2.98421 30.7599 2.63621 30.5279C2.28921 30.2959 1.89921 30.0539 1.76221 29.9799C1.63621 29.9169 1.53021 29.7899 1.53021 29.6959C1.53021 29.2009 5.86921 21.8599 6.16421 21.8599C6.33321 21.8599 7.12221 22.9239 7.38621 23.5139C7.68121 24.1459 8.36621 24.7779 8.86121 24.8729C9.32421 24.9569 10.2832 24.7359 11.1682 24.3359C12.2002 23.8729 13.2642 22.9669 14.8542 21.2179C15.6122 20.3959 16.2762 19.6699 16.3292 19.6069C18.4672 17.3849 18.9412 15.0569 17.5822 13.5399C16.8662 12.7499 16.5922 12.6449 15.2752 12.6549C13.9062 12.6759 12.4522 13.0129 11.2312 13.5919C10.7992 13.8029 10.4302 13.9399 10.3992 13.9189C10.3782 13.8869 10.5152 13.5919 10.7152 13.2559C10.9262 12.9189 11.2842 12.2659 11.5362 11.8019C11.7882 11.3379 12.4952 10.2119 13.1052 9.29486C13.7162 8.38886 14.3272 7.47287 14.4432 7.26187C14.5692 7.05087 14.7592 6.78786 14.8752 6.68286C15.0652 6.48286 15.0752 6.48288 15.4862 6.78788C15.7182 6.94588 16.5502 7.40888 17.3292 7.79888C18.1082 8.19888 18.8772 8.60988 19.0352 8.71488C19.4982 9.04188 21.2572 9.77887 21.5422 9.77887C22.0482 9.76787 22.7532 9.52587 23.0382 9.25187C23.6492 8.66187 23.6702 7.88287 23.1222 5.96587C22.5012 3.82787 22.8172 2.14286 23.9442 1.53186C24.2702 1.35286 24.4712 1.32087 25.1242 1.36287C25.5532 1.38687 26.1742 1.50288 26.5012 1.61788Z" fill="#F22E68"/>
</svg>
