<svg width="80" height="66" viewBox="0 0 80 66" fill="none" xmlns="http://www.w3.org/2000/svg">
<path fill-rule="evenodd" clip-rule="evenodd" d="M22.433 0.018496C21.306 0.113496 19.01 0.755496 17.799 1.3035C16.156 2.0405 14.787 3.24149 12.786 5.69549C11.817 6.87549 10.437 9.45549 9.67899 11.4775C9.22599 12.7205 9.21498 12.7415 8.58398 13.1945C7.56198 13.9425 4.055 15.5745 1.327 16.5645C0.399996 16.9015 0 17.2805 0 17.8495C0 18.6075 2.286 20.0085 6.004 21.5355C6.436 21.7145 6.95199 21.9565 7.14099 22.0725C7.47799 22.2835 7.48898 22.3145 7.41498 22.7365C7.37298 22.9785 7.34099 24.1685 7.35199 25.3905C7.35199 27.4545 7.489 29.0245 7.784 30.5515C8.121 32.2785 8.98498 35.3855 9.19498 35.6385C9.25798 35.7125 9.321 35.8915 9.332 36.0285C9.385 36.5125 10.522 38.6935 11.249 39.7145C13.45 42.7905 16.378 44.8335 20.381 46.0975C22.603 46.7925 24.152 47.0245 27.312 47.1085L29.808 47.1715L29.84 50.3415C29.85 52.0895 29.85 54.1225 29.85 54.8815L29.829 56.2505L29.271 56.3245C28.955 56.3665 28.06 56.4195 27.28 56.4505C25.984 56.4925 25.848 56.5135 25.679 56.7245C25.437 57.0195 25.437 57.2195 25.7 57.6405C25.963 58.0825 26.3 58.1465 28.196 58.1245C29.934 58.1145 30.661 57.9455 31.113 57.4715C31.524 57.0505 31.555 56.7345 31.482 54.3745C31.44 53.2585 31.398 51.1625 31.377 49.7195L31.335 47.0865L32.23 47.0235C32.725 46.9815 33.536 46.9185 34.042 46.8765C35.137 46.7815 35.032 46.5715 35.116 49.0355C35.148 49.9945 35.253 51.8265 35.348 53.1225C35.474 54.7235 35.496 55.5025 35.422 55.5765C35.359 55.6395 34.98 55.7665 34.59 55.8605C34 56.0075 33.842 56.0925 33.726 56.3235C33.568 56.6605 33.716 57.0605 34.074 57.2505C34.601 57.5345 36.138 57.3035 36.655 56.8715C37.171 56.4295 37.203 56.0815 36.971 53.7225C36.697 50.9635 36.518 46.7285 36.666 46.5495C36.719 46.4755 37.014 46.3915 37.319 46.3495C37.625 46.3075 38.225 46.1915 38.657 46.0755C39.089 45.9705 40.142 45.7175 40.985 45.5065C42.818 45.0645 46.062 44.0635 47.663 43.4525C49.106 42.9045 52.94 41.0195 55.036 39.8295C55.9 39.3445 56.637 38.9555 56.69 38.9865C56.732 39.0075 57.006 39.4285 57.301 39.9235C58.28 41.5555 60.039 43.4945 60.935 43.9575C62.083 44.5365 63.157 44.6425 63.989 44.2525C65.116 43.7365 65.643 42.6835 65.611 41.0395C65.579 39.4705 65.169 38.2275 64.252 37.0165C63.768 36.3635 63.746 36.2795 64.073 36.3525C64.589 36.4685 67.812 36.4265 68.497 36.2895C69.361 36.1315 69.877 35.7205 69.993 35.0995C70.14 34.3415 69.319 33.1825 68.002 32.2975C66.612 31.3495 65.558 30.9075 63.989 30.6015C63.02 30.4115 63.02 30.4015 63.62 29.7165C63.904 29.3905 64.431 28.7475 64.768 28.2945C65.358 27.5255 65.505 27.3045 66.106 26.2305C66.485 25.5665 66.885 24.1875 66.885 23.5655C66.885 22.5335 66.474 21.9855 65.579 21.8595C64.431 21.6905 63.02 22.3755 60.144 24.5245C59.48 25.0195 58.754 25.5675 58.532 25.7255C58.31 25.8835 57.795 26.2945 57.384 26.6315L56.636 27.2425L56.036 26.1055C52.834 19.9755 47.389 12.8875 42.976 9.10549C40.564 7.03049 37.72 5.1345 34.919 3.7125C31.001 1.7325 28.231 0.668496 25.861 0.226496C24.939 0.0604962 23.191 -0.044504 22.433 0.018496ZM24.908 1.79849C26.846 2.08249 28.384 2.56749 30.785 3.63149C36.662 6.24349 40.243 8.6135 44.024 12.3845C47.784 16.1235 52.555 22.4745 54.957 26.9295C55.262 27.4875 55.505 28.0035 55.505 28.0775C55.505 28.1515 55.631 28.3825 55.8 28.5935C55.958 28.7935 56.19 29.1305 56.316 29.3415L56.548 29.7105L56.558 29.3205C56.558 28.9735 56.6 28.8995 56.906 28.7725C57.085 28.6985 57.643 28.3305 58.128 27.9615C58.612 27.5925 59.118 27.2135 59.234 27.1295C59.36 27.0455 59.887 26.6445 60.403 26.2235C62.489 24.5805 64.743 23.1795 65.227 23.2535C65.427 23.2855 65.459 23.3485 65.448 23.7065C65.406 24.9285 64.216 26.8245 61.783 29.5415C61.151 30.2365 61.088 30.3635 61.088 30.7635C61.088 31.1325 61.151 31.2795 61.404 31.5425C61.731 31.8585 61.899 31.9115 63.616 32.1845C64.522 32.3215 65.817 32.7325 66.354 33.0485C67.65 33.8175 68.597 34.6075 68.418 34.7965C68.271 34.9335 66.122 34.9435 64.384 34.8065C61.14 34.5535 60.845 34.5955 60.845 35.3855C60.845 35.7115 60.961 35.8695 62.004 36.8915C63.005 37.8815 63.215 38.1555 63.626 38.9665L64.09 39.9035V41.1045V42.2945L63.742 42.6315C63.447 42.9265 63.331 42.9795 62.899 42.9685C62.604 42.9685 62.214 42.8635 61.93 42.7155C61.098 42.2945 59.644 40.6195 58.528 38.8075C57.991 37.9335 57.306 37.2385 56.99 37.2385C56.874 37.2385 56.769 37.1965 56.748 37.1435C56.738 37.0905 56.148 37.3545 55.452 37.7335C53.704 38.6815 50.101 40.5145 49.343 40.8405C47.531 41.6195 45.751 42.2835 44.561 42.6205C44.119 42.7465 43.455 42.9365 43.076 43.0415C41.517 43.4835 38.736 44.2005 37.757 44.4005C36.704 44.6215 34.302 45.0325 34.039 45.0325C33.965 45.0325 33.934 45.0855 33.976 45.1485C34.018 45.2325 33.987 45.2325 33.85 45.1585C33.724 45.1055 33.355 45.0955 32.913 45.1485C31.775 45.2855 27.225 45.3905 26.214 45.3065L25.319 45.2225L25.182 43.8535C25.045 42.3155 24.908 41.6735 24.381 39.9245C23.412 36.7435 21.948 34.3845 19.441 32.0045C16.818 29.5185 12.142 27.2435 9.61398 27.2335H9.056L9.035 26.2535C8.93 21.9875 9.84599 16.0265 11.205 12.1185C11.563 11.0755 12.142 9.8545 12.806 8.7275C13.122 8.1905 13.375 7.71649 13.375 7.65349C13.375 7.60049 13.417 7.5375 13.459 7.5165C13.501 7.4955 13.901 7.01049 14.344 6.43149C16.345 3.81949 18.051 2.69249 21.085 1.96549C22.58 1.60949 23.402 1.57749 24.908 1.79849ZM8.53998 15.4705C8.48698 15.6495 8.382 16.0915 8.319 16.4395C8.266 16.7865 8.19298 17.1875 8.16098 17.3345C8.13998 17.4825 8.01398 18.2085 7.89798 18.9675C7.77198 19.7155 7.65599 20.3575 7.62399 20.3785C7.60299 20.3995 7.213 20.2525 6.771 20.0415C5.749 19.5565 3.89598 18.9035 3.76898 18.9775C3.72698 19.0095 3.685 18.9775 3.685 18.9245C3.685 18.8615 3.369 18.6505 2.979 18.4505C1.726 17.8185 1.726 17.8395 2.853 17.4395C5.012 16.6815 7.03499 15.7855 7.95099 15.1965C8.64599 14.7545 8.75098 14.8065 8.53998 15.4705ZM10.289 28.7095C11.511 28.9935 12.048 29.2045 13.691 30.0265C16.756 31.5645 18.568 33.0495 20.653 35.7245C21.422 36.7035 22.454 38.7685 23.012 40.4535C23.233 41.0855 23.433 41.6855 23.454 41.7705C23.486 41.8545 23.528 42.0655 23.549 42.2445C23.57 42.4135 23.654 42.9185 23.739 43.3505C23.992 44.6355 24.023 44.9305 23.971 45.0255C23.824 45.2675 20.516 44.3405 18.663 43.5505C18.115 43.3085 16.314 42.2655 15.84 41.9075C15.661 41.7815 15.482 41.6655 15.45 41.6655C15.239 41.6655 13.449 39.7695 12.817 38.8745C12.406 38.2955 12.017 37.7895 11.953 37.7475C11.9 37.7055 11.89 37.6635 11.932 37.6635C11.985 37.6635 11.911 37.4635 11.764 37.2105C11.027 35.9365 10.131 33.3555 9.65698 31.0705C9.37298 29.7225 9.20398 28.5005 9.29898 28.5005C9.34098 28.4995 9.783 28.5935 10.289 28.7095Z" fill="#19CBD5"/>
<path fill-rule="evenodd" clip-rule="evenodd" d="M17.1449 11.1935C17.0499 11.2145 16.882 11.3615 16.776 11.5195C16.629 11.7515 16.5869 12.0775 16.5549 13.3945C16.5129 14.9115 16.5229 15.0055 16.7339 15.2165C17.0609 15.5425 17.44 15.5005 17.85 15.0905C18.271 14.6695 18.3659 14.1845 18.3029 12.6885C18.2609 11.6775 18.2499 11.6035 17.9759 11.3715C17.6929 11.1305 17.5249 11.0885 17.1449 11.1935Z" fill="#19CBD5"/>
<path fill-rule="evenodd" clip-rule="evenodd" d="M37.2944 13.1315C36.4414 13.3005 35.4614 13.6685 34.1344 14.3115C31.9964 15.3545 30.5114 16.5445 29.5214 17.9975C29.0894 18.6185 29.0374 18.7455 29.1314 18.9985C29.2054 19.1985 29.3104 19.2935 29.5214 19.3145C29.7534 19.3465 29.9744 19.1885 30.8274 18.3665C31.9654 17.2815 32.8704 16.6395 34.3874 15.8495C36.1674 14.9015 38.4104 14.2695 38.8114 14.5965C38.9484 14.7015 38.9374 14.7755 38.7584 15.1235C38.3474 15.9245 37.5474 16.5775 36.1254 17.2405C34.2614 18.1255 34.3034 18.1045 34.1344 18.4095C34.0184 18.6205 33.9974 18.7675 34.0714 18.9785C34.2924 19.5895 34.6824 19.7055 37.9474 20.1685C39.9594 20.4525 43.3404 22.0435 43.1614 22.6225C43.1404 22.6965 42.9294 22.8545 42.6984 22.9705C41.8244 23.4125 40.2764 23.3075 35.9154 22.5385C35.4204 22.4545 34.7144 22.3485 34.3354 22.3175C33.7354 22.2755 33.6294 22.2855 33.4614 22.4755C33.1454 22.8235 33.2084 23.3395 33.6294 23.9605C34.0504 24.5715 34.4824 25.6145 34.3984 25.8355C34.3244 26.0255 34.0194 26.0045 33.6404 25.7725C33.4614 25.6675 32.6394 25.0665 31.8184 24.4565C30.9964 23.8455 30.2704 23.3395 30.2174 23.3395C29.9224 23.3395 29.7014 23.5715 29.7014 23.8875C29.7014 24.3505 29.9964 24.7725 30.8814 25.5625C31.8824 26.4575 32.5874 26.9635 33.3254 27.3005C34.3994 27.7845 35.2744 27.5215 35.7794 26.5635C35.9904 26.1635 35.9904 25.2045 35.7794 24.6045C35.6844 24.3515 35.6324 24.1195 35.6534 24.0885C35.7064 24.0355 38.8444 24.4365 39.8454 24.6255C40.6464 24.7725 42.3414 24.6675 43.0684 24.4355C43.9744 24.1305 44.5644 23.4345 44.5854 22.6235C44.6064 22.2235 44.5434 22.0125 44.3114 21.6655C44.1424 21.4125 43.9744 21.2545 43.9004 21.2965C43.8374 21.3385 43.8164 21.3285 43.8584 21.2545C43.9744 21.0645 43.0684 20.3905 41.9734 19.8645C40.7624 19.2855 39.2034 18.7695 38.1714 18.6005C37.7714 18.5375 37.4344 18.4745 37.4234 18.4535C37.4124 18.4425 37.6864 18.2215 38.0344 17.9685C38.7714 17.4315 39.9404 16.2205 40.1834 15.7465C40.2784 15.5675 40.3834 15.1675 40.4154 14.8515C40.4684 14.3565 40.4474 14.2305 40.1834 13.8615C39.6544 13.1005 38.6954 12.8585 37.2944 13.1315Z" fill="#19CBD5"/>
<path fill-rule="evenodd" clip-rule="evenodd" d="M49.8702 37.0835C49.4702 37.2305 48.8692 37.4095 48.5532 37.5045C46.9842 37.9465 44.8352 38.7685 44.6882 38.9895C44.3622 39.4955 45.0572 40.0845 45.7732 39.9165C47.3322 39.5585 49.6912 38.7055 50.7872 38.1155C51.3872 37.7895 51.6722 37.3575 51.5032 37.0305C51.3452 36.7465 50.8082 36.7675 49.8702 37.0835Z" fill="#19CBD5"/>
<path fill-rule="evenodd" clip-rule="evenodd" d="M41.0751 39.9375C40.1481 40.1795 39.4001 40.5905 39.3271 40.8855C39.1691 41.4965 39.6431 41.7705 40.4641 41.5595C41.1801 41.3805 41.8861 41.0645 42.1391 40.8115C42.4131 40.5375 42.3921 40.1375 42.1071 39.9375C41.8231 39.7375 41.8231 39.7375 41.0751 39.9375Z" fill="#19CBD5"/>
</svg>
