<svg width="75" height="66" viewBox="0 0 75 66" fill="none" xmlns="http://www.w3.org/2000/svg">
<path fill-rule="evenodd" clip-rule="evenodd" d="M29.2284 0.190735C27.7224 0.422735 27.2484 0.548751 25.9634 1.10675C24.0994 1.91775 22.6354 2.91874 20.7704 4.67773C19.1064 6.24673 17.2844 8.76474 16.2414 10.9547C15.2614 12.9977 14.9664 13.8197 14.3984 15.9897C13.9874 17.6117 13.9664 17.6537 13.6614 17.3797C13.1244 16.8957 11.3334 15.9047 10.5224 15.6317C9.90143 15.4207 8.82645 15.2527 8.06845 15.2527C5.15145 15.2527 2.07542 17.2647 0.758424 20.0237C0.168424 21.2557 0.000428188 22.0568 0.000428188 23.6678C-0.0105718 25.8378 0.189452 27.2908 0.706452 28.8708C1.00145 29.7658 1.66443 31.1778 2.04443 31.7148C2.86643 32.8948 4.08743 34.0428 5.22543 34.6848C5.52043 34.8428 6.03643 35.2007 6.38443 35.4747C8.44843 37.0857 11.1974 38.4767 16.0744 40.3727C17.0644 40.7517 18.0124 41.1207 18.1814 41.1837C18.3604 41.2467 18.6444 41.3527 18.8134 41.4258C19.2874 41.6367 24.6275 43.4058 26.0815 43.8488C28.8095 44.6698 29.4624 44.8708 29.8734 45.0078C30.1054 45.0818 30.5794 45.2187 30.9264 45.3127C31.2744 45.4077 31.8634 45.5757 32.2434 45.6917C33.8334 46.1657 38.3414 47.2927 40.9324 47.8507C45.2404 48.7877 48.4634 49.3887 50.0434 49.5357C50.4224 49.5677 51.1074 49.6408 51.5704 49.6938C52.0344 49.7468 53.2244 49.8407 54.2034 49.8937C60.9544 50.2727 65.7684 49.1458 70.3074 46.1338C72.6774 44.5648 73.9304 42.8687 74.4254 40.5307C74.6254 39.6147 74.6574 37.2128 74.4884 36.0338C74.0354 32.9368 72.6874 29.9668 70.8754 28.1028C70.3384 27.5448 70.0534 27.3018 68.9484 26.4388C66.6204 24.6478 62.6814 23.8057 59.1004 24.3637C58.4364 24.4587 56.9204 24.9217 56.4354 25.1747C56.2034 25.2907 56.0034 25.3647 55.9824 25.3327C55.9614 25.3117 55.8984 24.8278 55.8354 24.2588C55.6354 22.3208 55.1084 21.0887 54.0134 19.9717C52.9394 18.8867 50.8854 17.9917 49.4844 17.9917C48.4204 17.9917 46.6824 18.5398 45.8294 19.1508C45.4394 19.4248 45.4084 19.3298 45.4084 18.0128C45.4084 16.7908 45.2395 14.1998 45.0815 12.8838C44.7234 9.85076 43.9864 7.61775 42.7324 5.75275C42.5004 5.39475 42.1954 4.95274 42.0685 4.77374C41.6054 4.08874 40.6255 3.11975 39.8354 2.57275C37.8344 1.17175 35.5694 0.350731 32.9784 0.0867314C31.5874 -0.0512686 30.7024 -0.0302647 29.2284 0.190735ZM33.8204 1.93875C35.0944 2.17075 36.7904 2.75974 37.8224 3.32874C38.9594 3.94974 40.7184 5.66674 41.3504 6.77274C42.6254 8.97374 43.2255 11.0907 43.4995 14.3037C43.6155 15.6097 43.6464 16.3048 43.7834 19.7278C43.8574 21.4978 43.8574 21.5077 44.1524 21.8027C44.6574 22.3187 44.9104 22.2237 45.9854 21.1817C47.0594 20.1497 48.5234 19.5917 49.8504 19.7177C50.6404 19.7917 51.2094 20.0017 52.0414 20.5497C52.8734 21.0977 53.1364 21.3508 53.4424 21.8878C53.9584 22.7938 54.0214 23.0468 54.4224 26.2798C54.5384 27.1958 55.4234 27.6387 56.2024 27.1747C56.7604 26.8377 57.8664 26.4268 58.8354 26.1848C59.6364 25.9848 60.0574 25.9528 61.5214 25.9528C63.0384 25.9638 63.3964 26.0057 64.3654 26.2477C65.6614 26.5737 66.2504 26.8058 67.2614 27.3958C68.6094 28.1748 69.5154 28.9967 70.5054 30.3237C71.3264 31.4297 71.6954 32.2407 72.3594 34.3687C72.7704 35.6747 73.0234 38.2547 72.8654 39.6347C72.7814 40.4347 72.4544 41.5517 72.1914 41.9937C71.3384 43.3627 70.7484 43.9737 69.1264 45.1007C68.1364 45.7857 65.7134 46.9227 63.8394 47.5757C62.6384 47.9967 62.4594 48.0287 59.9424 48.3127C58.5624 48.4707 55.2444 48.4498 53.2544 48.2708C51.0844 48.0918 49.4314 47.9127 49.1364 47.8497C49.0104 47.8177 48.7254 47.7757 48.5044 47.7448C45.0704 47.2397 35.5594 44.9957 30.5044 43.4787C29.6934 43.2367 28.8924 43.0048 28.7134 42.9518C28.5444 42.9098 28.0184 42.7407 27.5544 42.5938C27.0914 42.4468 26.6594 42.3197 26.5744 42.3197C26.5004 42.3197 26.3634 42.2778 26.2584 42.2148C26.1634 42.1618 25.2474 41.8568 24.2365 41.5298C22.4984 40.9818 20.7504 40.3817 19.9184 40.0547C19.7184 39.9707 18.7494 39.6018 17.7594 39.2328C12.5354 37.2418 8.65944 35.2938 6.24744 33.4398C5.26844 32.6918 4.92044 32.5027 4.61444 32.5757C4.39344 32.6387 4.27743 32.5547 3.82443 31.9967C2.82343 30.7537 2.12845 29.0267 1.74945 26.8677C1.55945 25.7197 1.52843 23.3707 1.70743 22.3497C2.02343 20.4537 3.83544 18.2947 5.77344 17.4837C6.37344 17.2307 7.75345 16.9357 8.34345 16.9357C8.83845 16.9357 10.2075 17.2938 10.7235 17.5468C11.6815 18.0308 11.8825 18.1467 12.2195 18.3997C13.1565 19.1057 14.1894 19.6737 14.5264 19.6737C15.1264 19.6737 15.4324 19.2627 15.6324 18.1467C15.8954 16.7037 16.6754 14.1337 17.2124 12.9327C17.6864 11.8587 17.8444 11.5427 18.3074 10.7207C19.0764 9.36173 19.1924 9.19374 19.8034 8.37173C20.2564 7.76073 21.6465 6.17075 22.3315 5.48575C22.5735 5.23275 24.0584 4.12675 24.6904 3.72675C27.4054 1.99175 30.6284 1.35975 33.8204 1.93875Z" fill="#F4962B"/>
</svg>
