<svg width="50" height="10" viewBox="0 0 50 10" fill="none" xmlns="http://www.w3.org/2000/svg">
<path fill-rule="evenodd" clip-rule="evenodd" d="M1.63212 2.51756C-0.0218821 3.03356 -0.568879 5.52956 0.695121 6.79356C1.29512 7.39356 1.89613 7.65756 2.61213 7.65756C3.39113 7.64756 3.89712 7.45756 4.35012 6.98356C5.07712 6.22556 5.29812 5.17156 4.89812 4.29756C4.71912 3.90756 4.20312 3.41256 3.97112 3.41256C3.91812 3.41256 3.77112 3.27557 3.64512 3.10757C3.40312 2.78057 2.63413 2.35957 2.29713 2.37057C2.19013 2.37057 1.88512 2.44456 1.63212 2.51756ZM3.15913 4.16156C3.69613 4.58256 3.75913 4.71957 3.69613 5.22557C3.61213 5.83657 3.27512 6.15257 2.69512 6.15257C2.29512 6.15257 2.17913 6.09957 1.87313 5.77357C1.57813 5.46857 1.51513 5.32057 1.51513 4.93057C1.51513 4.54057 1.57812 4.39356 1.82012 4.14056C2.23212 3.73956 2.63313 3.73956 3.15913 4.16156Z" fill="white"/>
<path fill-rule="evenodd" clip-rule="evenodd" d="M45.6321 2.51756C43.9781 3.03356 43.4311 5.52956 44.6951 6.79356C45.2951 7.39356 45.8961 7.65756 46.6121 7.65756C47.3911 7.64756 47.8971 7.45756 48.3501 6.98356C49.0771 6.22556 49.2981 5.17156 48.8981 4.29756C48.7191 3.90756 48.2031 3.41256 47.9711 3.41256C47.9181 3.41256 47.7711 3.27557 47.6451 3.10757C47.4031 2.78057 46.6341 2.35957 46.2971 2.37057C46.1901 2.37057 45.8851 2.44456 45.6321 2.51756ZM47.1591 4.16156C47.6961 4.58256 47.7591 4.71957 47.6961 5.22557C47.6121 5.83657 47.2751 6.15257 46.6951 6.15257C46.2951 6.15257 46.1791 6.09957 45.8731 5.77357C45.5781 5.46857 45.5151 5.32057 45.5151 4.93057C45.5151 4.54057 45.5781 4.39356 45.8201 4.14056C46.2321 3.73956 46.6331 3.73956 47.1591 4.16156Z" fill="white"/>
<path fill-rule="evenodd" clip-rule="evenodd" d="M10.8828 1.25057C7.96135 2.12891 6.99519 6.37767 9.2278 8.52928C10.2876 9.55062 11.3491 10 12.6138 10C13.9898 9.98298 14.8835 9.65956 15.6836 8.85271C16.9677 7.56242 17.3581 5.76827 16.6516 4.28052C16.3354 3.61666 15.424 2.77406 15.0142 2.77406C14.9206 2.77406 14.6609 2.54087 14.4384 2.2549C14.0109 1.69827 12.6527 0.981635 12.0574 1.00036C11.8684 1.00036 11.3297 1.1263 10.8828 1.25057ZM13.58 4.04902C14.5285 4.76566 14.6398 4.99888 14.5285 5.8602C14.3801 6.90026 13.7849 7.43817 12.7604 7.43817C12.0539 7.43817 11.849 7.34796 11.3085 6.79303C10.7875 6.27385 10.6762 6.02192 10.6762 5.35805C10.6762 4.69418 10.7874 4.44394 11.2149 4.01328C11.9426 3.33069 12.6509 3.33068 13.58 4.04902Z" fill="white"/>
<path fill-rule="evenodd" clip-rule="evenodd" d="M22.8828 0.880205C19.9613 1.75855 18.9952 6.00731 21.2278 8.15892C22.2876 9.18025 23.3491 9.62964 24.6138 9.62964C25.9898 9.61262 26.8835 9.2892 27.6836 8.48235C28.9677 7.19206 29.3581 5.39791 28.6516 3.91016C28.3354 3.24629 27.424 2.4037 27.0142 2.4037C26.9206 2.4037 26.6609 2.17051 26.4384 1.88454C26.0109 1.32791 24.6527 0.611274 24.0574 0.629998C23.8684 0.629998 23.3297 0.755942 22.8828 0.880205ZM25.58 3.67866C26.5285 4.39529 26.6398 4.62852 26.5285 5.48984C26.3801 6.5299 25.7849 7.06781 24.7604 7.06781C24.0539 7.06781 23.849 6.97759 23.3085 6.42267C22.7875 5.90349 22.6762 5.65156 22.6762 4.98769C22.6762 4.32382 22.7874 4.07358 23.2149 3.64292C23.9426 2.96033 24.6509 2.96032 25.58 3.67866Z" fill="white"/>
<path fill-rule="evenodd" clip-rule="evenodd" d="M34.8828 0.509843C31.9613 1.38819 30.9952 5.63695 33.2278 7.78856C34.2876 8.80989 35.3491 9.25928 36.6138 9.25928C37.9898 9.24226 38.8835 8.91884 39.6836 8.11198C40.9677 6.8217 41.3581 5.02755 40.6516 3.5398C40.3354 2.87593 39.424 2.03334 39.0142 2.03334C38.9206 2.03334 38.6609 1.80015 38.4384 1.51418C38.0109 0.957548 36.6527 0.240912 36.0574 0.259637C35.8684 0.259637 35.3297 0.385581 34.8828 0.509843ZM37.58 3.3083C38.5285 4.02493 38.6398 4.25816 38.5285 5.11948C38.3801 6.15954 37.7849 6.69745 36.7604 6.69745C36.0539 6.69745 35.849 6.60723 35.3085 6.05231C34.7875 5.53313 34.6762 5.2812 34.6762 4.61733C34.6762 3.95346 34.7874 3.70322 35.2149 3.27256C35.9426 2.58996 36.6509 2.58996 37.58 3.3083Z" fill="white"/>
</svg>
