<svg width="29" height="39" viewBox="0 0 29 39" fill="none" xmlns="http://www.w3.org/2000/svg">
<path fill-rule="evenodd" clip-rule="evenodd" d="M4.76386 0.495034C3.92496 0.751972 3.11303 1.65896 2.40902 3.11966C1.11019 5.79824 0.785156 8.05801 0.785156 14.2965C0.785156 20.9409 1.12302 24.9594 2.15206 30.0596C3.00381 34.2683 4.35787 37.5147 5.56162 38.2598C6.12946 38.5977 6.77954 38.5848 7.41546 38.2328C7.80729 38.0029 11.2849 34.4713 13.1657 32.3734C13.2467 32.2924 13.8158 31.6424 14.4646 30.9396C15.1005 30.2356 16.0345 29.1668 16.5355 28.572C17.0365 27.9759 17.5915 27.3399 17.7534 27.1511C17.9152 26.9622 18.3212 26.474 18.6334 26.0681C18.9584 25.6621 19.5404 24.9581 19.9322 24.5123C20.8662 23.4563 22.8818 20.8047 23.9918 19.168C24.4659 18.464 25.1018 17.5442 25.3986 17.1382C26.3865 15.7713 27.7264 13.3625 27.9833 12.5506C28.6334 10.4129 28.2673 8.95087 26.9685 8.41001C25.3035 7.72013 18.5113 10.6287 14.7909 13.6464C14.3438 13.9984 13.952 14.2965 13.9109 14.2965C13.8569 14.2965 13.6269 13.4704 13.3828 12.4427C12.585 9.08705 11.2991 5.9344 9.75616 3.53845C9.05215 2.46959 7.69938 1.04873 7.02235 0.710861C6.48149 0.426944 5.34583 0.319031 4.76386 0.495034ZM6.11662 2.79592C7.3345 3.53975 8.76822 5.92157 10.0542 9.29132C10.4062 10.2253 10.7171 11.131 10.7441 11.3211C10.8661 12.0521 12.0571 16.0025 12.2331 16.2864C12.341 16.4625 12.5709 16.6924 12.761 16.8145C13.167 17.0714 13.3572 16.9905 14.6688 15.9075C16.0486 14.7975 17.7945 13.7158 19.9322 12.6739C21.759 11.781 24.5057 10.7661 25.6015 10.5631L26.1295 10.4681L26.0614 11.0912C26.0203 11.4432 25.7775 12.16 25.5206 12.7009C24.9797 13.8108 23.072 16.7464 21.434 18.9522C20.8251 19.7782 20.2431 20.576 20.1352 20.7379C19.9322 21.0488 18.3083 23.0658 16.9144 24.7706C16.4944 25.2844 15.1146 26.8685 13.8569 28.288C11.732 30.6699 10.8803 31.5897 7.67367 34.9183L6.49691 36.1362L6.06396 35.2832C4.65723 32.4954 3.43932 26.3392 2.96527 19.6408C2.80339 17.3682 2.78927 11.4406 2.93829 9.6279C3.16825 6.89407 4.03413 4.14741 5.03619 2.9565C5.46656 2.45676 5.54878 2.44391 6.11662 2.79592Z" fill="white"/>
</svg>
