<svg width="63" height="73" viewBox="0 0 63 73" fill="none" xmlns="http://www.w3.org/2000/svg">
<path fill-rule="evenodd" clip-rule="evenodd" d="M25.5595 0.243586C25.2345 0.500524 25.2345 0.514663 25.2486 3.53112C25.2486 6.61695 25.4105 8.14572 25.7625 8.4836C26.0053 8.72769 26.6143 8.59152 26.7093 8.2665C26.7903 7.96845 26.8583 4.93786 26.8172 2.39417C26.7902 0.797302 26.7491 0.36435 26.5731 0.202479C26.2892 -0.0801531 25.9385 -0.0673092 25.5595 0.243586Z" fill="white"/>
<path fill-rule="evenodd" clip-rule="evenodd" d="M46.3574 8.03782C46.2495 8.14573 45.9925 8.59282 45.8024 9.01163C44.4085 12.0024 43.8676 13.1111 43.5426 13.571C42.8926 14.478 43.1636 15.4659 43.9756 15.209C44.7875 14.952 45.9912 13.1252 47.0884 10.5134C47.6703 9.13366 47.7654 8.38855 47.4134 8.05068C47.1423 7.7809 46.6284 7.76804 46.3574 8.03782Z" fill="white"/>
<path fill-rule="evenodd" clip-rule="evenodd" d="M25.7639 16.495C24.925 16.752 24.113 17.659 23.409 19.1197C22.1102 21.7982 21.7852 24.058 21.7852 30.2965C21.7852 36.9409 22.123 40.9594 23.1521 46.0596C24.0038 50.2683 25.3579 53.5147 26.5616 54.2598C27.1295 54.5977 27.7795 54.5848 28.4155 54.2328C28.8073 54.0029 32.2849 50.4713 34.1657 48.3734C34.2467 48.2924 34.8158 47.6424 35.4646 46.9396C36.1005 46.2356 37.0345 45.1668 37.5355 44.572C38.0365 43.9759 38.5915 43.3399 38.7534 43.1511C38.9152 42.9622 39.3212 42.474 39.6334 42.0681C39.9584 41.6621 40.5404 40.9581 40.9322 40.5123C41.8662 39.4563 43.8818 36.8047 44.9918 35.168C45.4659 34.464 46.1018 33.5442 46.3986 33.1382C47.3865 31.7713 48.7264 29.3625 48.9833 28.5506C49.6334 26.4129 49.2673 24.9509 47.9685 24.41C46.3035 23.7201 39.5113 26.6287 35.7909 29.6464C35.3438 29.9984 34.952 30.2965 34.9109 30.2965C34.8569 30.2965 34.6269 29.4704 34.3828 28.4427C33.585 25.0871 32.2991 21.9344 30.7562 19.5385C30.0521 18.4696 28.6994 17.0487 28.0223 16.7109C27.4815 16.4269 26.3458 16.319 25.7639 16.495ZM27.1166 18.7959C28.3345 19.5398 29.7682 21.9216 31.0542 25.2913C31.4062 26.2253 31.7171 27.131 31.7441 27.3211C31.8661 28.0521 33.0571 32.0025 33.2331 32.2864C33.341 32.4625 33.5709 32.6924 33.761 32.8145C34.167 33.0714 34.3572 32.9905 35.6688 31.9075C37.0486 30.7975 38.7945 29.7158 40.9322 28.6739C42.759 27.781 45.5057 26.7661 46.6015 26.5631L47.1295 26.4681L47.0614 27.0912C47.0203 27.4432 46.7775 28.16 46.5206 28.7009C45.9797 29.8108 44.072 32.7464 42.434 34.9522C41.8251 35.7782 41.2431 36.576 41.1352 36.7379C40.9322 37.0488 39.3083 39.0658 37.9144 40.7706C37.4944 41.2844 36.1146 42.8685 34.8569 44.288C32.732 46.6699 31.8803 47.5897 28.6737 50.9183L27.4969 52.1362L27.064 51.2832C25.6572 48.4954 24.4393 42.3392 23.9653 35.6408C23.8034 33.3682 23.7893 27.4406 23.9383 25.6279C24.1683 22.8941 25.0341 20.1474 26.0362 18.9565C26.4666 18.4568 26.5488 18.4439 27.1166 18.7959Z" fill="white"/>
<path fill-rule="evenodd" clip-rule="evenodd" d="M5.49357 17.1038C4.93858 17.6176 5.01951 18.0776 5.79161 18.8227C6.49562 19.4997 8.06553 20.6624 8.79523 21.0285C9.63414 21.4614 11.556 22.1783 11.8669 22.1783C12.165 22.1783 12.4489 21.8263 12.4489 21.4743C12.4489 21.0683 11.61 20.3913 10.0812 19.5395C7.53753 18.1328 6.9016 17.6857 6.9016 17.3479C6.90032 16.7389 6.04855 16.5899 5.49357 17.1038Z" fill="white"/>
<path fill-rule="evenodd" clip-rule="evenodd" d="M58.1832 18.9848C55.8425 20.2297 54.1236 21.2587 53.7446 21.6094C53.1768 22.1503 53.1768 22.7053 53.7574 22.8954C54.0953 23.0033 54.3394 22.9224 55.4353 22.3815C57.1272 21.5555 58.6958 20.6228 59.1699 20.1757C59.59 19.7839 59.6568 19.2019 59.3189 18.8769C59.035 18.593 58.9001 18.6058 58.1832 18.9848Z" fill="white"/>
<path fill-rule="evenodd" clip-rule="evenodd" d="M55.9381 33.9374C55.5733 34.0992 55.0723 34.7352 55.0723 35.0332C55.0723 35.4533 55.4371 35.5882 56.5882 35.6422C57.21 35.6691 58.442 35.8451 59.3349 36.034C60.2277 36.2228 61.1617 36.386 61.4058 36.386C61.8657 36.386 62.3796 35.9942 62.3796 35.6422C62.3796 35.3043 61.9878 34.8033 61.5946 34.6414C60.3626 34.1404 56.5471 33.6663 55.9381 33.9374Z" fill="white"/>
<path fill-rule="evenodd" clip-rule="evenodd" d="M0.283927 35.3169C0.134903 35.4788 0 35.7627 0 35.9387C0 36.2766 0.432959 36.7905 0.716876 36.7905C0.811943 36.7905 1.62385 37.0885 2.50258 37.4534C3.39544 37.8182 4.66727 38.2794 5.33017 38.4683C7.44091 39.0901 8.96971 38.8601 8.75388 37.9814C8.64597 37.5895 8.38902 37.4675 6.76517 37.0076C6.12925 36.8316 4.72254 36.3575 3.63954 35.9387C1.16266 34.9791 0.675758 34.8968 0.283927 35.3169Z" fill="white"/>
<path fill-rule="evenodd" clip-rule="evenodd" d="M49.1443 47.7795C48.7794 48.1444 49.1314 49.0103 50.0243 49.9853C51.0803 51.1351 52.311 52.61 52.771 53.2998C53.245 54.0039 53.3799 54.1259 53.6908 54.0848C53.9066 54.0578 54.1237 53.9088 54.2458 53.693C54.6518 52.9761 54.1237 52.028 52.0939 49.7554C50.348 47.8065 49.6042 47.3183 49.1443 47.7795Z" fill="white"/>
<path fill-rule="evenodd" clip-rule="evenodd" d="M7.96881 53.2048C6.37194 53.8677 2.48833 56.0594 2.29948 56.4114C2.05539 56.8713 2.13759 57.3582 2.50245 57.5213C2.7324 57.6293 2.88145 57.6293 3.00349 57.5213C3.09856 57.4404 4.18025 56.8854 5.39814 56.2765C9.09162 54.4496 10.1335 53.6108 9.40382 53.0699C9.06466 52.8258 8.84883 52.8528 7.96881 53.2048Z" fill="white"/>
<path fill-rule="evenodd" clip-rule="evenodd" d="M37.0067 61.8778C36.6689 62.3788 36.7896 63.0546 37.5476 65.1384C37.8996 66.0993 38.2105 67.1412 38.2516 67.4392C38.3595 68.3861 38.4276 68.5762 38.7115 68.738C39.0635 68.9269 39.7264 68.6841 39.9423 68.2781C40.3071 67.5741 39.7804 65.3015 38.6563 62.7437C38.3043 61.9446 38.1154 61.7558 37.5874 61.6209C37.3048 61.5399 37.1827 61.5939 37.0067 61.8778Z" fill="white"/>
<path fill-rule="evenodd" clip-rule="evenodd" d="M21.9481 65.1796C21.4741 65.6536 20.8792 66.6274 19.6472 68.9823C18.9573 70.2682 18.4023 71.472 18.4023 71.648C18.4023 72.1619 18.9702 72.3649 19.5393 72.054C20.0673 71.7701 20.4733 71.12 22.0419 68.0085C23.0427 66.0326 23.1788 65.7076 23.0568 65.3697C22.8949 64.9098 22.3258 64.8019 21.9481 65.1796Z" fill="white"/>
</svg>
