<svg width="14" height="14" viewBox="0 0 14 14" fill="none" xmlns="http://www.w3.org/2000/svg">
<path fill-rule="evenodd" clip-rule="evenodd" d="M1.87805 0C1.37996 0 0.90227 0.197865 0.550068 0.550068C0.197865 0.90227 0 1.37996 0 1.87805C0 2.37614 0.197865 2.85383 0.550068 3.20603C0.90227 3.55823 1.37996 3.7561 1.87805 3.7561C2.37614 3.7561 2.85383 3.55823 3.20603 3.20603C3.55823 2.85383 3.7561 2.37614 3.7561 1.87805C3.7561 1.37996 3.55823 0.90227 3.20603 0.550068C2.85383 0.197865 2.37614 0 1.87805 0ZM1.02439 1.87805C1.02439 1.65164 1.11433 1.43451 1.27442 1.27442C1.43451 1.11433 1.65164 1.02439 1.87805 1.02439C2.10445 1.02439 2.32158 1.11433 2.48168 1.27442C2.64177 1.43451 2.73171 1.65164 2.73171 1.87805C2.73171 2.10445 2.64177 2.32158 2.48168 2.48168C2.32158 2.64177 2.10445 2.73171 1.87805 2.73171C1.65164 2.73171 1.43451 2.64177 1.27442 2.48168C1.11433 2.32158 1.02439 2.10445 1.02439 1.87805ZM0 4.60976C0 4.47391 0.0539632 4.34363 0.150018 4.24758C0.246074 4.15152 0.376353 4.09756 0.512195 4.09756H3.2439C3.37975 4.09756 3.51002 4.15152 3.60608 4.24758C3.70213 4.34363 3.7561 4.47391 3.7561 4.60976V13.4878C3.7561 13.6236 3.70213 13.7539 3.60608 13.85C3.51002 13.946 3.37975 14 3.2439 14H0.512195C0.376353 14 0.246074 13.946 0.150018 13.85C0.0539632 13.7539 0 13.6236 0 13.4878V4.60976ZM1.02439 5.12195V12.9756H2.73171V5.12195H1.02439ZM4.78049 4.60976C4.78049 4.47391 4.83445 4.34363 4.93051 4.24758C5.02656 4.15152 5.15684 4.09756 5.29268 4.09756H8.02439C8.16023 4.09756 8.29051 4.15152 8.38657 4.24758C8.48262 4.34363 8.53659 4.47391 8.53659 4.60976V4.90615L8.83366 4.77844C9.34589 4.55963 9.88928 4.42252 10.444 4.3721C12.3391 4.2 14 5.68878 14 7.60098V13.4878C14 13.6236 13.946 13.7539 13.85 13.85C13.7539 13.946 13.6236 14 13.4878 14H10.7561C10.6203 14 10.49 13.946 10.3939 13.85C10.2979 13.7539 10.2439 13.6236 10.2439 13.4878V8.70732C10.2439 8.48091 10.154 8.26378 9.99387 8.10369C9.83378 7.9436 9.61665 7.85366 9.39024 7.85366C9.16384 7.85366 8.94671 7.9436 8.78662 8.10369C8.62652 8.26378 8.53659 8.48091 8.53659 8.70732V13.4878C8.53659 13.6236 8.48262 13.7539 8.38657 13.85C8.29051 13.946 8.16023 14 8.02439 14H5.29268C5.15684 14 5.02656 13.946 4.93051 13.85C4.83445 13.7539 4.78049 13.6236 4.78049 13.4878V4.60976ZM5.80488 5.12195V12.9756H7.5122V8.70732C7.5122 8.20923 7.71006 7.73154 8.06226 7.37934C8.41446 7.02713 8.89215 6.82927 9.39024 6.82927C9.88833 6.82927 10.366 7.02713 10.7182 7.37934C11.0704 7.73154 11.2683 8.20923 11.2683 8.70732V12.9756H12.9756V7.60098C12.9756 6.30068 11.8413 5.27356 10.5376 5.39239C10.0897 5.43303 9.6509 5.54364 9.23727 5.7202L8.22654 6.15385C8.14858 6.18734 8.06352 6.20093 7.97901 6.19342C7.8945 6.1859 7.81318 6.15751 7.74235 6.11079C7.67153 6.06407 7.61342 6.00049 7.57325 5.92575C7.53307 5.85102 7.5121 5.76748 7.5122 5.68263V5.12195H5.80488Z" fill="#0F73EC"/>
</svg>
