<svg width="325" height="158" viewBox="0 0 325 158" fill="none" xmlns="http://www.w3.org/2000/svg">
<g clip-path="url(#clip0_193_2117)">
<path d="M0.0929084 77.7528C-0.139805 75.3467 1.62178 73.2075 4.0275 72.9748L46.06 68.9083C48.4658 68.6756 50.6046 70.4374 50.8373 72.8435L54.775 113.555C55.0077 115.962 53.2461 118.101 50.8404 118.333L8.80788 122.4C6.40215 122.632 4.26327 120.87 4.03056 118.464L0.0929084 77.7528Z" fill="black" fill-opacity="0.28"/>
<path d="M46.5481 82.3854C46.1093 80.0082 47.6803 77.7255 50.057 77.2866L91.1331 69.7015C93.51 69.2626 95.7925 70.8337 96.2313 73.2108L103.465 112.394C103.904 114.772 102.333 117.054 99.9561 117.493L58.88 125.078C56.5032 125.517 54.2206 123.946 53.7818 121.569L46.5481 82.3854Z" fill="black" fill-opacity="0.28"/>
<path d="M95.7468 77.2888C95.8702 74.8747 97.927 73.0176 100.341 73.1411L142.259 75.2833C144.673 75.4066 146.53 77.4637 146.406 79.8778L144.333 120.453C144.21 122.867 142.153 124.724 139.739 124.601L97.821 122.459C95.4072 122.336 93.5504 120.278 93.6738 117.865L95.7468 77.2888Z" fill="black" fill-opacity="0.28"/>
<path d="M135.98 81.731C135.564 79.3499 137.156 77.0819 139.537 76.6654L180.882 69.4305C183.263 69.0138 185.531 70.6063 185.946 72.9875L192.973 113.147C193.389 115.528 191.796 117.795 189.416 118.212L148.071 125.447C145.69 125.864 143.423 124.271 143.006 121.89L135.98 81.731Z" fill="black" fill-opacity="0.28"/>
<path d="M184.87 75.6573C185.207 73.2637 187.421 71.5964 189.815 71.9334L231.34 77.7807C233.734 78.1177 235.4 80.3314 235.063 82.725L229.381 123.096C229.044 125.49 226.83 127.157 224.437 126.82L182.911 120.973C180.517 120.636 178.851 118.422 179.188 116.029L184.87 75.6573Z" fill="black" fill-opacity="0.28"/>
<path d="M225.409 80.443C225.19 78.0356 226.965 75.9068 229.372 75.688L270.485 71.9513C272.892 71.7326 275.021 73.5068 275.24 75.9142L278.929 116.524C279.148 118.933 277.374 121.061 274.967 121.28L233.854 125.016C231.447 125.235 229.318 123.461 229.099 121.053L225.409 80.443Z" fill="black" fill-opacity="0.28"/>
<path d="M267.636 81.0493C267.274 78.6593 268.918 76.4285 271.309 76.0669L312.879 69.7754C315.269 69.4138 317.499 71.0581 317.86 73.4482L323.964 113.79C324.326 116.181 322.682 118.412 320.293 118.773L278.721 125.065C276.332 125.426 274.102 123.782 273.74 121.391L267.636 81.0493Z" fill="black" fill-opacity="0.28"/>
<path d="M0.0929084 73.222C-0.139805 70.8159 1.62178 68.6768 4.0275 68.444L46.06 64.3776C48.4658 64.1448 50.6046 65.9066 50.8373 68.3127L54.775 109.025C55.0077 111.431 53.2461 113.57 50.8404 113.802L8.80788 117.869C6.40215 118.101 4.26327 116.34 4.03056 113.933L0.0929084 73.222Z" fill="#F4962B"/>
<path d="M46.5481 77.8546C46.1093 75.4774 47.6803 73.1947 50.057 72.7558L91.1331 65.1707C93.51 64.7318 95.7925 66.303 96.2313 68.6801L103.465 107.863C103.904 110.241 102.333 112.523 99.9561 112.962L58.88 120.547C56.5032 120.986 54.2206 119.415 53.7818 117.038L46.5481 77.8546Z" fill="#0F73EC"/>
<path d="M95.7468 72.758C95.8702 70.344 97.927 68.4869 100.341 68.6103L142.259 70.7526C144.673 70.8759 146.53 72.9329 146.406 75.3471L144.333 115.923C144.21 118.337 142.153 120.193 139.739 120.07L97.821 117.928C95.4072 117.805 93.5504 115.748 93.6738 113.334L95.7468 72.758Z" fill="#19CBD5"/>
<path d="M135.98 77.2003C135.564 74.8191 137.156 72.5512 139.537 72.1346L180.882 64.8997C183.263 64.4831 185.531 66.0756 185.946 68.4567L192.973 108.616C193.389 110.997 191.796 113.265 189.416 113.682L148.071 120.917C145.69 121.333 143.423 119.74 143.006 117.359L135.98 77.2003Z" fill="#F22E68"/>
<path d="M184.87 71.1265C185.207 68.7329 187.421 67.0657 189.815 67.4027L231.34 73.25C233.734 73.587 235.4 75.8007 235.063 78.1943L229.381 118.566C229.044 120.959 226.83 122.626 224.437 122.289L182.911 116.442C180.517 116.105 178.851 113.891 179.188 111.498L184.87 71.1265Z" fill="#18C47D"/>
<path d="M225.409 75.9123C225.19 73.5049 226.965 71.3761 229.372 71.1572L270.485 67.4206C272.892 67.2018 275.021 68.976 275.24 71.3834L278.929 111.994C279.148 114.402 277.374 116.53 274.967 116.749L233.854 120.486C231.447 120.705 229.318 118.93 229.099 116.522L225.409 75.9123Z" fill="#F65CC7"/>
<path d="M267.636 76.518C267.274 74.128 268.918 71.8973 271.309 71.5356L312.879 65.2442C315.269 64.8826 317.499 66.5268 317.86 68.9169L323.964 109.259C324.326 111.649 322.682 113.881 320.293 114.242L278.721 120.533C276.332 120.894 274.102 119.251 273.74 116.86L267.636 76.518Z" fill="#0F73EC"/>
<path d="M38.6592 83.5333C39.5121 86.9136 39.0217 90.0115 37.1883 92.8269C35.3547 95.6424 32.5983 97.5163 28.9189 98.4487C28.1839 98.6463 26.9152 98.7751 25.1128 98.8351C24.1966 98.8524 23.5174 98.8786 23.0754 98.9139L22.6195 98.9501L22.7467 100.024C22.9957 101.757 23.1295 102.914 23.148 103.496L23.1777 103.869C23.2236 105.145 23.1569 106.054 22.9777 106.597C22.5306 107.967 21.7069 108.797 20.5066 109.087C19.9882 109.212 19.4888 109.224 19.008 109.123C18.5251 108.995 18.1484 108.802 17.8778 108.546L17.7468 108.473C17.3126 108.257 17.0226 107.933 16.8769 107.499C16.7567 107.036 16.6784 106.403 16.6423 105.599C16.6282 105.072 16.6164 104.225 16.607 103.058C16.5692 100.836 16.5052 99.1586 16.4151 98.0257C16.259 96.0638 15.8303 93.1225 15.1291 89.2017C14.4776 85.5551 14.0654 82.8211 13.8926 80.9996C13.8179 80.0599 13.8044 79.3659 13.8521 78.9171C13.9852 77.7943 14.5093 77.0434 15.4245 76.6647C15.6688 76.5896 15.9152 76.5423 16.1639 76.5225C16.8547 76.4675 17.5121 76.6933 18.1363 77.1997C18.2236 77.2484 18.3302 77.365 18.4561 77.5497C18.5478 77.6535 18.6246 77.7448 18.6864 77.8234L19.0062 78.1733L19.3179 77.8982C21.1442 76.3903 23.2919 75.4268 25.761 75.0078C28.9737 74.5019 31.7259 75.0198 34.0173 76.5615C36.3341 78.0734 37.8815 80.3973 38.6592 83.5333ZM29.9091 89.4019C31.4924 87.6353 31.8457 85.7858 30.969 83.8534C30.8001 83.4775 30.5505 83.1359 30.2202 82.8284C29.8899 82.5211 29.5524 82.2976 29.2077 82.1582C28.2651 81.844 27.1483 81.9606 25.8573 82.5083C24.5641 83.0283 23.6912 83.7652 23.2388 84.7188C22.1792 86.7776 21.7594 89.1885 21.9792 91.9518L22.0123 92.3663L22.43 92.3747C22.7615 92.3483 23.0654 92.3242 23.3417 92.3022C26.2151 92.0735 28.4043 91.1067 29.9091 89.4019Z" fill="white"/>
<path d="M74.9958 78.4018C77.0224 78.7132 78.7656 79.1307 80.2253 79.654C81.7126 80.1752 83.1069 80.9263 84.4083 81.9073C85.7076 82.8605 86.7548 84.1398 87.5497 85.745C88.3448 87.3502 88.8877 89.2814 89.1785 91.5384C89.1415 95.2676 88.312 98.2951 86.6898 100.621C86.2873 101.154 85.6592 101.996 84.8056 103.149L84.094 104.165C81.6878 107.471 78.3225 109.031 73.9983 108.847C73.6093 108.85 72.9937 108.802 72.1516 108.702L71.9826 108.674C67.938 108.162 64.8444 106.322 62.7018 103.156C61.5068 101.416 60.7086 99.4214 60.3073 97.1731C59.9337 94.9226 60.013 92.7751 60.5455 90.7306C62.2944 84.0565 66.2994 80.0533 72.5605 78.7208L73.0098 78.6015C73.5834 78.4725 74.0222 78.3958 74.3261 78.3716C74.5748 78.3519 74.798 78.3619 74.9958 78.4018ZM81.7299 92.7986L81.7614 92.671L81.7516 92.5466C81.4394 91.0699 80.9475 89.955 80.276 89.202C79.6298 88.4192 78.6365 87.8169 77.2962 87.3953C76.0685 86.9924 74.9951 86.6052 74.0758 86.2333C72.8394 85.7201 71.8016 85.6079 70.9628 85.8972C70.1217 86.1587 69.3709 86.858 68.7108 87.9951C66.7664 91.5146 66.486 94.8043 67.8694 97.8643C68.3398 98.8836 69.018 99.7195 69.9041 100.372C70.8177 101.022 71.8359 101.414 72.9587 101.547C73.352 101.599 73.756 101.609 74.1704 101.576C75.9387 101.435 77.3502 100.655 78.4051 99.2366C78.5324 99.0874 78.7104 98.8786 78.9393 98.61C79.5473 97.8665 79.9593 97.2776 80.1749 96.8433C80.4604 96.2366 80.8298 95.2895 81.2835 94.0021C81.4649 93.4871 81.6137 93.086 81.7299 92.7986Z" fill="white"/>
<path d="M130.645 109.722C131.072 110.29 131.377 110.73 131.562 111.04C132.036 111.859 132.248 112.641 132.198 113.389C132.174 114.164 131.891 114.78 131.351 115.236C130.753 115.716 130.041 115.902 129.213 115.794C128.411 115.714 127.687 115.359 127.04 114.729C126.69 114.385 126.223 113.803 125.638 112.98C125.132 112.3 124.732 111.802 124.436 111.488C124.007 111.003 123.42 110.722 122.673 110.644C122.286 110.604 121.816 110.576 121.261 110.559C121.207 110.558 121.151 110.556 121.095 110.555C121.04 110.552 120.97 110.55 120.887 110.548C120.804 110.545 120.749 110.544 120.721 110.543C119.501 110.533 118.603 110.464 118.024 110.336C115.847 109.881 113.904 109.059 112.193 107.869C110.482 106.68 109.099 105.196 108.045 103.416C106.99 101.637 106.355 99.7041 106.142 97.6176C105.957 95.5043 106.216 93.3767 106.919 91.235C107.812 88.3226 109.293 85.6915 111.361 83.3419C113.833 80.5054 116.941 79.0333 120.688 78.9259L121.562 78.911C124.172 78.8242 126.096 78.9107 127.336 79.1705C133.426 80.3825 136.503 84.0817 136.563 90.2681C136.619 97.5358 134.396 103.153 129.894 107.12C129.837 107.174 129.749 107.282 129.634 107.445L129.245 107.932L129.806 108.615C130.073 108.956 130.26 109.198 130.366 109.34L130.645 109.722ZM124.701 101.429C126.227 100.477 127.431 98.7668 128.31 96.2977C129.19 93.8285 129.383 91.5881 128.889 89.5762C128.546 88.1236 127.688 87.1545 126.316 86.6689C125.85 86.5159 125.165 86.2315 124.262 85.8157C123.388 85.4008 122.717 85.1169 122.25 84.9639C121.319 84.6027 120.545 84.5375 119.928 84.7683C118.666 85.2012 117.46 86.0796 116.312 87.4035C115.162 88.7272 114.284 90.2258 113.678 91.8989C113.102 93.5453 112.917 95.0373 113.126 96.3748C113.377 98.1297 113.971 99.5484 114.909 100.631C115.875 101.686 117.09 102.348 118.551 102.614L118.923 102.667L119.058 102.338C119.597 101.051 120.257 100.323 121.038 100.152C121.932 99.93 122.974 100.336 124.163 101.371L124.447 101.588L124.701 101.429Z" fill="white"/>
<path d="M173.89 76.7594C174.535 77.7644 174.883 78.615 174.932 79.3113C175.288 84.9732 175.529 90.0363 175.654 94.5006C175.663 95.5717 175.413 97.0595 174.905 98.9641C174.498 100.511 173.829 101.881 172.903 103.076C171.97 104.244 170.849 105.165 169.539 105.841C166.79 107.245 163.846 107.347 160.707 106.144C155.953 104.322 152.944 100.794 151.683 95.5601C151.556 95.0481 151.409 94.286 151.243 93.2735C151.153 92.8107 151.086 92.457 151.039 92.212L150.952 91.7628L150.789 91.7942L150.636 90.3416C150.35 87.6865 150.14 85.6381 150.004 84.1965C149.958 83.8103 149.966 83.3427 150.03 82.7942C150.203 81.4906 150.853 80.6879 151.979 80.3861C152.519 80.254 153.04 80.3231 153.544 80.593C154.069 80.8306 154.472 81.233 154.75 81.8005C155.232 82.6955 155.675 83.824 156.079 85.186C156.418 86.3628 156.938 88.1823 157.638 90.6446C158.099 92.3061 158.436 93.4692 158.649 94.134C159.407 96.7544 160.968 98.5569 163.33 99.5416C164.864 100.178 166.15 100.184 167.187 99.5611C168.121 98.9861 168.65 97.9949 168.775 96.5878C168.945 94.6917 168.946 91.8403 168.779 88.0335L168.776 87.3566C168.726 86.519 168.616 85.2842 168.443 83.6519C168.29 82.27 168.188 81.2309 168.139 80.5346C168.077 79.4741 168.182 78.48 168.454 77.5523C168.816 76.3534 169.657 75.669 170.98 75.4991C172.243 75.3125 173.212 75.7325 173.89 76.7594Z" fill="white"/>
<path d="M212.463 88.028C212.387 89.1635 212.276 90.3645 212.129 91.6311C211.986 92.8702 211.828 93.9961 211.655 95.0085C211.513 95.9967 211.304 97.2004 211.028 98.6195C210.756 100.011 210.516 101.114 210.311 101.927C210.136 102.716 209.879 103.858 209.538 105.354L209.003 107.803C208.855 108.372 208.562 108.966 208.128 109.585C207.337 110.638 206.391 111.1 205.289 110.973C204.27 110.855 203.532 110.24 203.076 109.127C202.509 107.749 202.277 106.258 202.379 104.651C202.435 103.206 202.659 101.028 203.052 98.1152C203.198 96.8486 203.303 95.9398 203.367 95.3891L203.419 94.9348L203.254 94.9156C203.279 94.6954 203.385 94.0239 203.57 92.9013C204.026 90.1636 204.39 88.1127 204.659 86.7485C204.918 85.4671 205.291 84.2963 205.777 83.2362C206.138 82.5246 206.631 81.9957 207.257 81.6496C207.914 81.2791 208.613 81.1505 209.352 81.2641C210.967 81.5346 211.921 82.4542 212.214 84.0228C212.442 85.1933 212.524 86.5284 212.463 88.028Z" fill="white"/>
<path d="M262.984 80.9C263.889 81.0711 264.619 81.4662 265.174 82.0854C265.726 82.6771 265.997 83.377 265.983 84.185C265.977 84.7421 265.841 85.255 265.577 85.7234C265.339 86.1894 264.998 86.581 264.552 86.8982C264.105 87.1879 263.58 87.3869 262.977 87.4954C262.402 87.6014 261.52 87.6925 260.329 87.7689C259.778 87.8173 259.35 87.8547 259.046 87.8814L255.235 88.215L255.362 88.7049C255.494 89.2499 255.72 90.2457 256.041 91.6923C256.682 94.558 257.144 96.674 257.431 98.0402C258.061 101.102 258.508 103.664 258.772 105.728C258.887 106.72 258.786 107.786 258.468 108.927C258.037 110.356 257.062 111.151 255.547 111.311C253.998 111.419 252.903 110.82 252.259 109.512C251.646 108.23 251.282 106.94 251.169 105.643C250.959 103.24 250.697 99.6178 250.384 94.7756C250.243 92.8402 250.144 91.3879 250.087 90.419C250.077 90.3086 250.046 90.1165 249.995 89.8428L249.892 89.1423L248.513 89.1377C247.316 89.1312 246.37 89.1168 245.672 89.0943C245.085 89.0623 244.637 89.032 244.329 89.0033C243.455 88.885 242.764 88.6117 242.254 88.1833C241.743 87.7549 241.443 87.1969 241.356 86.5088C241.172 85.0501 241.969 83.9787 243.745 83.2943L243.87 83.2835C243.948 83.221 244 83.1885 244.028 83.1861C245.208 82.9993 246.947 82.68 249.244 82.2285C252.99 81.483 255.803 81.028 257.681 80.8635C259.199 80.7305 260.629 80.7027 261.972 80.7798C262.336 80.8037 262.673 80.8437 262.984 80.9Z" fill="white"/>
<path d="M295.826 78.5884C297.854 78.8837 299.601 79.2873 301.065 79.7992C302.556 80.3085 303.957 81.0485 305.265 82.0191C306.573 82.962 307.63 84.2329 308.437 85.8318C309.245 87.4306 309.804 89.3574 310.112 91.6121C310.104 95.3414 309.299 98.3755 307.695 100.714C307.297 101.25 306.676 102.097 305.831 103.257L305.128 104.278C302.748 107.603 299.396 109.191 295.07 109.041C294.68 109.047 294.064 109.004 293.222 108.91L293.052 108.884C289.004 108.403 285.896 106.589 283.729 103.439C282.52 101.709 281.706 99.7208 281.287 97.4757C280.895 95.2283 280.957 93.0802 281.474 91.0315C283.17 84.3438 287.142 80.3089 293.393 78.9266L293.841 78.804C294.413 78.6703 294.852 78.5902 295.156 78.5636C295.405 78.5418 295.628 78.5501 295.826 78.5884ZM302.674 92.9313L302.704 92.8035L302.693 92.6792C302.369 91.205 301.868 90.094 301.191 89.3464C300.539 88.5688 299.541 87.9744 298.198 87.5634C296.967 87.1703 295.89 86.7915 294.968 86.4271C293.727 85.9235 292.689 85.8197 291.852 86.1155C291.013 86.3838 290.268 87.0891 289.617 88.2313C287.7 91.7662 287.446 95.058 288.854 98.107C289.332 99.1224 290.017 99.9529 290.908 100.598C291.827 101.241 292.849 101.625 293.972 101.749C294.366 101.798 294.77 101.804 295.185 101.768C296.952 101.613 298.356 100.823 299.4 99.3955C299.526 99.2453 299.702 99.0351 299.93 98.7648C300.531 98.0164 300.938 97.4242 301.151 96.9882C301.432 96.3793 301.794 95.4293 302.237 94.1383C302.414 93.6219 302.56 93.2196 302.674 92.9313Z" fill="white"/>
<path d="M98.5548 138.562L98.4564 136.517L102.121 132.655H104.09L100.786 136.21L99.8018 137.26L98.5548 138.562ZM96.9688 140.313V132.655H98.7298V140.313H96.9688ZM102.208 140.313L99.4846 136.976L100.644 135.718L104.276 140.313H102.208Z" fill="#F4962B"/>
<path d="M107.803 140.313V132.655H109.574V140.313H107.803Z" fill="#F4962B"/>
<path d="M114.129 140.313V132.655H117.607C118.439 132.655 119.172 132.816 119.806 133.136C120.44 133.45 120.936 133.891 121.294 134.46C121.65 135.029 121.83 135.704 121.83 136.484C121.83 137.257 121.65 137.931 121.294 138.508C120.936 139.076 120.44 139.522 119.806 139.842C119.172 140.156 118.439 140.313 117.607 140.313H114.129ZM115.901 138.858H117.52C118.03 138.858 118.471 138.763 118.843 138.573C119.222 138.376 119.514 138.1 119.718 137.742C119.93 137.384 120.036 136.965 120.036 136.484C120.036 135.995 119.93 135.576 119.718 135.226C119.514 134.868 119.222 134.594 118.843 134.405C118.471 134.208 118.03 134.11 117.52 134.11H115.901V138.858Z" fill="#F4962B"/>
<path d="M128.418 140.445C127.806 140.445 127.22 140.365 126.657 140.204C126.096 140.037 125.644 139.821 125.301 139.559L125.902 138.224C126.231 138.457 126.618 138.651 127.062 138.804C127.515 138.949 127.97 139.023 128.429 139.023C128.779 139.023 129.061 138.99 129.272 138.924C129.491 138.851 129.651 138.752 129.753 138.629C129.856 138.505 129.906 138.363 129.906 138.202C129.906 137.998 129.826 137.838 129.666 137.721C129.506 137.597 129.294 137.499 129.031 137.425C128.769 137.345 128.478 137.272 128.156 137.207C127.843 137.133 127.526 137.046 127.204 136.944C126.891 136.842 126.603 136.711 126.34 136.55C126.077 136.389 125.863 136.178 125.695 135.916C125.535 135.653 125.454 135.317 125.454 134.909C125.454 134.471 125.571 134.074 125.804 133.716C126.045 133.352 126.402 133.063 126.876 132.852C127.357 132.633 127.959 132.524 128.681 132.524C129.162 132.524 129.637 132.582 130.103 132.699C130.57 132.808 130.983 132.976 131.339 133.202L130.792 134.548C130.436 134.343 130.078 134.195 129.72 134.099C129.364 133.998 129.014 133.946 128.67 133.946C128.328 133.946 128.047 133.987 127.828 134.067C127.609 134.146 127.453 134.253 127.357 134.384C127.263 134.507 127.215 134.654 127.215 134.821C127.215 135.018 127.296 135.179 127.456 135.303C127.617 135.42 127.828 135.514 128.09 135.587C128.353 135.661 128.642 135.733 128.954 135.806C129.276 135.879 129.593 135.963 129.906 136.058C130.228 136.153 130.519 136.28 130.781 136.441C131.044 136.602 131.256 136.813 131.416 137.075C131.584 137.338 131.667 137.669 131.667 138.071C131.667 138.501 131.547 138.895 131.306 139.252C131.066 139.61 130.705 139.898 130.223 140.117C129.75 140.336 129.148 140.445 128.418 140.445Z" fill="#F4962B"/>
<path d="M141.447 140.313V132.655H142.913L147.431 138.168H146.72V132.655H148.47V140.313H147.015L142.486 134.799H143.197V140.313H141.447Z" fill="#F4962B"/>
<path d="M156.421 140.444C155.334 140.444 154.485 140.141 153.872 139.536C153.259 138.931 152.953 138.067 152.953 136.943V132.655H154.725V136.878C154.725 137.607 154.875 138.132 155.174 138.453C155.473 138.773 155.892 138.934 156.432 138.934C156.972 138.934 157.391 138.773 157.689 138.453C157.989 138.132 158.138 137.607 158.138 136.878V132.655H159.888V136.943C159.888 138.067 159.582 138.931 158.969 139.536C158.357 140.141 157.508 140.444 156.421 140.444Z" fill="#F4962B"/>
<path d="M164.377 140.313V132.655H167.691C168.377 132.655 168.968 132.767 169.463 132.994C169.96 133.213 170.343 133.53 170.612 133.946C170.882 134.361 171.017 134.857 171.017 135.434C171.017 136.002 170.882 136.495 170.612 136.91C170.343 137.318 169.96 137.632 169.463 137.851C168.968 138.07 168.377 138.179 167.691 138.179H165.361L166.149 137.403V140.313H164.377ZM169.245 140.313L167.33 137.534H169.223L171.159 140.313H169.245ZM166.149 137.6L165.361 136.768H167.593C168.14 136.768 168.549 136.651 168.818 136.418C169.088 136.177 169.223 135.849 169.223 135.434C169.223 135.01 169.088 134.682 168.818 134.449C168.549 134.216 168.14 134.099 167.593 134.099H165.361L166.149 133.256V137.6Z" fill="#F4962B"/>
<path d="M177.672 140.445C177.06 140.445 176.472 140.365 175.911 140.204C175.35 140.037 174.897 139.821 174.555 139.559L175.156 138.224C175.485 138.457 175.871 138.651 176.316 138.804C176.768 138.949 177.224 139.023 177.683 139.023C178.033 139.023 178.315 138.99 178.526 138.924C178.744 138.851 178.905 138.752 179.007 138.629C179.109 138.505 179.16 138.363 179.16 138.202C179.16 137.998 179.08 137.838 178.919 137.721C178.759 137.597 178.548 137.499 178.285 137.425C178.022 137.345 177.73 137.272 177.41 137.207C177.096 137.133 176.779 137.046 176.458 136.944C176.144 136.842 175.856 136.711 175.594 136.55C175.331 136.389 175.116 136.178 174.949 135.916C174.788 135.653 174.708 135.317 174.708 134.909C174.708 134.471 174.825 134.074 175.058 133.716C175.299 133.352 175.656 133.063 176.13 132.852C176.611 132.633 177.213 132.524 177.935 132.524C178.416 132.524 178.89 132.582 179.357 132.699C179.824 132.808 180.235 132.976 180.593 133.202L180.046 134.548C179.688 134.343 179.332 134.195 178.974 134.099C178.616 133.998 178.266 133.946 177.924 133.946C177.582 133.946 177.3 133.987 177.082 134.067C176.863 134.146 176.706 134.253 176.611 134.384C176.516 134.507 176.469 134.654 176.469 134.821C176.469 135.018 176.549 135.179 176.71 135.303C176.871 135.42 177.082 135.514 177.344 135.587C177.607 135.661 177.894 135.733 178.208 135.806C178.529 135.879 178.846 135.963 179.16 136.058C179.481 136.153 179.773 136.28 180.035 136.441C180.298 136.602 180.509 136.813 180.67 137.075C180.837 137.338 180.921 137.669 180.921 138.071C180.921 138.501 180.801 138.895 180.56 139.252C180.32 139.61 179.959 139.898 179.477 140.117C179.004 140.336 178.402 140.445 177.672 140.445Z" fill="#F4962B"/>
<path d="M186.499 135.74H190.185V137.118H186.499V135.74ZM186.63 138.891H190.798V140.313H184.869V132.655H190.656V134.077H186.63V138.891Z" fill="#F4962B"/>
<path d="M194.943 140.313V132.655H198.258C198.942 132.655 199.533 132.767 200.03 132.994C200.525 133.213 200.908 133.53 201.178 133.946C201.447 134.361 201.583 134.857 201.583 135.434C201.583 136.002 201.447 136.495 201.178 136.91C200.908 137.318 200.525 137.632 200.03 137.851C199.533 138.07 198.942 138.179 198.258 138.179H195.928L196.715 137.403V140.313H194.943ZM199.811 140.313L197.897 137.534H199.789L201.725 140.313H199.811ZM196.715 137.6L195.928 136.768H198.159C198.706 136.768 199.114 136.651 199.384 136.418C199.653 136.177 199.789 135.849 199.789 135.434C199.789 135.01 199.653 134.682 199.384 134.449C199.114 134.216 198.706 134.099 198.159 134.099H195.928L196.715 133.256V137.6Z" fill="#F4962B"/>
<path d="M205.725 140.313V132.655H207.497V140.313H205.725Z" fill="#F4962B"/>
<path d="M213.679 135.74H217.365V137.118H213.679V135.74ZM213.81 138.891H217.977V140.313H212.049V132.655H217.835V134.077H213.81V138.891Z" fill="#F4962B"/>
<path d="M224.643 140.445C224.03 140.445 223.443 140.365 222.882 140.204C222.32 140.037 221.868 139.821 221.525 139.559L222.127 138.224C222.455 138.457 222.841 138.651 223.287 138.804C223.738 138.949 224.195 139.023 224.654 139.023C225.004 139.023 225.284 138.99 225.496 138.924C225.715 138.851 225.875 138.752 225.978 138.629C226.079 138.505 226.131 138.363 226.131 138.202C226.131 137.998 226.05 137.838 225.89 137.721C225.729 137.597 225.518 137.499 225.256 137.425C224.993 137.345 224.701 137.272 224.381 137.207C224.067 137.133 223.749 137.046 223.429 136.944C223.115 136.842 222.827 136.711 222.565 136.55C222.302 136.389 222.087 136.178 221.919 135.916C221.758 135.653 221.679 135.317 221.679 134.909C221.679 134.471 221.794 134.074 222.029 133.716C222.269 133.352 222.626 133.063 223.101 132.852C223.582 132.633 224.184 132.524 224.906 132.524C225.387 132.524 225.861 132.582 226.328 132.699C226.794 132.808 227.206 132.976 227.564 133.202L227.017 134.548C226.659 134.343 226.301 134.195 225.945 134.099C225.587 133.998 225.237 133.946 224.895 133.946C224.551 133.946 224.271 133.987 224.052 134.067C223.834 134.146 223.676 134.253 223.582 134.384C223.487 134.507 223.44 134.654 223.44 134.821C223.44 135.018 223.52 135.179 223.68 135.303C223.84 135.42 224.052 135.514 224.315 135.587C224.577 135.661 224.865 135.733 225.179 135.806C225.5 135.879 225.817 135.963 226.131 136.058C226.451 136.153 226.743 136.28 227.006 136.441C227.268 136.602 227.48 136.813 227.64 137.075C227.808 137.338 227.892 137.669 227.892 138.071C227.892 138.501 227.772 138.895 227.531 139.252C227.29 139.61 226.929 139.898 226.448 140.117C225.973 140.336 225.372 140.445 224.643 140.445Z" fill="#F4962B"/>
<path d="M44.5719 155.221C44.6477 155.413 44.6157 155.612 44.4757 155.816C44.4407 155.869 44.4144 155.9 44.3969 155.912C43.481 156.578 42.6058 156.767 41.7715 156.481C41.544 156.406 41.3514 156.298 41.1939 156.157C41.0422 156.012 40.9314 155.851 40.8614 155.676C40.7972 155.496 40.7506 155.331 40.7213 155.186C40.698 155.04 40.6893 154.892 40.6951 154.74C40.7184 154.01 40.7972 152.922 40.9314 151.475L40.9576 151.177C40.9868 150.892 41.0714 150.48 41.2114 149.943C41.2989 149.605 41.4769 149.436 41.7453 149.436C41.7628 149.436 41.7773 149.436 41.789 149.436C41.9348 149.448 42.0516 149.506 42.1391 149.611C42.2324 149.716 42.2849 149.852 42.2966 150.022C42.3258 150.407 42.3521 150.964 42.3754 151.694C42.3811 151.974 42.3871 152.163 42.3929 152.263C42.3929 152.473 42.3929 152.718 42.3929 152.998C42.3871 153.675 42.3871 154.174 42.3929 154.494C42.3987 154.699 42.4366 154.833 42.5066 154.897C42.5766 154.955 42.7167 154.973 42.9267 154.95C43.0142 154.944 43.1397 154.929 43.303 154.906C43.478 154.876 43.6093 154.859 43.6968 154.853C43.866 154.841 44.0089 154.848 44.1256 154.871C44.3532 154.923 44.5019 155.04 44.5719 155.221Z" fill="white"/>
<path d="M52.3211 154.915C52.6244 154.892 52.8344 155.002 52.9511 155.247C53.0619 155.48 53.0124 155.711 52.8024 155.939C52.674 156.079 52.5223 156.192 52.3473 156.28C51.6006 156.642 50.7838 156.735 49.8971 156.56C49.3779 156.455 49.0396 156.117 48.882 155.545C48.7361 155.02 48.7274 154.314 48.8558 153.427C48.9083 153.071 48.9986 152.537 49.1271 151.825C49.1854 151.487 49.2291 151.233 49.2583 151.064L49.2671 151.029C49.2846 150.929 49.2874 150.854 49.2758 150.801C49.2116 150.481 49.3516 150.227 49.6959 150.04C49.8592 149.952 49.9934 149.9 50.0984 149.882L50.4747 149.83C51.2038 149.725 51.7523 149.663 52.1198 149.646C52.1431 149.646 52.1664 149.646 52.1898 149.646C52.4639 149.646 52.6857 149.725 52.8549 149.882C53.0065 150.017 53.0852 150.183 53.0911 150.381C53.0969 150.603 53.0124 150.787 52.8374 150.933C52.6682 151.078 52.4436 151.16 52.1636 151.178C51.9243 151.19 51.5626 151.183 51.0785 151.16L50.851 151.151C50.6234 151.139 50.4834 151.16 50.4309 151.213C50.3784 151.26 50.3522 151.396 50.3522 151.624C50.3522 151.769 50.3522 151.991 50.3522 152.289V152.727L50.4659 152.709C50.5475 152.692 50.673 152.665 50.8422 152.63C51.1922 152.56 51.4548 152.52 51.6298 152.508C51.9564 152.478 52.2598 152.496 52.5399 152.56C52.6565 152.583 52.7499 152.636 52.8199 152.718C52.8899 152.8 52.9307 152.902 52.9424 153.024C52.9599 153.264 52.849 153.441 52.6099 153.558C52.4056 153.663 52.2073 153.724 52.0148 153.742C51.7639 153.765 51.376 153.789 50.851 153.812C50.635 153.817 50.4659 153.824 50.3434 153.829L50.2559 153.838V153.926C50.2559 153.984 50.2559 154.069 50.2559 154.179C50.25 154.512 50.253 154.76 50.2647 154.923C50.2705 154.981 50.3055 155.043 50.3697 155.107C50.4397 155.165 50.5067 155.195 50.5709 155.195C50.8976 155.172 51.2593 155.128 51.656 155.063C51.726 155.051 51.8251 155.028 51.9536 154.993C52.1169 154.946 52.2394 154.92 52.3211 154.915Z" fill="white"/>
<path d="M63.6151 155.072C63.6209 155.113 63.6297 155.151 63.6414 155.186C63.6355 155.401 63.5859 155.583 63.4926 155.729C63.4051 155.874 63.2796 155.974 63.1163 156.026C62.9529 156.073 62.7954 156.064 62.6438 156C62.4921 155.935 62.3696 155.828 62.2763 155.676C62.177 155.506 62.0925 155.296 62.0225 155.046C62.0108 154.993 61.9933 154.946 61.97 154.906C61.9525 154.865 61.9262 154.827 61.8912 154.792C61.862 154.757 61.8212 154.728 61.7687 154.705C61.7162 154.682 61.655 154.67 61.585 154.67C61.3574 154.664 61.019 154.652 60.5699 154.635C59.9864 154.605 59.5343 154.588 59.2135 154.582C59.1551 154.582 59.091 154.605 59.021 154.652C58.951 154.699 58.8985 154.752 58.8635 154.81C58.7993 154.92 58.7118 155.086 58.6009 155.308C58.49 155.536 58.3997 155.706 58.3297 155.816C58.2363 155.986 58.1225 156.102 57.9884 156.166C57.86 156.224 57.7259 156.222 57.5859 156.157C57.4575 156.105 57.3612 156.009 57.2971 155.869C57.2329 155.723 57.2271 155.562 57.2796 155.387C57.4837 154.752 57.7462 154.031 58.0672 153.226C58.2713 152.712 58.528 152.135 58.8372 151.493C59.0705 151.003 59.2864 150.614 59.4848 150.329C59.6189 150.136 59.8143 149.967 60.0711 149.821C60.2636 149.704 60.4474 149.646 60.6224 149.646C60.9315 149.646 61.1882 149.818 61.3924 150.162C61.9 151.026 62.3258 151.808 62.67 152.508C63.0142 153.203 63.2942 153.92 63.5101 154.661C63.5392 154.76 63.5742 154.897 63.6151 155.072ZM59.7298 153.103H61.3662L60.4299 151.186L59.7298 153.103Z" fill="white"/>
<path d="M72.5586 154.697C72.9844 154.93 73.1362 155.227 73.0136 155.589C72.9844 155.682 72.9377 155.768 72.8736 155.843C72.8094 155.919 72.7364 155.978 72.6548 156.018C72.5731 156.059 72.4826 156.088 72.3835 156.106C72.2843 156.118 72.1851 156.109 72.086 156.08C71.8935 156.027 71.6163 155.896 71.2546 155.686C71.0096 155.54 70.6508 155.324 70.1782 155.038C69.9039 154.868 69.7202 154.755 69.6269 154.697C69.586 154.674 69.5247 154.641 69.4431 154.6C69.3964 154.583 69.3556 154.562 69.3206 154.539L69.1893 154.478L69.1455 154.986C69.1105 155.324 69.0843 155.569 69.0668 155.721C69.0376 155.936 68.9676 156.103 68.8567 156.22C68.7458 156.337 68.6058 156.391 68.4367 156.386C68.2675 156.38 68.1274 156.316 68.0166 156.193C67.9116 156.071 67.8503 155.905 67.8328 155.694C67.7161 154.137 67.8328 152.439 68.1829 150.601C68.2295 150.35 68.317 150.186 68.4454 150.11C68.5095 150.075 68.5855 150.058 68.673 150.058C68.778 150.058 68.9005 150.081 69.0405 150.128C69.1338 150.163 69.2446 150.154 69.3731 150.102C70.0032 149.857 70.6858 149.822 71.4209 149.997C71.806 150.084 72.118 150.254 72.3573 150.504C72.6023 150.755 72.7656 151.079 72.8474 151.476C73.0049 152.206 72.7656 152.818 72.1297 153.314C72.0305 153.384 71.8643 153.492 71.6309 153.638C71.5142 153.708 71.4237 153.763 71.3596 153.804L71.2284 153.883L71.3596 153.961C71.4471 154.014 71.5725 154.093 71.7359 154.198C72.0976 154.431 72.3718 154.597 72.5586 154.697ZM69.3731 152.684C70.0965 152.584 70.7236 152.351 71.2546 151.983C71.4354 151.855 71.5142 151.703 71.4909 151.528C71.4675 151.365 71.3625 151.252 71.1758 151.187C70.5924 150.994 70.076 151.05 69.6269 151.353C69.5101 151.429 69.4256 151.523 69.3731 151.633C69.3206 151.744 69.2884 151.84 69.2768 151.922C69.2709 151.998 69.2709 152.106 69.2768 152.246C69.2768 152.398 69.2739 152.509 69.2681 152.579L69.2506 152.701L69.3731 152.684Z" fill="white"/>
<path d="M83.436 150.241C83.471 150.416 83.4885 150.603 83.4885 150.801L83.471 151.519C83.4418 153.019 83.4127 154.147 83.3835 154.906C83.366 155.513 83.1881 155.909 82.8497 156.096C82.523 156.276 82.103 156.222 81.5896 155.93C81.1988 155.702 80.7788 155.329 80.3295 154.809C80.0962 154.541 79.7753 154.115 79.3669 153.532C79.1919 153.287 79.0665 153.111 78.9907 153.006L78.9557 152.945C78.8624 152.817 78.7719 152.721 78.6844 152.656L78.5356 152.543V152.823C78.5356 152.91 78.5356 152.977 78.5356 153.024L78.5094 153.593C78.4802 154.573 78.4539 155.305 78.4306 155.79C78.4248 155.924 78.3869 156.061 78.3168 156.201C78.2293 156.376 78.1068 156.467 77.9493 156.472C77.7976 156.484 77.6722 156.405 77.573 156.236C77.4797 156.096 77.4272 155.959 77.4155 155.825C77.1997 154.039 77.153 152.458 77.2755 151.081C77.2813 150.959 77.3135 150.831 77.3718 150.696C77.4651 150.456 77.6197 150.299 77.8356 150.223C77.9173 150.2 77.996 150.188 78.0718 150.188C78.2118 150.188 78.3461 150.227 78.4744 150.302C78.6611 150.407 78.8186 150.542 78.9469 150.705C79.1452 150.955 79.434 151.335 79.8132 151.842C80.0407 152.145 80.2012 152.356 80.2945 152.473C80.487 152.73 80.7671 153.097 81.1346 153.575L81.5634 154.127L81.7909 154.039L81.7996 153.882C81.8054 153.794 81.8113 153.724 81.8171 153.672C81.8229 153.491 81.8288 153.222 81.8346 152.866C81.8638 151.962 81.8871 151.288 81.9046 150.845C81.9221 150.588 81.9776 150.337 82.0709 150.092C82.1351 149.935 82.2342 149.815 82.3684 149.733C82.5084 149.651 82.6602 149.619 82.8235 149.637C82.9752 149.654 83.1064 149.719 83.2173 149.83C83.334 149.94 83.4068 150.078 83.436 150.241Z" fill="white"/>
<path d="M88.626 154.145C89.0399 154.565 89.2527 154.99 89.2644 155.422C89.2469 155.959 88.9758 156.396 88.4511 156.734C88.3812 156.775 88.2908 156.792 88.18 156.787C88.0692 156.781 87.9759 156.757 87.9002 156.717C87.8068 156.659 87.734 156.498 87.6815 156.236C87.6641 156.178 87.6903 156.052 87.7603 155.859C87.8652 155.562 87.8505 155.288 87.7165 155.037C87.6407 154.885 87.6232 154.702 87.6641 154.486C87.7106 154.264 87.8418 154.116 88.0576 154.04C88.2791 153.958 88.4686 153.993 88.626 154.145Z" fill="white"/>
<path d="M104.582 151.44C104.705 152.163 104.55 152.805 104.118 153.366C103.687 153.926 103.077 154.273 102.289 154.407C102.132 154.437 101.864 154.442 101.484 154.425C101.292 154.413 101.149 154.407 101.055 154.407H100.959L100.968 154.635C100.991 155.002 101 155.247 100.994 155.37V155.449C100.983 155.717 100.953 155.907 100.907 156.018C100.79 156.298 100.603 156.459 100.347 156.499C100.236 156.517 100.131 156.511 100.032 156.482C99.9325 156.447 99.8566 156.399 99.804 156.341L99.7778 156.324C99.6903 156.271 99.6349 156.198 99.6115 156.105C99.594 156.006 99.5882 155.872 99.594 155.703C99.5999 155.592 99.6115 155.414 99.629 155.169C99.6582 154.702 99.6728 154.349 99.6728 154.11C99.6728 153.695 99.632 153.071 99.5503 152.237C99.4745 151.461 99.4336 150.88 99.4277 150.495C99.4277 150.297 99.4365 150.15 99.454 150.057C99.5007 149.824 99.6232 149.675 99.8215 149.611C99.8741 149.599 99.9266 149.593 99.9791 149.593C100.125 149.593 100.259 149.651 100.382 149.768C100.399 149.78 100.42 149.807 100.443 149.847C100.46 149.87 100.475 149.891 100.487 149.908L100.548 149.987L100.618 149.935C101.026 149.649 101.493 149.483 102.018 149.436C102.701 149.383 103.27 149.538 103.725 149.9C104.186 150.255 104.471 150.769 104.582 151.44ZM102.648 152.525C103.01 152.181 103.115 151.799 102.963 151.379C102.934 151.297 102.887 151.221 102.823 151.151C102.759 151.081 102.692 151.029 102.622 150.994C102.429 150.912 102.193 150.918 101.913 151.011C101.633 151.099 101.438 151.239 101.327 151.431C101.07 151.846 100.942 152.345 100.942 152.928V153.016L101.029 153.024C101.099 153.024 101.163 153.024 101.222 153.024C101.829 153.024 102.304 152.858 102.648 152.525Z" fill="white"/>
<path d="M112.65 155.221C112.726 155.414 112.694 155.612 112.554 155.817C112.519 155.869 112.493 155.901 112.475 155.913C111.559 156.578 110.684 156.767 109.85 156.482C109.622 156.406 109.43 156.298 109.272 156.158C109.12 156.012 109.009 155.852 108.939 155.677C108.875 155.496 108.829 155.332 108.799 155.186C108.776 155.041 108.767 154.892 108.773 154.74C108.797 154.01 108.875 152.923 109.01 151.475L109.036 151.178C109.065 150.892 109.15 150.481 109.29 149.944C109.377 149.606 109.555 149.436 109.823 149.436C109.841 149.436 109.855 149.436 109.867 149.436C110.013 149.448 110.13 149.506 110.217 149.611C110.31 149.716 110.363 149.853 110.375 150.022C110.404 150.408 110.431 150.964 110.453 151.694C110.459 151.974 110.466 152.164 110.471 152.263C110.471 152.473 110.471 152.718 110.471 152.998C110.466 153.676 110.466 154.174 110.471 154.495C110.476 154.7 110.515 154.833 110.585 154.898C110.655 154.956 110.795 154.973 111.005 154.95C111.092 154.945 111.218 154.929 111.381 154.906C111.556 154.877 111.687 154.859 111.775 154.854C111.944 154.842 112.087 154.848 112.204 154.871C112.431 154.924 112.58 155.041 112.65 155.221Z" fill="white"/>
<path d="M123.209 155.072C123.214 155.113 123.223 155.151 123.235 155.186C123.23 155.401 123.179 155.583 123.086 155.729C122.999 155.874 122.873 155.974 122.71 156.026C122.547 156.073 122.39 156.064 122.238 156C122.086 155.935 121.963 155.828 121.87 155.676C121.771 155.506 121.686 155.296 121.616 155.046C121.604 154.993 121.587 154.946 121.564 154.906C121.546 154.865 121.52 154.827 121.485 154.792C121.456 154.757 121.415 154.728 121.363 154.705C121.31 154.682 121.249 154.67 121.179 154.67C120.951 154.664 120.613 154.652 120.164 154.635C119.581 154.605 119.128 154.588 118.807 154.582C118.749 154.582 118.685 154.605 118.615 154.652C118.545 154.699 118.492 154.752 118.457 154.81C118.393 154.92 118.305 155.086 118.195 155.308C118.084 155.536 117.994 155.706 117.924 155.816C117.831 155.986 117.717 156.102 117.582 156.166C117.454 156.224 117.32 156.222 117.18 156.157C117.052 156.105 116.955 156.009 116.891 155.869C116.826 155.723 116.821 155.562 116.873 155.387C117.078 154.752 117.341 154.031 117.661 153.226C117.866 152.712 118.122 152.135 118.431 151.493C118.664 151.003 118.881 150.614 119.079 150.329C119.213 150.136 119.408 149.967 119.665 149.821C119.857 149.704 120.041 149.646 120.216 149.646C120.526 149.646 120.782 149.818 120.986 150.162C121.494 151.026 121.919 151.808 122.264 152.508C122.608 153.203 122.888 153.92 123.104 154.661C123.133 154.76 123.169 154.897 123.209 155.072ZM119.324 153.103H120.96L120.024 151.186L119.324 153.103Z" fill="white"/>
<path d="M132.434 149.943C132.556 150.036 132.635 150.159 132.67 150.311C132.705 150.456 132.67 150.623 132.565 150.81C132.151 151.434 131.609 152.187 130.937 153.068C130.786 153.266 130.725 153.485 130.753 153.724C130.83 154.412 130.874 155.049 130.885 155.632C130.885 155.767 130.867 155.892 130.832 156.009C130.804 156.119 130.76 156.215 130.701 156.298C130.643 156.38 130.57 156.443 130.482 156.49C130.395 156.537 130.298 156.56 130.193 156.56C130.013 156.566 129.852 156.502 129.712 156.368C129.537 156.193 129.449 155.951 129.449 155.641C129.449 155.414 129.47 155.069 129.511 154.608C129.535 154.311 129.552 154.089 129.563 153.943C129.563 153.879 129.549 153.809 129.519 153.733C129.491 153.658 129.449 153.605 129.397 153.576C128.872 153.225 128.455 152.732 128.146 152.096C128.023 151.839 127.86 151.443 127.655 150.906C127.568 150.684 127.505 150.518 127.463 150.407C127.445 150.367 127.428 150.302 127.41 150.215C127.34 149.887 127.414 149.658 127.629 149.523C127.717 149.471 127.813 149.444 127.918 149.444C128.088 149.444 128.233 149.514 128.356 149.654C128.531 149.852 128.767 150.176 129.064 150.626L129.082 150.661C129.211 150.853 129.395 151.154 129.633 151.562C129.762 151.773 129.852 151.918 129.905 152L129.975 152.123L130.395 151.58C130.757 151.119 131.005 150.801 131.139 150.626C131.174 150.579 131.221 150.512 131.279 150.425C131.384 150.279 131.469 150.174 131.532 150.11C131.667 149.964 131.816 149.876 131.979 149.847C132.148 149.817 132.3 149.85 132.434 149.943Z" fill="white"/>
<path d="M149.219 155.072C149.224 155.113 149.233 155.151 149.245 155.186C149.238 155.401 149.189 155.583 149.096 155.729C149.009 155.874 148.883 155.974 148.72 156.026C148.556 156.073 148.398 156.064 148.247 156C148.095 155.935 147.973 155.828 147.88 155.676C147.78 155.506 147.696 155.296 147.626 155.046C147.614 154.993 147.597 154.946 147.574 154.906C147.556 154.865 147.53 154.827 147.495 154.792C147.465 154.757 147.425 154.728 147.372 154.705C147.32 154.682 147.259 154.67 147.189 154.67C146.961 154.664 146.622 154.652 146.173 154.635C145.589 154.605 145.138 154.588 144.817 154.582C144.758 154.582 144.695 154.605 144.625 154.652C144.555 154.699 144.502 154.752 144.467 154.81C144.403 154.92 144.315 155.086 144.205 155.308C144.093 155.536 144.003 155.706 143.933 155.816C143.839 155.986 143.725 156.102 143.592 156.166C143.463 156.224 143.33 156.222 143.189 156.157C143.06 156.105 142.964 156.009 142.901 155.869C142.836 155.723 142.831 155.562 142.883 155.387C143.087 154.752 143.349 154.031 143.671 153.226C143.874 152.712 144.131 152.135 144.441 151.493C144.674 151.003 144.889 150.614 145.088 150.329C145.222 150.136 145.418 149.967 145.675 149.821C145.867 149.704 146.051 149.646 146.226 149.646C146.534 149.646 146.792 149.818 146.996 150.162C147.504 151.026 147.929 151.808 148.274 152.508C148.617 153.203 148.897 153.92 149.114 154.661C149.142 154.76 149.177 154.897 149.219 155.072ZM145.333 153.103H146.97L146.033 151.186L145.333 153.103Z" fill="white"/>
<path d="M159.621 150.241C159.656 150.416 159.674 150.603 159.674 150.801L159.656 151.519C159.628 153.019 159.599 154.147 159.569 154.906C159.551 155.513 159.374 155.909 159.035 156.096C158.709 156.276 158.289 156.222 157.775 155.93C157.385 155.702 156.965 155.329 156.515 154.809C156.282 154.541 155.961 154.115 155.552 153.532C155.377 153.287 155.253 153.111 155.176 153.006L155.141 152.945C155.048 152.817 154.957 152.721 154.87 152.656L154.721 152.543V152.823C154.721 152.91 154.721 152.977 154.721 153.024L154.695 153.593C154.666 154.573 154.64 155.305 154.616 155.79C154.611 155.924 154.572 156.061 154.502 156.201C154.415 156.376 154.292 156.467 154.135 156.472C153.984 156.484 153.858 156.405 153.759 156.236C153.666 156.096 153.613 155.959 153.601 155.825C153.385 154.039 153.338 152.458 153.461 151.081C153.468 150.959 153.499 150.831 153.557 150.696C153.651 150.456 153.806 150.299 154.021 150.223C154.103 150.2 154.182 150.188 154.257 150.188C154.397 150.188 154.532 150.227 154.66 150.302C154.847 150.407 155.004 150.542 155.132 150.705C155.331 150.955 155.62 151.335 155.999 151.842C156.226 152.145 156.387 152.356 156.48 152.473C156.672 152.73 156.953 153.097 157.32 153.575L157.749 154.127L157.976 154.039L157.985 153.882C157.992 153.794 157.997 153.724 158.003 153.672C158.009 153.491 158.015 153.222 158.02 152.866C158.05 151.962 158.073 151.288 158.09 150.845C158.108 150.588 158.163 150.337 158.256 150.092C158.321 149.935 158.42 149.815 158.554 149.733C158.694 149.651 158.846 149.619 159.009 149.637C159.161 149.654 159.292 149.719 159.403 149.83C159.52 149.94 159.593 150.078 159.621 150.241Z" fill="white"/>
<path d="M168.295 150.74C168.598 151.037 168.832 151.387 168.995 151.79C169.165 152.193 169.249 152.616 169.249 153.059C169.249 154.01 168.873 154.762 168.12 155.317C167.157 156.023 166.102 156.402 164.952 156.455C164.684 156.467 164.422 156.397 164.165 156.245C164.002 156.157 163.899 156.026 163.858 155.851C163.8 155.646 163.838 155.434 163.972 155.212C164.083 155.032 164.142 154.841 164.147 154.643C164.159 154.153 164.17 153.415 164.182 152.429C164.194 151.781 164.203 151.277 164.208 150.915C164.214 150.652 164.252 150.472 164.322 150.372C164.398 150.267 164.559 150.176 164.804 150.101C164.979 150.043 165.25 149.975 165.617 149.9C165.74 149.877 165.833 149.856 165.897 149.838L165.906 149.891H165.985C166.282 149.879 166.568 149.905 166.842 149.97C167.122 150.028 167.385 150.124 167.63 150.258C167.875 150.386 168.097 150.547 168.295 150.74ZM167.017 153.969C167.222 153.847 167.38 153.68 167.49 153.47C167.607 153.255 167.662 153.024 167.656 152.779C167.656 152.522 167.595 152.286 167.473 152.07C167.35 151.855 167.184 151.682 166.974 151.554C166.863 151.489 166.732 151.434 166.58 151.387C166.434 151.34 166.312 151.309 166.212 151.291C166.113 151.274 165.976 151.256 165.801 151.239C165.673 151.221 165.588 151.209 165.547 151.204L165.434 151.186L165.6 154.713L165.731 154.643C165.836 154.591 165.982 154.517 166.169 154.424C166.559 154.237 166.842 154.086 167.017 153.969Z" fill="white"/>
<path d="M185.114 154.407C185.137 154.559 185.155 154.678 185.167 154.765C185.155 154.853 185.141 154.979 185.123 155.142C185.076 155.48 185.032 155.731 184.992 155.894C184.915 156.18 184.787 156.358 184.607 156.428C184.425 156.51 184.198 156.472 183.924 156.315C183.883 156.292 183.828 156.28 183.758 156.28C183.693 156.28 183.627 156.292 183.557 156.315C183.072 156.478 182.489 156.504 181.807 156.393C181.112 156.276 180.534 155.891 180.074 155.238C179.822 154.883 179.642 154.494 179.531 154.074C179.42 153.649 179.397 153.257 179.461 152.901C179.554 152.394 179.747 151.927 180.039 151.501C180.336 151.075 180.715 150.717 181.177 150.425C181.602 150.15 182.048 149.966 182.515 149.873C182.988 149.774 183.417 149.777 183.802 149.882C184.233 150.004 184.53 150.194 184.694 150.451C184.77 150.579 184.799 150.722 184.782 150.88C184.775 150.955 184.747 151.011 184.694 151.046C184.63 151.086 184.554 151.09 184.467 151.055C183.515 150.705 182.6 150.876 181.719 151.571C181.222 151.968 180.937 152.49 180.862 153.138C180.779 153.815 181.042 154.366 181.649 154.792C182.25 155.206 182.915 155.285 183.644 155.028C183.854 154.958 183.951 154.821 183.933 154.617V154.59C183.933 154.555 183.935 154.497 183.942 154.415C183.959 154.188 183.939 154.034 183.881 153.952C183.828 153.876 183.69 153.829 183.469 153.812C183.375 153.806 183.312 153.799 183.277 153.794L183.207 153.785C183.095 153.762 183.014 153.742 182.962 153.724C182.804 153.654 182.722 153.54 182.717 153.383C182.71 153.26 182.763 153.167 182.874 153.103C183.399 152.788 183.947 152.718 184.519 152.893C184.752 152.957 184.901 153.152 184.966 153.479C185.006 153.684 185.055 153.992 185.114 154.407Z" fill="white"/>
<path d="M194.098 154.697C194.523 154.93 194.675 155.227 194.553 155.589C194.523 155.682 194.477 155.768 194.413 155.843C194.348 155.919 194.276 155.978 194.194 156.018C194.112 156.059 194.022 156.088 193.923 156.106C193.823 156.118 193.725 156.109 193.625 156.08C193.433 156.027 193.156 155.896 192.794 155.686C192.549 155.54 192.19 155.324 191.717 155.038C191.443 154.868 191.259 154.755 191.166 154.697C191.126 154.674 191.064 154.641 190.982 154.6C190.935 154.583 190.895 154.562 190.86 154.539L190.728 154.478L190.685 154.986C190.65 155.324 190.623 155.569 190.606 155.721C190.576 155.936 190.506 156.103 190.396 156.22C190.285 156.337 190.145 156.391 189.976 156.386C189.806 156.38 189.666 156.316 189.556 156.193C189.451 156.071 189.39 155.905 189.372 155.694C189.255 154.137 189.372 152.439 189.722 150.601C189.769 150.35 189.857 150.186 189.985 150.11C190.049 150.075 190.125 150.058 190.212 150.058C190.317 150.058 190.44 150.081 190.58 150.128C190.673 150.163 190.784 150.154 190.912 150.102C191.542 149.857 192.225 149.822 192.96 149.997C193.345 150.084 193.657 150.254 193.896 150.504C194.142 150.755 194.305 151.079 194.387 151.476C194.544 152.206 194.305 152.818 193.669 153.314C193.569 153.384 193.403 153.492 193.17 153.638C193.053 153.708 192.963 153.763 192.899 153.804L192.768 153.883L192.899 153.961C192.986 154.014 193.112 154.093 193.275 154.198C193.637 154.431 193.911 154.597 194.098 154.697ZM190.912 152.684C191.635 152.584 192.263 152.351 192.794 151.983C192.974 151.855 193.053 151.703 193.03 151.528C193.007 151.365 192.902 151.252 192.715 151.187C192.132 150.994 191.616 151.05 191.166 151.353C191.049 151.429 190.965 151.523 190.912 151.633C190.86 151.744 190.828 151.84 190.816 151.922C190.811 151.998 190.811 152.106 190.816 152.246C190.816 152.398 190.813 152.509 190.807 152.579L190.79 152.701L190.912 152.684Z" fill="white"/>
<path d="M202.147 149.987C202.567 150.087 202.926 150.203 203.223 150.337C203.528 150.472 203.808 150.652 204.064 150.88C204.321 151.102 204.519 151.388 204.659 151.738C204.799 152.088 204.881 152.502 204.904 152.981C204.834 153.763 204.609 154.384 204.23 154.845C204.137 154.95 203.991 155.116 203.792 155.344L203.626 155.545C203.066 156.198 202.334 156.47 201.429 156.359C201.348 156.354 201.219 156.333 201.044 156.298L201.009 156.289C200.169 156.114 199.551 155.676 199.154 154.976C198.933 154.591 198.799 154.159 198.751 153.681C198.711 153.203 198.764 152.753 198.909 152.333C199.388 150.962 200.295 150.189 201.631 150.013L201.727 149.996C201.849 149.978 201.944 149.97 202.007 149.97C202.06 149.97 202.107 149.975 202.147 149.987ZM203.32 153.121L203.328 153.094V153.068C203.288 152.753 203.204 152.511 203.075 152.342C202.952 152.167 202.754 152.023 202.48 151.913C202.229 151.808 202.01 151.708 201.823 151.615C201.573 151.487 201.357 151.446 201.176 151.493C200.995 151.533 200.826 151.668 200.668 151.895C200.202 152.601 200.088 153.287 200.327 153.952C200.409 154.174 200.537 154.36 200.712 154.512C200.893 154.664 201.1 154.763 201.333 154.81C201.415 154.827 201.499 154.836 201.587 154.836C201.961 154.836 202.27 154.696 202.515 154.416C202.544 154.386 202.585 154.346 202.637 154.293C202.777 154.148 202.873 154.031 202.926 153.943C202.996 153.821 203.09 153.628 203.206 153.366C203.253 153.261 203.291 153.179 203.32 153.121Z" fill="white"/>
<path d="M215.848 149.716C216.029 149.728 216.181 149.8 216.303 149.935C216.426 150.063 216.496 150.232 216.513 150.443C216.524 150.595 216.51 150.746 216.47 150.898C216.043 152.584 215.699 153.917 215.437 154.898C215.337 155.26 215.218 155.589 215.078 155.887C214.879 156.289 214.579 156.476 214.177 156.447C213.762 156.417 213.496 156.187 213.38 155.755C213.304 155.487 213.211 155.078 213.1 154.53C213.048 154.285 213.01 154.104 212.987 153.987C212.975 153.947 212.96 153.879 212.943 153.786L212.847 153.375L212.505 154.197C212.271 154.752 212.099 155.155 211.989 155.405C211.877 155.656 211.764 155.872 211.648 156.053C211.438 156.385 211.16 156.534 210.816 156.499C210.449 156.464 210.212 156.266 210.107 155.904C209.897 155.198 209.733 154.539 209.617 153.926C209.523 153.413 209.392 152.634 209.223 151.589C209.164 151.199 209.127 150.962 209.11 150.88C209.075 150.658 209.059 150.481 209.066 150.346C209.071 150.212 209.11 150.104 209.18 150.022C209.25 149.935 209.339 149.879 209.451 149.856C209.479 149.856 209.506 149.856 209.53 149.856C209.728 149.856 209.871 149.964 209.959 150.18C210.221 150.875 210.402 151.4 210.501 151.755C210.577 152.03 210.673 152.447 210.79 153.007C210.836 153.264 210.874 153.448 210.904 153.558C210.909 153.605 210.921 153.66 210.939 153.725L211.035 154.127L211.149 153.873C211.166 153.833 211.186 153.789 211.21 153.742C211.25 153.655 211.277 153.59 211.289 153.55C211.499 152.89 211.764 152.044 212.085 151.011C212.096 150.964 212.114 150.898 212.138 150.81C212.173 150.676 212.201 150.577 212.225 150.513C212.295 150.332 212.394 150.194 212.523 150.101C212.651 150.002 212.794 149.956 212.952 149.961C213.284 149.979 213.505 150.177 213.617 150.556C213.687 150.801 213.762 151.248 213.844 151.895C213.873 152.111 213.893 152.263 213.905 152.351C213.998 152.963 214.077 153.371 214.142 153.576L214.238 153.891L214.325 153.576C214.383 153.36 214.476 152.87 214.606 152.105C214.686 151.627 214.748 151.295 214.789 151.108C214.8 151.05 214.821 150.968 214.851 150.863C214.944 150.472 215.028 150.227 215.104 150.127C215.325 149.842 215.574 149.704 215.848 149.716Z" fill="white"/>
<path d="M233.467 149.716C233.648 149.728 233.8 149.8 233.922 149.935C234.045 150.063 234.115 150.232 234.132 150.443C234.144 150.595 234.129 150.746 234.088 150.898C233.663 152.584 233.318 153.917 233.056 154.898C232.956 155.26 232.837 155.589 232.697 155.887C232.499 156.289 232.198 156.476 231.796 156.447C231.381 156.417 231.116 156.187 230.999 155.755C230.924 155.487 230.83 155.078 230.719 154.53C230.667 154.285 230.628 154.104 230.605 153.987C230.593 153.947 230.579 153.879 230.562 153.786L230.465 153.375L230.124 154.197C229.891 154.752 229.718 155.155 229.608 155.405C229.497 155.656 229.383 155.872 229.266 156.053C229.056 156.385 228.78 156.534 228.435 156.499C228.067 156.464 227.831 156.266 227.726 155.904C227.516 155.198 227.353 154.539 227.236 153.926C227.143 153.413 227.012 152.634 226.842 151.589C226.784 151.199 226.746 150.962 226.729 150.88C226.693 150.658 226.679 150.481 226.685 150.346C226.69 150.212 226.728 150.104 226.799 150.022C226.869 149.935 226.959 149.879 227.07 149.856C227.099 149.856 227.126 149.856 227.149 149.856C227.347 149.856 227.49 149.964 227.577 150.18C227.84 150.875 228.02 151.4 228.12 151.755C228.195 152.03 228.292 152.447 228.409 153.007C228.456 153.264 228.493 153.448 228.523 153.558C228.528 153.605 228.54 153.66 228.558 153.725L228.654 154.127L228.768 153.873C228.785 153.833 228.806 153.789 228.829 153.742C228.869 153.655 228.896 153.59 228.908 153.55C229.118 152.89 229.383 152.044 229.704 151.011C229.716 150.964 229.733 150.898 229.756 150.81C229.791 150.676 229.821 150.577 229.844 150.513C229.914 150.332 230.014 150.194 230.142 150.101C230.27 150.002 230.413 149.956 230.57 149.961C230.903 149.979 231.125 150.177 231.235 150.556C231.305 150.801 231.381 151.248 231.463 151.895C231.493 152.111 231.512 152.263 231.524 152.351C231.617 152.963 231.696 153.371 231.761 153.576L231.857 153.891L231.944 153.576C232.002 153.36 232.096 152.87 232.224 152.105C232.306 151.627 232.368 151.295 232.408 151.108C232.42 151.05 232.44 150.968 232.469 150.863C232.562 150.472 232.648 150.227 232.723 150.127C232.945 149.842 233.192 149.704 233.467 149.716Z" fill="white"/>
<path d="M240.048 151.317C240.06 151.557 240.066 151.811 240.066 152.079C240.066 152.341 240.06 152.581 240.048 152.796C240.043 153.006 240.027 153.263 240.004 153.567C239.981 153.864 239.957 154.1 239.934 154.275C239.917 154.445 239.891 154.69 239.856 155.011L239.803 155.536C239.786 155.658 239.739 155.79 239.663 155.93C239.523 156.169 239.336 156.289 239.103 156.289C238.887 156.289 238.718 156.178 238.595 155.956C238.443 155.681 238.359 155.375 238.342 155.037C238.319 154.734 238.312 154.272 238.324 153.654C238.324 153.386 238.324 153.193 238.324 153.076V152.98H238.289C238.289 152.933 238.295 152.791 238.307 152.551C238.336 151.968 238.362 151.53 238.385 151.238C238.408 150.964 238.459 150.71 238.534 150.477C238.592 150.319 238.683 150.197 238.805 150.109C238.933 150.016 239.077 149.973 239.234 149.978C239.579 149.995 239.8 150.165 239.899 150.486C239.975 150.725 240.025 151.002 240.048 151.317Z" fill="white"/>
<path d="M248.871 150.066C249.058 150.118 249.204 150.215 249.309 150.355C249.414 150.489 249.459 150.64 249.441 150.81C249.429 150.927 249.391 151.032 249.327 151.125C249.268 151.218 249.189 151.295 249.09 151.353C248.991 151.405 248.878 151.437 248.749 151.449C248.626 151.461 248.44 151.463 248.188 151.458C248.073 151.458 247.982 151.458 247.917 151.458H247.113L247.13 151.563C247.147 151.68 247.177 151.892 247.217 152.202C247.299 152.814 247.357 153.266 247.392 153.558C247.469 154.211 247.515 154.757 247.532 155.195C247.539 155.405 247.498 155.627 247.411 155.86C247.294 156.152 247.075 156.301 246.754 156.306C246.427 156.301 246.208 156.154 246.098 155.869C245.993 155.589 245.94 155.312 245.94 155.037C245.94 154.53 245.951 153.765 245.974 152.744C245.981 152.336 245.986 152.03 245.993 151.825C245.993 151.802 245.99 151.761 245.983 151.703L245.974 151.554L245.686 151.528C245.435 151.505 245.237 151.484 245.092 151.466C244.969 151.449 244.875 151.435 244.81 151.423C244.63 151.382 244.49 151.312 244.39 151.213C244.292 151.113 244.239 150.99 244.233 150.845C244.222 150.535 244.408 150.325 244.793 150.215H244.82C244.838 150.203 244.849 150.197 244.854 150.197C245.106 150.18 245.477 150.145 245.967 150.092C246.765 150.005 247.364 149.961 247.76 149.961C248.081 149.961 248.381 149.982 248.661 150.022C248.738 150.034 248.808 150.048 248.871 150.066Z" fill="white"/>
<path d="M259.312 155.711C259.324 155.956 259.307 156.175 259.26 156.367C259.195 156.635 259.027 156.787 258.752 156.822C258.478 156.857 258.277 156.752 258.149 156.507C258.031 156.285 257.965 156.07 257.947 155.86C257.924 155.574 257.903 155.136 257.886 154.547C257.881 154.354 257.874 154.197 257.869 154.074C257.869 154.022 257.869 153.946 257.869 153.847V153.637H254.885V153.855C254.885 153.955 254.885 154.027 254.885 154.074V154.687C254.89 155.235 254.893 155.592 254.893 155.755V155.781C254.899 155.933 254.897 156.047 254.885 156.122C254.872 156.245 254.844 156.35 254.797 156.437C254.757 156.525 254.697 156.591 254.622 156.639C254.552 156.691 254.47 156.717 254.377 156.717C254.377 156.717 254.374 156.717 254.368 156.717C254.223 156.717 254.1 156.665 254.001 156.56C253.908 156.455 253.855 156.318 253.843 156.148C253.738 154.428 253.656 152.916 253.598 151.615C253.593 151.393 253.633 151.067 253.721 150.635C253.75 150.483 253.814 150.363 253.913 150.276C254.013 150.188 254.129 150.15 254.263 150.162C254.391 150.168 254.496 150.218 254.578 150.311C254.666 150.398 254.722 150.521 254.744 150.678C254.767 150.894 254.794 151.221 254.823 151.659C254.835 151.834 254.844 151.974 254.85 152.079L254.876 152.455H257.86L257.877 151.991C257.9 151.629 257.918 151.361 257.93 151.186C257.947 150.859 257.968 150.612 257.991 150.442C258.014 150.32 258.056 150.203 258.114 150.092C258.213 149.905 258.362 149.824 258.56 149.847C258.764 149.87 258.889 149.975 258.936 150.162C258.994 150.384 259.029 150.626 259.041 150.889C259.146 152.639 259.237 154.246 259.312 155.711Z" fill="white"/>
<path d="M274.846 150.364C274.94 150.597 274.977 150.787 274.96 150.932C274.809 152.117 274.657 153.173 274.505 154.101C274.464 154.323 274.354 154.621 274.172 154.994C274.027 155.297 273.834 155.554 273.595 155.764C273.356 155.968 273.087 156.114 272.789 156.201C272.166 156.382 271.553 156.286 270.952 155.913C270.041 155.347 269.56 154.498 269.508 153.366C269.502 153.255 269.502 153.091 269.508 152.876C269.508 152.776 269.508 152.7 269.508 152.648V152.552H269.473L269.499 152.245C269.546 151.685 269.584 151.253 269.613 150.95C269.619 150.868 269.639 150.772 269.674 150.661C269.761 150.399 269.928 150.259 270.173 150.241C270.29 150.236 270.395 150.271 270.488 150.346C270.587 150.416 270.654 150.516 270.689 150.644C270.754 150.848 270.801 151.099 270.829 151.396C270.853 151.653 270.888 152.049 270.934 152.587C270.964 152.949 270.987 153.203 271.004 153.348C271.057 153.92 271.308 154.355 271.757 154.652C272.049 154.845 272.315 154.897 272.553 154.81C272.77 154.728 272.918 154.544 272.999 154.258C273.111 153.873 273.225 153.284 273.341 152.49L273.367 152.35C273.391 152.175 273.417 151.916 273.446 151.571C273.47 151.279 273.49 151.06 273.507 150.915C273.537 150.693 273.598 150.492 273.691 150.311C273.813 150.078 274.015 149.97 274.295 149.987C274.564 149.999 274.748 150.124 274.846 150.364Z" fill="white"/>
<path d="M283.486 154.398C283.591 154.812 283.559 155.182 283.39 155.509C283.221 155.836 282.943 156.064 282.558 156.192C282.127 156.344 281.608 156.431 281.001 156.454C280.552 156.472 280.138 156.271 279.758 155.851C279.618 155.693 279.531 155.523 279.496 155.343C279.467 155.162 279.496 154.998 279.583 154.853C279.723 154.608 279.954 154.485 280.274 154.485C280.362 154.485 280.449 154.494 280.537 154.511C280.584 154.524 280.659 154.543 280.764 154.573C280.869 154.602 280.951 154.625 281.009 154.643C281.069 154.655 281.144 154.669 281.237 154.687C281.331 154.699 281.419 154.701 281.499 154.695C281.587 154.69 281.675 154.675 281.762 154.652L282.051 154.564L282.007 154.468C281.961 154.351 281.893 154.252 281.806 154.17C281.718 154.088 281.631 154.03 281.543 153.995C281.462 153.955 281.363 153.913 281.246 153.873C280.645 153.692 280.103 153.356 279.618 152.866C279.263 152.504 279.096 152.099 279.119 151.65C279.143 151.207 279.345 150.83 279.723 150.521C280.447 149.926 281.266 149.736 282.182 149.952C282.591 150.045 282.894 150.253 283.092 150.573C283.169 150.708 283.212 150.853 283.223 151.011C283.23 151.156 283.197 151.253 283.127 151.3C283.057 151.352 282.95 151.349 282.803 151.291C282.261 151.069 281.783 151.005 281.368 151.098C281.17 151.145 280.925 151.25 280.633 151.413C280.511 151.483 280.449 151.574 280.449 151.685C280.449 151.795 280.508 151.889 280.624 151.965L280.817 152.078C281.237 152.336 281.561 152.507 281.788 152.595C282.722 152.968 283.288 153.57 283.486 154.398Z" fill="white"/>
<path d="M225.504 57.4945C222.961 58.66 223.173 64.4404 223.597 67.1849C223.849 71.1751 225.123 72.9485 225.695 73.5186C227.475 74.5319 229.574 73.1385 229.51 73.0751C230.718 71.6818 231.608 67.6916 231.608 67.6282C232.498 63.7648 231.354 60.1547 231.354 60.0913C229.421 55.9365 226.649 56.6289 225.504 57.4945Z" fill="#F3D8C7"/>
<path d="M243.5 76.3678C240.829 75.6712 237.29 74.679 236.824 74.7846L238.35 64.4614C239.163 64.4614 239.939 65.0525 240.257 65.3481C240.617 65.7914 241.415 66.6781 241.465 66.6781C242.673 68.1347 244.835 66.4881 244.835 66.4881C248.268 65.0315 249.476 67.8814 249.476 67.9448C250.289 70.0221 249.264 72.6946 248.649 73.7712C246.614 76.6085 244.368 76.6845 243.5 76.3678Z" fill="#E4A860"/>
<path d="M241.529 68.1972C241.072 67.7922 241.402 67.248 241.783 67.248C242.545 67.3113 242.545 67.8176 242.419 68.0075C242.215 68.4631 241.741 68.3238 241.529 68.1972Z" fill="#C06425"/>
<path d="M239.748 66.8031C238.934 66.1449 239.131 65.4346 239.621 64.8413C240.372 65.2779 241.617 66.8827 241.653 66.868C241.653 66.8675 241.653 66.8669 241.654 66.8663C241.654 66.8673 241.653 66.8678 241.653 66.868C241.27 67.6882 240.193 67.1403 239.748 66.8031Z" fill="#C06425"/>
<path d="M245.342 67.5013C243.207 68.6159 242.291 71.2165 242.1 72.3775C241.439 75.5185 243.689 76.3883 244.897 76.4305C246.423 76.2278 247.652 74.8262 248.076 74.1508C249.475 71.8709 249.22 69.8444 249.22 69.7811C248.915 66.6907 246.508 66.9736 245.342 67.5013Z" fill="#F3D8C7"/>
<path d="M212.072 76.2408C214.743 75.5441 218.282 74.552 218.748 74.6575L217.222 64.3345C216.409 64.3345 215.633 64.9256 215.315 65.2211C214.955 65.6643 214.158 66.551 214.107 66.551C212.899 68.0077 210.738 66.361 210.738 66.361C207.305 64.9044 206.096 67.7543 206.096 67.8177C205.283 69.895 206.308 72.5675 206.923 73.6443C208.958 76.4815 211.204 76.5575 212.072 76.2408Z" fill="#E4A860"/>
<path d="M214.044 68.0704C214.501 67.6654 214.171 67.1211 213.79 67.1211C213.028 67.1844 213.028 67.6906 213.155 67.8805C213.358 68.3361 213.832 68.1969 214.044 68.0704Z" fill="#C06425"/>
<path d="M215.822 66.6766C216.636 66.0184 216.439 65.3081 215.949 64.7148C215.198 65.1515 213.953 66.7562 213.917 66.7416C213.917 66.741 213.917 66.7405 213.916 66.7399C213.916 66.7408 213.917 66.7414 213.917 66.7416C214.3 67.5619 215.378 67.0139 215.822 66.6766Z" fill="#C06425"/>
<path d="M210.23 67.3753C212.366 68.4899 213.281 71.0905 213.473 72.2515C214.133 75.3926 211.883 76.2623 210.675 76.3045C209.149 76.1019 207.92 74.7003 207.496 74.0248C206.097 71.745 206.352 69.7185 206.352 69.6552C206.657 66.5648 209.064 66.8476 210.23 67.3753Z" fill="#F3D8C7"/>
<path d="M222.391 47.1069C223.51 44.6241 223.239 42.5256 222.963 41.7866C226.036 42.1667 232.182 42.9393 232.182 42.9901C231.928 44.2061 232.288 45.6924 232.5 46.2835L233.136 48.1203L234.599 51.6037L236.569 55.9739C237.281 57.3927 238.222 61.463 238.604 63.3209C238.923 64.0809 238.541 68.6412 238.604 68.6412C238.668 70.0345 237.778 73.898 237.778 73.7713C237.269 75.2914 235.997 76.8114 235.807 76.7481C234.789 77.4575 233.348 77.3392 232.755 77.1915L230.593 76.1781C229.271 75.4688 229.151 74.0669 229.257 73.4547C229.105 72.8972 229.872 71.4912 230.275 70.8579C231.038 69.4645 231.292 66.9943 231.292 67.0577C231.546 64.0176 231.038 60.9141 231.038 60.9775C230.338 57.3673 227.159 57.3673 227.096 57.4307C224.196 57.3293 223.642 61.5263 223.726 63.6376C223.535 65.601 224.235 68.3878 224.235 68.4511C224.298 68.7044 225.888 73.3913 225.888 73.4547C226.078 74.9747 224.934 75.6714 224.998 75.7347C223.574 77.2549 221.183 77.3392 220.166 77.1915C219.148 76.9381 218.639 76.2836 218.513 75.9881L217.558 73.708C217.177 73.0112 216.541 69.3378 216.541 69.2745C216.224 67.6911 216.414 64.5876 216.414 64.6509C216.262 61.8642 218.088 57.1984 219.021 55.2139C220.166 52.5116 222.441 47.1069 222.391 47.1069Z" fill="#F9AC5C"/>
<path d="M225.188 71.1118C222.085 71.1118 218.66 72.7794 217.432 73.5816C217.749 75.2914 218.83 76.6213 219.021 76.7479C220.038 77.6345 221.522 77.4234 222.264 77.2545C224.247 76.9506 225.421 75.6713 225.696 75.1014C226.586 73.6448 225.251 71.1118 225.188 71.1118Z" fill="#C06425"/>
<path d="M237.775 73.8979C235.543 71.7514 233.452 70.6048 230.205 70.7985C229.242 72.2485 229.08 73.2948 229.129 73.518C229.129 75.9244 230.845 76.5577 231.544 76.9376C232.498 77.3175 234.509 77.537 235.105 77.3175C236.76 76.8855 237.82 73.9419 237.775 73.8979Z" fill="#C06425"/>
<path d="M225.632 48.3094C224.208 47.6511 225.441 46.3471 226.013 46.0305C226.141 45.9673 227.601 46.1571 227.728 46.0938C228.797 45.7393 229.021 46.4104 229 46.7902C228.847 48.2587 228.385 48.7103 228.173 48.7525C227.258 49.107 226.098 48.6048 225.632 48.3094Z" fill="#C06425"/>
<path d="M232.943 55.4011C231.875 54.4899 231.82 53.1652 231.926 52.6167C232.943 50.7182 233.768 52.6167 233.705 52.6167C233.705 53.7558 234.468 54.4519 234.531 54.5152C235.141 55.2746 234.912 55.591 234.722 55.6543C233.768 55.7176 233.006 55.4644 232.943 55.4011Z" fill="#C06425"/>
<path d="M219.083 70.9845C218.22 70.6301 217.749 71.2166 217.622 71.554C217.425 71.8578 217.625 72.0603 217.75 72.1236C218.054 72.326 218.596 72.2079 218.829 72.1236C219.909 71.4907 219.02 70.9212 219.083 70.9845Z" fill="#C06425"/>
<path d="M233.069 69.4012C232.205 69.0468 231.417 69.5067 231.29 69.8443C231.092 70.148 231.356 70.3505 231.48 70.4138C231.785 70.6163 232.646 70.5614 232.878 70.477C233.958 69.8442 233.005 69.3379 233.069 69.4012Z" fill="#C06425"/>
<path d="M237.71 67.3116C236.501 66.6806 235.4 67.6279 235.269 67.8848C235.043 68.3284 235.44 68.7177 235.615 68.8304C236.041 69.1909 237.012 69.3998 237.393 69.2101C238.905 68.0834 237.622 67.1989 237.71 67.3116Z" fill="#C06425"/>
<path d="M236.624 63.1097C236.399 61.7214 234.855 61.5848 234.543 61.6752C234.006 61.8313 233.92 62.4222 233.933 62.6383C233.891 63.2305 234.09 63.889 234.745 64.2738C236.714 64.5908 236.665 62.9585 236.624 63.1097Z" fill="#C06425"/>
<path d="M229.736 54.4449C228.354 54.1585 227.675 55.547 227.649 55.8685C227.603 56.4239 227.904 56.6045 228.112 56.6693C228.175 56.7326 229.318 56.6693 229.7 56.2263C230.462 54.8974 229.827 54.4544 229.736 54.4449Z" fill="#C06425"/>
<path d="M220.99 55.5289C220.482 54.9719 221.668 53.862 222.326 53.3766C222.719 53.0602 222.643 52.6171 222.643 52.5538C222.643 51.4144 223.978 51.6675 223.914 51.6675C225.185 52.3765 225.164 53.3134 224.995 53.6932C224.423 54.8959 222.898 55.2757 222.898 55.339C220.99 55.9087 220.927 55.5289 220.99 55.5289Z" fill="#C06425"/>
<path d="M236.123 71.1755C235.869 71.0489 235.371 71.1615 235.297 71.4285C235.182 71.6689 235.415 71.8216 235.487 71.8717C235.665 72.0319 236.123 71.9348 236.187 71.8717C236.567 71.4285 236.086 71.1254 236.123 71.1755Z" fill="#C06425"/>
<path d="M235.996 59.0143C235.534 58.0772 236.064 56.6254 236.759 56.291C237.264 57.0115 237.774 59.5207 237.774 59.5207C237.082 60.1083 236.257 59.5064 235.996 59.0143Z" fill="#C06425"/>
<path d="M219.029 59.3549C219.565 58.4583 219.046 56.9334 218.382 56.5439C217.819 57.2212 217.215 59.7154 217.215 59.7154C217.857 60.3573 218.728 59.8241 219.029 59.3549Z" fill="#C06425"/>
<path d="M222.58 70.668L222.135 71.111C221.475 71.5667 221.437 71.0056 221.5 70.668C221.564 70.0985 222.135 70.0352 222.135 70.0352C223.102 70.0352 222.835 70.4571 222.58 70.668Z" fill="#C06425"/>
<path d="M219.169 66.3934H220.545C221.497 66.1064 221.27 65.0727 220.667 64.716C219.712 64.046 218.32 65.4735 218.32 65.4735C217.241 66.5495 219.169 66.3934 219.169 66.3934Z" fill="#C06425"/>
<path d="M214.57 24.8766C213.603 28.0181 213.828 31.0413 214.061 32.1602C222.538 33.3003 239.52 35.5678 239.621 35.5171C240.689 33.9463 240.745 29.5002 240.639 27.4734C240.702 24.7499 239.049 19.9364 239.049 19.8731C241.083 19.6704 242.44 19.1553 242.864 18.9231C245.763 17.6563 245.343 15.3552 244.771 14.3628C243.652 12.3868 241.381 12.9906 240.384 13.5395C239.366 13.8435 237.756 15.524 237.078 16.3263C236.772 15.8196 235.849 14.9751 235.424 14.6162L238.285 4.98915L237.713 4.48246C236.018 7.31147 232.615 12.9695 232.563 12.9695C230.326 11.6014 226.799 11.8084 225.315 12.0828L222.009 2.9624L221.373 3.15241C221.606 6.53032 222.085 13.2861 222.136 13.2861C221.627 13.3368 220.652 13.9829 220.229 14.2995C219.059 11.8675 217.452 10.5838 216.796 10.246C215.168 9.33398 213.743 10.2038 213.234 10.7527C211.963 11.766 212.345 13.5394 212.345 13.4762C212.447 14.1855 213.404 15.1229 213.871 15.5029C214.887 16.4655 216.329 17.0019 216.922 17.1497C217.685 17.251 217.537 17.783 217.368 18.0363L216.223 20.1264C215.333 21.5831 214.57 24.94 214.57 24.8766Z" fill="#F9AC5C"/>
<path d="M226.394 16.5137C225.479 15.9059 226.012 15.3743 226.394 15.1844C226.521 14.7413 226.267 14.3614 226.267 14.2981C225.606 13.8423 226.161 13.3486 226.521 13.1587C228.3 12.2978 229.593 13.2642 230.017 13.855C230.461 15.1844 229.19 16.1339 229.19 16.1339C227.728 17.7164 226.394 16.4504 226.394 16.5137Z" fill="#C06425"/>
<path d="M237.844 21.2314C237.239 21.1422 236.457 20.4354 236.141 20.0931C235.203 18.9771 236.709 19.2895 236.75 19.3381C237.772 19.6079 238.436 20.49 238.64 20.8973C238.707 21.6669 237.885 21.28 237.844 21.2314Z" fill="#89432A"/>
<path d="M221.088 17.9194C220.62 18.3122 219.57 18.4283 219.103 18.4372C217.643 18.399 218.875 17.4816 218.938 17.4833C219.818 16.8986 220.921 16.9866 221.363 17.1036C221.986 17.563 221.151 17.921 221.088 17.9194Z" fill="#89432A"/>
<path d="M224.106 18.9211C223.534 18.4782 223.661 17.6765 223.788 17.1492C224.106 16.5798 225.567 16.8961 225.758 17.1492C226.393 17.8453 226.139 18.9211 226.075 18.9211C225.376 19.8071 224.106 18.9211 224.106 18.9211Z" fill="#C06425"/>
<path d="M231.101 19.554C229.829 19.2502 230.57 18.3305 231.101 17.9087C231.608 17.1493 233.133 18.4149 233.069 18.4149C233.933 19.1237 233.175 19.4696 232.688 19.554H231.101Z" fill="#C06425"/>
<path d="M223.214 2.39019C223.214 3.43869 222.362 4.28867 221.309 4.28867C220.256 4.28867 219.402 3.43869 219.402 2.39019C219.402 1.34168 220.256 0.491699 221.309 0.491699C222.362 0.491699 223.214 1.34168 223.214 2.39019Z" fill="#C06425"/>
<path d="M240.126 4.03716C240.126 5.08567 239.273 5.93565 238.22 5.93565C237.167 5.93565 236.314 5.08567 236.314 4.03716C236.314 2.98865 237.167 2.13867 238.22 2.13867C239.273 2.13867 240.126 2.98865 240.126 4.03716Z" fill="#C06425"/>
<path d="M219.4 14.9955C218.893 15.2489 218.256 16.1565 218.002 16.5788C216.273 15.9708 215.205 15.1011 214.887 14.7423C213.489 13.3491 214.378 12.3992 214.315 12.3992C214.95 11.006 217.048 12.2092 216.985 12.2092C218.129 12.6524 219.465 14.9955 219.4 14.9955Z" fill="#F3D8C7"/>
<path d="M237.83 17.1004C238.266 17.4641 238.673 18.4937 238.823 18.963C240.646 18.7703 241.887 18.1705 242.28 17.8947C243.964 16.8618 243.319 15.7324 243.381 15.7471C243.086 14.2451 240.766 14.932 240.827 14.9467C239.612 15.1141 237.768 17.0857 237.83 17.1004Z" fill="#F3D8C7"/>
<path d="M224.107 25.0661C224.107 26.7448 223.054 28.1058 221.755 28.1058C220.456 28.1058 219.402 26.7448 219.402 25.0661C219.402 23.3872 220.456 22.0264 221.755 22.0264C223.054 22.0264 224.107 23.3872 224.107 25.0661Z" fill="#85633C"/>
<path d="M224.106 25.2555C224.106 26.8294 223.11 28.1052 221.881 28.1052C220.653 28.1052 219.656 26.8294 219.656 25.2555C219.656 23.6816 220.653 22.4058 221.881 22.4058C223.11 22.4058 224.106 23.6816 224.106 25.2555Z" fill="#FDF7F7"/>
<path d="M224.232 25.4458C224.232 26.9147 223.294 28.1056 222.134 28.1056C220.976 28.1056 220.037 26.9147 220.037 25.4458C220.037 23.9769 220.976 22.7861 222.134 22.7861C223.294 22.7861 224.232 23.9769 224.232 25.4458Z" fill="#36231D"/>
<path d="M222.07 24.433C222.07 24.7126 221.871 24.9392 221.625 24.9392C221.381 24.9392 221.182 24.7126 221.182 24.433C221.182 24.1534 221.381 23.9268 221.625 23.9268C221.871 23.9268 222.07 24.1534 222.07 24.433Z" fill="#FDF7F7"/>
<path d="M231.609 26.4591C231.609 28.1379 232.663 29.4988 233.962 29.4988C235.261 29.4988 236.314 28.1379 236.314 26.4591C236.314 24.7803 235.261 23.4194 233.962 23.4194C232.663 23.4194 231.609 24.7803 231.609 26.4591Z" fill="#85633C"/>
<path d="M231.609 26.6495C231.609 28.2233 232.606 29.4993 233.834 29.4993C235.064 29.4993 236.059 28.2233 236.059 26.6495C236.059 25.0757 235.064 23.7998 233.834 23.7998C232.606 23.7998 231.609 25.0757 231.609 26.6495Z" fill="#FDF7F7"/>
<path d="M231.482 26.839C231.482 28.3079 232.422 29.4987 233.581 29.4987C234.739 29.4987 235.679 28.3079 235.679 26.839C235.679 25.37 234.739 24.1792 233.581 24.1792C232.422 24.1792 231.482 25.37 231.482 26.839Z" fill="#36231D"/>
<path d="M233.645 25.8257C233.645 26.1052 233.843 26.3319 234.089 26.3319C234.335 26.3319 234.534 26.1052 234.534 25.8257C234.534 25.5461 234.335 25.3193 234.089 25.3193C233.843 25.3193 233.645 25.5461 233.645 25.8257Z" fill="#FDF7F7"/>
<path d="M240.306 37.4316C239.63 41.9693 232.922 44.7368 225.325 43.6131C217.728 42.4893 212.117 37.8999 212.794 33.3623C213.47 28.8246 220.177 26.0571 227.775 27.1808C235.372 28.3046 240.982 32.894 240.306 37.4316Z" fill="#F3D8C7"/>
<path d="M223.072 30.7842C223.163 30.6443 223.15 30.4245 223.15 30.2591C223.15 29.6649 222.559 29.2466 221.753 29.2466C220.945 29.2466 220.291 29.7282 220.291 30.3224C220.291 30.3794 220.298 30.4354 220.309 30.4901C220.571 30.0577 221.155 29.7528 221.753 29.7528C222.483 29.7528 222.983 30.2394 223.072 30.7842Z" fill="#57422F"/>
<path d="M233.641 31.9057C233.74 31.7999 233.705 31.6525 233.705 31.5259C233.514 31.2095 233.171 30.7666 232.434 30.7666C232.053 30.7666 231.228 31.083 231.1 31.5259C231.101 31.5892 231.109 31.6288 231.127 31.6779C231.35 31.437 231.858 31.2728 232.371 31.2728C233.016 31.2728 233.196 31.4626 233.641 31.9057Z" fill="#57422F"/>
<path d="M235.171 36.5303C235.171 36.5303 230.956 38.8149 226.335 38.1718C221.708 37.5277 218.386 34.3135 218.004 33.8701C218.004 34.6302 221.268 38.0141 226.078 38.6837C230.883 39.3524 234.662 37.227 235.171 36.5303Z" fill="#57422F"/>
</g>
<defs>
<clipPath id="clip0_193_2117">
<rect width="324.064" height="156.634" fill="white" transform="translate(0 0.491699)"/>
</clipPath>
</defs>
</svg>
