<svg width="260" height="48" viewBox="0 0 260 48" fill="none" xmlns="http://www.w3.org/2000/svg">
<g clip-path="url(#clip0_193_2341)">
<path d="M0.0751511 7.43082C-0.111506 5.50119 1.30144 3.78559 3.23105 3.59894L36.9449 0.337724C38.8745 0.15107 40.59 1.564 40.7766 3.49363L43.935 36.1439C44.1217 38.0738 42.7087 39.7894 40.7791 39.9754L7.06533 43.2372C5.13572 43.4233 3.42015 42.0104 3.23349 40.0807L0.0751511 7.43082Z" fill="#F4962B"/>
<path d="M37.3363 11.1459C36.9843 9.23945 38.2444 7.40872 40.1508 7.05674L73.0974 0.973605C75.0039 0.621622 76.8346 1.88169 77.1866 3.78806L82.9887 35.2124C83.3406 37.1192 82.0806 38.9497 80.1742 39.3016L47.2275 45.3848C45.3212 45.7367 43.4903 44.4765 43.1384 42.5705L37.3363 11.1459Z" fill="#0F73EC"/>
<path d="M76.7963 7.05892C76.8953 5.12289 78.545 3.63352 80.4811 3.73251L114.103 5.45056C116.04 5.54946 117.529 7.19916 117.43 9.13528L115.767 41.6763C115.668 43.6121 114.019 45.1013 112.082 45.0021L78.46 43.2848C76.5239 43.1856 75.0346 41.5359 75.1336 39.6L76.7963 7.05892Z" fill="#19CBD5"/>
<path d="M109.069 10.6217C108.735 8.71205 110.012 6.89317 111.921 6.55909L145.084 0.756858C146.993 0.422689 148.812 1.69987 149.146 3.60949L154.782 35.8166C155.116 37.7264 153.838 39.5447 151.929 39.8791L118.766 45.6814C116.857 46.0157 115.038 44.738 114.704 42.8285L109.069 10.6217Z" fill="#F22E68"/>
<path d="M148.28 5.75012C148.55 3.8305 150.326 2.49338 152.246 2.76366L185.553 7.45308C187.473 7.72337 188.81 9.49872 188.539 11.4184L183.981 43.7956C183.711 45.7148 181.936 47.0521 180.016 46.7819L146.709 42.0923C144.788 41.822 143.452 40.0467 143.722 38.1275L148.28 5.75012Z" fill="#18C47D"/>
<path d="M180.8 9.58845C180.624 7.65776 182.048 5.9505 183.978 5.77499L216.955 2.77827C218.885 2.60285 220.593 4.0257 220.768 5.95638L223.727 38.525C223.903 40.4565 222.48 42.1633 220.55 42.3388L187.574 45.3356C185.643 45.5111 183.935 44.0878 183.76 42.1572L180.8 9.58845Z" fill="#F65CC7"/>
<path d="M214.667 10.0747C214.377 8.15799 215.696 6.36894 217.613 6.07891L250.956 1.03331C252.873 0.743278 254.662 2.06196 254.952 3.97878L259.847 36.3326C260.138 38.2495 258.819 40.0388 256.902 40.3284L223.558 45.3743C221.642 45.6639 219.853 44.3458 219.563 42.4283L214.667 10.0747Z" fill="#0F73EC"/>
<path d="M31.0097 15.7004C31.6938 18.4113 31.3005 20.8958 29.8299 23.1537C28.3592 25.4116 26.1483 26.9145 23.1971 27.6623C22.6076 27.8208 21.59 27.924 20.1442 27.9721C19.4094 27.986 18.8646 28.0071 18.5101 28.0353L18.1444 28.0644L18.2465 28.926C18.4462 30.3151 18.5535 31.2433 18.5684 31.7104L18.5921 32.0095C18.629 33.0325 18.5755 33.7616 18.4317 34.1967C18.0732 35.2957 17.4125 35.9616 16.4497 36.1943C16.0339 36.2943 15.6333 36.3039 15.2477 36.2231C14.8604 36.12 14.5582 35.9657 14.3411 35.76L14.2361 35.7014C13.8878 35.5284 13.6553 35.2681 13.5384 34.9206C13.4419 34.5492 13.3792 34.0412 13.3502 33.3968C13.3389 32.974 13.3294 32.2946 13.3219 31.3585C13.2916 29.5768 13.2403 28.2316 13.168 27.323C13.0427 25.7496 12.6989 23.3907 12.1365 20.2463C11.6139 17.3218 11.2833 15.1292 11.1447 13.6684C11.0848 12.9148 11.074 12.3582 11.1122 11.9983C11.2189 11.0978 11.6394 10.4956 12.3734 10.1919C12.5694 10.1317 12.767 10.0937 12.9665 10.0778C13.5206 10.0337 14.0479 10.2148 14.5485 10.6209C14.6185 10.66 14.704 10.7535 14.805 10.9016C14.8785 10.9849 14.9402 11.0581 14.9897 11.1211L15.2462 11.4017L15.4963 11.1811C16.9611 9.97179 18.6838 9.19911 20.6642 8.8631C23.2411 8.45733 25.4486 8.87266 27.2865 10.1091C29.1448 11.3216 30.3859 13.1854 31.0097 15.7004ZM23.9913 20.4069C25.2613 18.9901 25.5447 17.5068 24.8415 15.9571C24.706 15.6556 24.5058 15.3817 24.2409 15.1351C23.976 14.8886 23.7052 14.7094 23.4287 14.5976C22.6727 14.3456 21.7769 14.4391 20.7414 14.8783C19.7042 15.2954 19.0041 15.8863 18.6412 16.6511C17.7913 18.3022 17.4546 20.2357 17.6309 22.4519L17.6574 22.7843L17.9924 22.791C18.2583 22.7699 18.5021 22.7505 18.7237 22.7329C21.0285 22.5494 22.7843 21.7741 23.9913 20.4069Z" fill="white"/>
<path d="M60.1563 11.5846C61.7819 11.8344 63.1801 12.1692 64.3509 12.5889C65.5438 13.0069 66.6621 13.6092 67.706 14.3959C68.7482 15.1604 69.5881 16.1864 70.2257 17.4737C70.8634 18.7611 71.2988 20.3099 71.5321 22.12C71.5024 25.1107 70.8371 27.5387 69.5359 29.4041C69.2131 29.8312 68.7093 30.5069 68.0246 31.4312L67.4539 32.246C65.5239 34.8973 62.8246 36.1491 59.3562 36.0014C59.0442 36.0039 58.5505 35.9652 57.875 35.885L57.7395 35.8624C54.4954 35.4515 52.014 33.9764 50.2954 31.4369C49.337 30.0414 48.6967 28.442 48.3748 26.6389C48.0752 24.834 48.1388 23.1118 48.5659 21.4721C49.9686 16.1196 53.1811 12.9091 58.203 11.8404L58.5634 11.7448C59.0235 11.6413 59.3754 11.5798 59.6192 11.5604C59.8186 11.5446 59.9976 11.5526 60.1563 11.5846ZM65.5577 23.1306L65.5829 23.0282L65.575 22.9285C65.3247 21.7442 64.9301 20.8501 64.3915 20.2462C63.8732 19.6184 63.0765 19.1354 62.0014 18.7972C61.0167 18.4741 60.1558 18.1636 59.4184 17.8654C58.4267 17.4537 57.5943 17.3638 56.9215 17.5958C56.2468 17.8055 55.6447 18.3664 55.1152 19.2783C53.5556 22.1008 53.3307 24.7392 54.4403 27.1932C54.8176 28.0107 55.3616 28.681 56.0723 29.2043C56.8051 29.7258 57.6218 30.04 58.5224 30.1467C58.8379 30.1886 59.1619 30.1962 59.4943 30.1698C60.9126 30.0568 62.0448 29.4315 62.8909 28.2938C62.993 28.1742 63.1357 28.0066 63.3193 27.7913C63.8071 27.195 64.1375 26.7227 64.3104 26.3744C64.5394 25.8878 64.8357 25.1283 65.1996 24.0958C65.3451 23.6828 65.4645 23.3611 65.5577 23.1306Z" fill="white"/>
<path d="M104.79 36.7036C105.132 37.1586 105.377 37.5114 105.525 37.7606C105.905 38.417 106.076 39.0445 106.035 39.6438C106.016 40.266 105.79 40.7601 105.356 41.1251C104.877 41.5104 104.306 41.6595 103.641 41.5727C102.998 41.5086 102.417 41.2243 101.899 40.7188C101.618 40.4433 101.243 39.9764 100.774 39.3165C100.368 38.7707 100.047 38.3714 99.81 38.1195C99.466 37.7308 98.9948 37.5053 98.3954 37.4429C98.0856 37.4105 97.7083 37.3885 97.2634 37.3745C97.2195 37.3736 97.1747 37.3719 97.13 37.371C97.0861 37.3692 97.03 37.3675 96.9633 37.3657C96.8966 37.3631 96.8527 37.3622 96.8299 37.3613C95.8514 37.3534 95.1309 37.2982 94.6667 37.1955C92.9204 36.8306 91.3619 36.1714 89.9894 35.2176C88.6178 34.2638 87.5085 33.0734 86.6624 31.6463C85.8163 30.2193 85.3076 28.6691 85.1363 26.9958C84.9878 25.3009 85.1956 23.5946 85.7596 21.877C86.4759 19.5413 87.6635 17.4313 89.3225 15.5469C91.3049 13.2721 93.798 12.0915 96.8035 12.0053L97.5047 11.9934C99.5976 11.9238 101.141 11.9931 102.135 12.2015C107.021 13.1735 109.488 16.1402 109.537 21.1016C109.581 26.9302 107.798 31.4353 104.187 34.6167C104.142 34.6598 104.071 34.7467 103.979 34.8773L103.667 35.2681L104.117 35.8156C104.331 36.0891 104.481 36.2827 104.566 36.3966L104.79 36.7036ZM100.022 30.0525C101.247 29.2892 102.212 27.9174 102.917 25.9372C103.623 23.9569 103.777 22.1602 103.382 20.5467C103.106 19.3817 102.418 18.6045 101.318 18.2151C100.944 18.0924 100.394 17.8643 99.6705 17.5309C98.9693 17.1981 98.4314 16.9704 98.0567 16.8477C97.3099 16.558 96.6886 16.5057 96.1937 16.6908C95.1818 17.038 94.2148 17.7424 93.2934 18.8042C92.3711 19.8658 91.6673 21.0676 91.1811 22.4095C90.7187 23.7298 90.5704 24.9264 90.738 25.9991C90.9398 27.4065 91.4163 28.5442 92.1684 29.4124C92.9432 30.2589 93.9173 30.7891 95.0897 31.0028L95.3881 31.0453L95.496 30.7817C95.9286 29.7495 96.4578 29.1652 97.0844 29.0286C97.8013 28.8503 98.6367 29.1761 99.5906 30.0059L99.8188 30.1797L100.022 30.0525Z" fill="white"/>
<path d="M139.476 10.2679C139.992 11.0738 140.272 11.756 140.311 12.3144C140.596 16.8552 140.79 20.9157 140.89 24.496C140.897 25.355 140.697 26.5482 140.289 28.0756C139.963 29.3159 139.426 30.4151 138.683 31.3733C137.935 32.3097 137.036 33.0488 135.986 33.5906C133.78 34.7171 131.419 34.7983 128.901 33.8342C125.088 32.3723 122.675 29.5429 121.663 25.3457C121.561 24.9351 121.444 24.3239 121.31 23.5119C121.238 23.1408 121.184 22.857 121.146 22.6606L121.077 22.3003L120.946 22.3255L120.823 21.1606C120.594 19.0312 120.426 17.3885 120.316 16.2323C120.279 15.9225 120.286 15.5475 120.337 15.1076C120.476 14.0622 120.997 13.4184 121.901 13.1764C122.334 13.0705 122.751 13.1259 123.156 13.3424C123.577 13.5329 123.9 13.8556 124.123 14.3107C124.51 15.0285 124.865 15.9336 125.189 17.0259C125.461 17.9697 125.878 19.4288 126.44 21.4036C126.809 22.736 127.079 23.6689 127.251 24.202C127.859 26.3035 129.111 27.7491 131.006 28.5388C132.236 29.049 133.267 29.0542 134.099 28.5544C134.848 28.0933 135.272 27.2984 135.372 26.1699C135.509 24.6493 135.51 22.3625 135.376 19.3095L135.373 18.7666C135.334 18.0949 135.245 17.1046 135.106 15.7955C134.983 14.6873 134.902 13.8539 134.862 13.2955C134.812 12.445 134.897 11.6477 135.115 10.9038C135.406 9.94224 136.08 9.39333 137.141 9.25714C138.154 9.10743 138.932 9.44432 139.476 10.2679Z" fill="white"/>
<path d="M170.416 19.3045C170.355 20.2152 170.266 21.1784 170.148 22.1942C170.033 23.1879 169.907 24.0908 169.768 24.9028C169.654 25.6953 169.486 26.6606 169.265 27.7987C169.047 28.9148 168.854 29.799 168.689 30.4513C168.549 31.0841 168.343 32.0001 168.07 33.1994L167.641 35.1639C167.521 35.62 167.287 36.0965 166.939 36.5933C166.304 37.4377 165.545 37.808 164.662 37.7062C163.845 37.6114 163.252 37.1182 162.886 36.2253C162.432 35.1209 162.246 33.9244 162.327 32.6359C162.372 31.4773 162.552 29.7301 162.867 27.3944C162.985 26.3785 163.069 25.6497 163.12 25.208L163.162 24.8437L163.029 24.8283C163.049 24.6517 163.135 24.1131 163.283 23.2129C163.649 21.0172 163.94 19.3725 164.156 18.2784C164.364 17.2507 164.663 16.3118 165.053 15.4616C165.342 14.8909 165.738 14.4667 166.24 14.1892C166.767 13.892 167.327 13.7889 167.921 13.88C169.216 14.0969 169.981 14.8344 170.216 16.0925C170.399 17.0312 170.465 18.1019 170.416 19.3045Z" fill="white"/>
<path d="M210.936 13.5882C211.663 13.7254 212.248 14.0423 212.693 14.5389C213.136 15.0134 213.353 15.5747 213.343 16.2227C213.337 16.6695 213.229 17.0808 213.016 17.4565C212.826 17.8302 212.552 18.1443 212.195 18.3987C211.836 18.631 211.415 18.7906 210.931 18.8776C210.47 18.9626 209.762 19.0357 208.807 19.0969C208.365 19.1357 208.022 19.1657 207.778 19.1871L204.722 19.4547L204.823 19.8476C204.929 20.2847 205.11 21.0833 205.367 22.2435C205.882 24.5417 206.253 26.2386 206.483 27.3343C206.988 29.7895 207.346 31.8447 207.559 33.4999C207.651 34.2952 207.569 35.1503 207.315 36.0653C206.969 37.2113 206.187 37.8493 204.972 37.9774C203.729 38.0642 202.851 37.5834 202.335 36.5348C201.842 35.5066 201.551 34.4722 201.46 33.4313C201.291 31.5046 201.082 28.5995 200.831 24.7162C200.717 23.164 200.638 21.9993 200.592 21.2223C200.584 21.1337 200.559 20.9796 200.518 20.7601L200.436 20.1983L199.33 20.1947C198.37 20.1895 197.611 20.1779 197.051 20.1599C196.58 20.1342 196.221 20.1099 195.973 20.0869C195.273 19.992 194.718 19.7728 194.31 19.4293C193.9 19.0857 193.659 18.6382 193.589 18.0864C193.442 16.9165 194.081 16.0572 195.506 15.5084L195.606 15.4997C195.668 15.4496 195.71 15.4235 195.732 15.4216C196.679 15.2718 198.073 15.0157 199.916 14.6536C202.921 14.0557 205.177 13.6908 206.683 13.5589C207.901 13.4522 209.048 13.4299 210.125 13.4918C210.417 13.5109 210.687 13.5431 210.936 13.5882Z" fill="white"/>
<path d="M237.279 11.7348C238.906 11.9717 240.307 12.2953 241.482 12.7058C242.678 13.1143 243.801 13.7078 244.85 14.4862C245.899 15.2424 246.747 16.2617 247.394 17.5439C248.042 18.8261 248.49 20.3714 248.738 22.1796C248.732 25.1705 248.086 27.6037 246.799 29.4794C246.48 29.909 245.982 30.5887 245.304 31.5184L244.74 32.3376C242.831 35.0042 240.142 36.2774 236.673 36.1572C236.36 36.1622 235.866 36.1273 235.19 36.0526L235.054 36.031C231.808 35.6459 229.314 34.1905 227.576 31.6648C226.606 30.2768 225.953 28.6827 225.617 26.8821C225.303 25.0797 225.353 23.357 225.767 21.714C227.128 16.3506 230.314 13.1146 235.327 12.0061L235.687 11.9077C236.146 11.8005 236.498 11.7363 236.742 11.7149C236.941 11.6975 237.12 11.7041 237.279 11.7348ZM242.772 23.2376L242.796 23.1351L242.787 23.0354C242.528 21.8531 242.126 20.9621 241.582 20.3626C241.059 19.7389 240.259 19.2622 239.182 18.9326C238.194 18.6173 237.331 18.3136 236.591 18.0213C235.596 17.6175 234.763 17.5342 234.092 17.7715C233.419 17.9866 232.821 18.5522 232.299 19.4683C230.761 22.3032 230.558 24.9432 231.687 27.3884C232.071 28.2027 232.62 28.8688 233.334 29.3864C234.072 29.9021 234.891 30.2098 235.792 30.3094C236.108 30.3486 236.432 30.3537 236.765 30.3246C238.182 30.2006 239.309 29.5663 240.146 28.4218C240.247 28.3013 240.388 28.1327 240.571 27.916C241.053 27.3157 241.38 26.8408 241.55 26.4912C241.776 26.0028 242.066 25.2409 242.421 24.2056C242.564 23.7914 242.68 23.4688 242.772 23.2376Z" fill="white"/>
</g>
<defs>
<clipPath id="clip0_193_2341">
<rect width="259.928" height="47.1241" fill="white"/>
</clipPath>
</defs>
</svg>
