<svg width="16" height="16" viewBox="0 0 16 16" fill="none" xmlns="http://www.w3.org/2000/svg">
<path d="M12.5124 8.55891L12.5124 8.55888C12.4642 8.58947 12.4538 8.61158 12.4506 8.62474C12.4464 8.64169 12.4475 8.67026 12.4673 8.72466C12.8233 9.52458 13.3815 9.95009 13.8925 10.2679C13.9859 10.3259 14.0797 10.3815 14.1709 10.4355C14.3255 10.5271 14.4726 10.6143 14.5973 10.7015C14.798 10.8418 14.9667 10.9986 15.0426 11.2091C15.1725 11.5611 15.0815 11.9503 14.7758 12.2691C14.5415 12.5152 14.2119 12.6714 13.9309 12.7786C13.8152 12.8227 13.7051 12.8595 13.6118 12.8907C13.5912 12.8976 13.5714 12.9042 13.5526 12.9105C13.4998 12.9283 13.4553 12.9438 13.4194 12.958C13.3879 12.9703 13.3677 12.98 13.3558 12.9869C13.3439 12.9996 13.33 13.0224 13.3113 13.0656C13.3031 13.0845 13.2951 13.1047 13.2859 13.1276C13.2837 13.1331 13.2814 13.1388 13.2791 13.1446C13.2673 13.1741 13.2539 13.2067 13.2384 13.2409C13.1749 13.3802 13.0751 13.5442 12.8688 13.6895L12.8683 13.6899C12.5626 13.9022 12.2258 13.9171 11.9005 13.9314C11.8863 13.932 11.8722 13.9326 11.8581 13.9332L11.8574 13.9333C11.3602 13.9525 11.0646 14.0044 10.8486 14.0777C10.6537 14.144 10.5199 14.2287 10.3522 14.3348C10.3346 14.346 10.3165 14.3574 10.298 14.3691L10.2979 14.3691C9.81154 14.6748 9.13255 15.1 8 15.1C6.86745 15.1 6.18846 14.6748 5.70206 14.3691L5.702 14.3691C5.68348 14.3574 5.66545 14.346 5.64779 14.3348C5.48011 14.2287 5.34633 14.144 5.15138 14.0777C4.93556 14.0044 4.64012 13.9526 4.14336 13.9333C3.80091 13.9256 3.45024 13.9112 3.13173 13.6899L3.13039 13.689C2.92802 13.5434 2.83042 13.3794 2.76737 13.2409C2.7519 13.2069 2.73852 13.1745 2.72658 13.1453L2.72386 13.1387C2.71281 13.1117 2.70326 13.0884 2.69364 13.0671C2.67389 13.0234 2.65892 13.0005 2.64565 12.9878C2.63401 12.9808 2.61337 12.9709 2.58063 12.958C2.5447 12.9438 2.50015 12.9283 2.44744 12.9105C2.42859 12.9042 2.4088 12.8976 2.38818 12.8907C2.2949 12.8595 2.18475 12.8227 2.06907 12.7786C1.78804 12.6713 1.45834 12.5152 1.22402 12.2689C0.918322 11.95 0.827447 11.5608 0.957501 11.2087L1.05131 11.2433L0.957221 11.2095C1.03305 10.9989 1.2012 10.8421 1.40149 10.7016C1.52621 10.6141 1.67342 10.5267 1.82812 10.4348C1.91869 10.381 2.01182 10.3256 2.10451 10.2679C2.61454 9.95015 3.17292 9.52457 3.53279 8.72448C3.55278 8.6695 3.5534 8.64343 3.54955 8.62814C3.54635 8.61541 3.53552 8.59257 3.48464 8.55693C3.40041 8.50031 3.31923 8.44723 3.24124 8.39624C2.80702 8.11235 2.47154 7.89302 2.25757 7.4866L12.5124 8.55891ZM12.5124 8.55891L12.5146 8.55744M12.5124 8.55891L12.5146 8.55744M12.5146 8.55744C12.5968 8.50221 12.6763 8.44999 12.7529 8.39975C12.9357 8.27977 13.1013 8.17105 13.2443 8.05937C13.4506 7.89828 13.619 7.72459 13.7425 7.48638C13.9244 7.14207 13.949 6.73904 13.8088 6.37036C13.6171 5.85455 13.1337 5.52778 12.5507 5.52778C12.4254 5.52778 12.315 5.54352 12.2315 5.55908L12.5146 8.55744ZM11.2315 2.28733L11.2322 2.28804C11.6717 2.798 12.0966 3.44717 12.1984 4.66248C12.1984 4.66258 12.1984 4.66267 12.1984 4.66277L12.0987 4.67111L11.2315 2.28733ZM11.2315 2.28733C10.9706 1.99036 9.94193 0.9 8 0.9C6.05807 0.9 5.02936 1.99036 4.76847 2.28733L4.76784 2.28805M11.2315 2.28733L4.76784 2.28805M4.76784 2.28805C4.32829 2.79804 3.90334 3.44728 3.80162 4.66277L3.8016 4.66277M4.76784 2.28805L3.8016 4.66277M3.8016 4.66277L3.80149 4.66441M3.8016 4.66277L3.80149 4.66441M3.80149 4.66441C3.78125 4.9658 3.77282 5.26679 3.77101 5.55679M3.80149 4.66441L3.77101 5.55679M3.77101 5.55679C3.68538 5.54084 3.57679 5.52778 3.44926 5.52778C2.87532 5.52778 2.38339 5.84556 2.19119 6.37025C2.05076 6.73174 2.07582 7.14263 2.25756 7.48659L3.77101 5.55679ZM1.91931 11.5776C1.90879 11.5669 1.89831 11.5547 1.88836 11.5421C1.88963 11.5411 1.89094 11.5401 1.89228 11.539C1.92408 11.5143 1.96502 11.4859 2.01173 11.4555C2.10498 11.3949 2.21594 11.33 2.3112 11.2758L2.31121 11.2758L2.31314 11.2747C2.32698 11.2664 2.341 11.258 2.3552 11.2495C2.95512 10.8909 3.86943 10.3443 4.42926 9.09078L4.42948 9.09088L4.43187 9.08436C4.53783 8.79472 4.54641 8.52651 4.4704 8.29282C4.39442 8.05923 4.2367 7.86874 4.02512 7.72975L4.02439 7.72928C3.58257 7.44455 3.37146 7.30004 3.26002 7.20824C3.20558 7.16338 3.17864 7.13405 3.16093 7.10993C3.14576 7.08927 3.13608 7.07116 3.12075 7.04248C3.11714 7.03572 3.11322 7.02839 3.10884 7.02029C3.08515 6.97324 3.07128 6.92166 3.06816 6.86878C3.06501 6.81554 3.07283 6.76225 3.09109 6.71232C3.15869 6.52951 3.3454 6.50556 3.4416 6.50556C3.50403 6.50556 3.53016 6.50589 3.67424 6.54152C3.76235 6.56331 3.89056 6.59732 4.09185 6.65072C4.22973 6.6873 4.40191 6.73297 4.61897 6.79005L4.74624 6.82351L4.74439 6.69193C4.74203 6.52392 4.73967 6.37364 4.73754 6.23777C4.72582 5.49028 4.72093 5.17881 4.75933 4.75003L4.75938 4.74935C4.84136 3.75826 5.18101 3.29515 5.48527 2.94089C5.69515 2.7127 6.50466 1.86268 7.99899 1.87779L8.00101 1.87777C9.49693 1.86266 10.3064 2.71466 10.5065 2.94021C10.8109 3.29456 11.1509 3.75763 11.233 4.74935L11.233 4.75003C11.2714 5.17881 11.2665 5.49029 11.2548 6.23779C11.2527 6.37366 11.2503 6.52393 11.2479 6.69193L11.2461 6.82327L11.3732 6.79009C11.6268 6.72389 11.8191 6.67304 11.967 6.63392C12.1329 6.59004 12.243 6.56093 12.3211 6.54148C12.4644 6.50582 12.4885 6.50556 12.5507 6.50556C12.6538 6.50556 12.8336 6.5291 12.9013 6.71243L12.9012 6.71244L12.9024 6.71536C12.9453 6.82098 12.9379 6.92803 12.886 7.01579L12.886 7.01575L12.8842 7.01903C12.8802 7.02631 12.8767 7.03298 12.8733 7.03916C12.8572 7.06926 12.8473 7.0877 12.8318 7.10858C12.8141 7.13241 12.7873 7.16143 12.733 7.20655C12.622 7.29873 12.4124 7.44527 11.9746 7.73774C11.7631 7.87671 11.6055 8.06712 11.5296 8.3006C11.4536 8.53429 11.4622 8.8025 11.5681 9.09214L11.5679 9.09222L11.5707 9.09856C12.1306 10.352 13.0449 10.8987 13.6448 11.2573C13.6589 11.2657 13.6728 11.274 13.6865 11.2822C13.7181 11.3015 13.751 11.3213 13.7842 11.3412C13.8539 11.383 13.9249 11.4257 13.9889 11.4666C14.0358 11.4966 14.0768 11.5244 14.1086 11.5486C14.1103 11.5499 14.1121 11.5512 14.1137 11.5525C14.1041 11.5649 14.094 11.5777 14.0844 11.5896C13.9615 11.7194 13.7455 11.8093 13.4917 11.9008C13.4605 11.912 13.4287 11.9233 13.3965 11.9347C13.1787 12.0119 12.9462 12.0944 12.7773 12.2111L12.7769 12.2105L12.7678 12.2186C12.5705 12.3939 12.486 12.5511 12.4328 12.6774C12.4204 12.7067 12.4111 12.7305 12.4029 12.7514C12.3923 12.7787 12.3836 12.801 12.3724 12.8243C12.3556 12.8592 12.3416 12.8765 12.3251 12.8879L12.3247 12.8882C12.2949 12.9091 12.2456 12.926 12.1587 12.938C12.0778 12.9493 11.9773 12.9549 11.8488 12.9621L11.826 12.9634C11.2847 12.9831 10.9094 13.0442 10.608 13.1401C10.3056 13.2364 10.0825 13.3662 9.84671 13.5154C9.30749 13.8522 8.89093 14.0029 8.58923 14.0702C8.32938 14.1281 8.15302 14.1248 8.0459 14.1228C8.02887 14.1225 8.01359 14.1222 8 14.1222C7.98653 14.1222 7.9714 14.1225 7.95455 14.1228C7.84754 14.1248 7.67129 14.128 7.41208 14.0693C7.11145 14.0011 6.69683 13.8486 6.16137 13.5079L6.16114 13.5077C5.92502 13.3584 5.70384 13.2305 5.40235 13.1352C5.10186 13.0403 4.72659 12.9792 4.18139 12.9556L4.17989 12.9556C4.04209 12.9517 3.93443 12.946 3.84999 12.9333C3.76459 12.9205 3.71388 12.9021 3.68297 12.8804L3.68251 12.8801C3.66563 12.8684 3.65105 12.8506 3.63372 12.8155C3.62203 12.7918 3.61262 12.7685 3.60105 12.7398C3.59288 12.7195 3.58364 12.6965 3.57175 12.6689C3.51778 12.5435 3.43374 12.3867 3.24065 12.2115L3.23539 12.2067L3.2295 12.2027C3.05881 12.0872 2.82819 12.0052 2.61217 11.9284C2.57873 11.9166 2.54564 11.9048 2.51318 11.893C2.25912 11.8011 2.04374 11.7107 1.92113 11.5795L1.92116 11.5795L1.91931 11.5776Z" fill="#0F73EC" stroke="#0F73EC" stroke-width="0.2"/>
</svg>
