<svg width="110" height="107" viewBox="0 0 110 107" fill="none" xmlns="http://www.w3.org/2000/svg">
<path fill-rule="evenodd" clip-rule="evenodd" d="M27.4665 92.6841C28.1924 93.4559 31.2258 94.6217 33.6052 95.053C34.3205 95.1746 34.7428 95.3298 34.7287 95.4837C34.721 95.6155 34.6747 95.9289 34.644 96.2C34.5986 96.4765 34.6279 97.7194 34.7376 98.978C34.8723 100.916 34.9713 101.412 35.3833 102.249C35.7793 103.091 35.9177 103.26 36.3843 103.431C37.2089 103.736 38.1155 103.544 38.8354 102.899C39.9081 101.969 41.8295 99.7672 42.212 99.0306L42.6042 98.31L43.1945 98.6937C44.1476 99.2983 45.8177 99.989 46.6137 100.088C47.5261 100.203 48.8234 99.6553 49.2215 98.9853C49.7754 98.0381 49.7182 97.7394 48.3116 94.771C47.4024 92.8512 47.0345 91.9567 47.1091 91.7747C47.1689 91.6363 47.7128 91.0762 48.3586 90.5402C50.812 88.4568 51.8628 86.3379 51.1552 84.9362C50.8437 84.3425 50.0286 83.9796 49.1441 84.0693C48.3027 84.1378 45.6399 84.6831 44.3222 85.0415C43.7808 85.1992 43.2907 85.24 43.2475 85.1523C43.2043 85.0646 42.9321 84.1783 42.6384 83.1746C41.5207 79.3532 40.3312 78.0089 38.7766 78.7746C37.7508 79.2798 36.287 81.8945 35.2021 85.0886L34.7251 86.5255L33.2743 87.0947C32.4828 87.4119 30.9592 88.0896 29.9249 88.6163C28.2395 89.4464 27.9538 89.6424 27.4812 90.2384C27.1714 90.6452 26.9422 91.142 26.948 91.4487C26.9216 92.0237 26.9936 92.1699 27.4665 92.6841ZM30.7595 90.6057C31.9396 89.9328 35.1204 88.4026 35.6041 88.2751C36.256 88.082 36.4845 87.6962 37.281 85.2822C38.0257 83.0581 38.8532 81.3742 39.293 81.1576C39.4976 81.0569 39.7794 81.7378 40.3446 83.7353C41.1821 86.6191 41.2539 86.8034 41.8222 87.2516C42.4188 87.7222 42.5799 87.7155 45.6012 86.9746C46.9047 86.6612 48.1913 86.3907 48.4836 86.3557C48.9959 86.3213 49.0034 86.3366 48.7893 86.6427C48.671 86.8099 47.7385 87.7257 46.7316 88.6765C43.9971 91.2252 43.9147 91.6479 45.6369 94.5162C46.6137 96.1658 47.2046 97.478 47.0139 97.5719C46.7648 97.6946 45.6933 97.2573 44.4841 96.5402C43.7422 96.1048 42.9398 95.6976 42.6993 95.6517C41.9767 95.4802 41.4408 95.8703 40.8276 96.9921C39.9928 98.5135 37.6381 101.131 37.4502 100.75C37.4283 100.705 37.3683 99.8424 37.3077 98.8345C37.2554 97.84 37.181 96.839 37.138 96.6042C37.0957 96.3708 37.1287 95.8444 37.2178 95.4356C37.3084 95.026 37.3031 94.5376 37.2091 94.3469C37.0213 93.9655 35.8686 93.5492 33.6582 93.0537C32.4913 92.7913 29.5443 91.6919 29.4145 91.4636C29.3953 91.4246 30.0048 91.0327 30.7595 90.6057Z" fill="#F65CC7"/>
<path fill-rule="evenodd" clip-rule="evenodd" d="M11.9572 58.974C12.444 59.4813 13.4133 59.9326 14.1071 59.9367C14.4436 59.9526 15.0568 59.9792 15.4804 60.0248C16.4666 60.1029 19.8678 59.6488 20.0157 59.3943C20.0815 59.3066 20.2135 59.2797 20.3165 59.3379C20.5709 59.4858 23.1549 58.7769 26.0558 57.7495L28.4207 56.8943L28.6805 57.4218C28.8176 57.7002 29.3179 58.2736 29.7976 58.6927C30.7348 59.5248 33.9324 61.3188 35.7923 62.0614C36.4339 62.3282 37.7093 62.8847 38.6053 63.2994C41.2726 64.5367 42.3748 64.7028 43.679 64.0606C44.5739 63.6198 44.8967 63.2429 45.3347 62.0605C46.1295 59.9379 45.257 55.6135 43.4118 52.5342C42.9192 51.7201 42.5363 51.0163 42.5441 50.9935C42.5589 50.9499 43.7318 50.4449 45.1451 49.8768C47.4376 48.9483 47.8852 48.7089 49.2578 47.7597C51.5257 46.1879 52.5499 44.791 52.4778 43.3877C52.4246 42.4298 52.1635 42.1209 50.5683 41.2135C48.653 40.0987 46.7934 39.5394 41.4865 38.4556C41.0409 38.3655 40.3265 38.2072 39.8733 38.1017C39.4202 37.9963 38.8666 37.8695 38.6544 37.846C38.1581 37.7618 38.1441 37.5509 38.4227 35.1914C38.776 32.2849 38.8064 29.6464 38.5384 28.0663C38.2974 26.7271 38.2183 26.4928 37.7408 25.9272C37.0148 25.0465 36.0677 24.7105 34.9411 24.9022C34.1735 25.0433 33.8577 25.1816 32.8455 25.8617C30.5563 27.3903 29.7553 28.1307 26.3928 31.8447C25.8192 32.4921 25.3039 33.0364 25.2594 33.0584C25.2009 33.0872 24.7486 32.836 24.2546 32.4966C21.2772 30.556 18.3379 29.6551 15.8731 29.9386C13.9346 30.1462 12.0957 31.1072 11.5994 32.1713C11.0815 33.2652 11.3668 34.5082 12.5189 36.0714C12.8093 36.4749 13.1999 37.0469 13.4021 37.3485C13.5904 37.657 14.5042 38.9191 15.4166 40.1818C16.3375 41.4231 17.2856 42.7582 17.5324 43.1469C17.7855 43.5134 18.1122 43.9906 18.2568 44.1754C18.5611 44.572 18.4581 44.7317 16.6454 47.2276C15.121 49.3083 12.883 53.0513 12.1708 54.7129C11.7789 55.6167 11.4877 56.6162 11.4543 57.2155C11.3981 58.2462 11.4416 58.4081 11.9572 58.974ZM14.1402 55.7128C14.9843 53.8029 16.7481 51.0215 19.1203 47.9232C20.8002 45.7123 21 45.3769 21.0119 44.5513C21.0318 43.7771 20.1915 42.4045 17.9952 39.5708C16.3131 37.4126 14.994 35.584 14.0518 34.1906C13.5092 33.3839 13.6416 33.0627 14.6382 32.6809C15.561 32.3353 16.6949 32.3061 18.1975 32.5864C19.4685 32.8355 19.9488 33.0347 22.7461 34.4622C23.7007 34.9571 24.736 35.3949 25.0418 35.4258C25.8953 35.533 26.7701 34.8652 28.7638 32.6278C30.647 30.5347 32.3529 28.9664 33.9072 27.9087C34.9942 27.1554 35.4988 26.9968 35.7967 27.3067C36.3559 27.8873 36.4283 31.6581 35.9475 35.1203C35.7092 36.8944 35.6971 37.8671 35.8898 38.5919C36.2043 39.7116 36.8817 40.0161 40.5908 40.7385C44.8177 41.5535 47.0064 42.0788 48.3777 42.6053C50.2593 43.3181 50.3601 43.4138 49.8459 43.9956C48.7789 45.2319 47.7891 45.8837 45.1504 47.0362C43.7505 47.6703 42.2196 48.298 41.751 48.4562C40.624 48.8296 40.0571 49.3077 39.7677 50.1247C39.507 50.8913 39.4926 50.8621 41.4891 54.396C42.4501 56.126 42.5952 56.4558 42.8371 57.6492C43.1352 59.1782 43.1847 60.6481 42.9473 61.2371C42.717 61.8054 42.1324 61.8754 41.1991 61.4236C40.7612 61.2017 39.4125 60.6087 38.2026 60.1116C34.8487 58.7023 33.5898 58.0668 31.0039 56.4436C30.1964 55.9489 29.8908 55.6619 29.7749 55.3177C29.6748 55.0021 29.5066 54.8117 29.2385 54.7448C28.8375 54.6328 27.2496 55.0326 24.4889 55.9374C22.7168 56.5179 19.35 57.3754 18.4209 57.4871C16.5261 57.7095 14.6703 57.7864 14.1964 57.674C13.656 57.5389 13.6208 57.5026 13.6892 57.0867C13.7088 56.8349 13.9179 56.2235 14.1402 55.7128Z" fill="#F65CC7"/>
<path fill-rule="evenodd" clip-rule="evenodd" d="M65.7313 30.6132C66.7084 30.9327 68.5722 30.7983 70.8562 30.2562C73.2269 29.7078 72.9795 29.648 73.3315 30.6576C73.8347 32.0129 75.8939 34.6772 77.2327 35.6573C78.0036 36.2254 78.88 36.3402 79.6274 35.9721C80.2286 35.676 80.3092 35.5447 80.7033 34.3856C80.9859 33.5546 81.1309 32.6271 81.1435 31.5816C81.1485 30.7421 81.1682 30.0026 81.1677 29.9665C81.1826 29.9228 81.9807 29.7667 82.9461 29.6198C86.033 29.1562 87.8598 27.9106 88.0896 26.158C88.3481 24.3549 86.1507 22.8499 82.6313 22.4353L81.126 22.2652L82.0208 20.4583C82.5088 19.4898 82.9832 18.3812 83.0575 18.016C83.5013 16.1043 82.2891 14.6052 80.6204 14.9532C80.3057 15.0165 78.8913 15.6596 77.4986 16.3818L74.9554 17.6897L73.8567 16.9372C71.3381 15.1909 69.508 14.579 68.1889 15.047C67.5157 15.306 67.4628 15.3494 67.1656 16.2981C66.8083 17.4582 66.9205 18.0583 68.1099 20.9158C68.5777 22.0517 68.8796 22.9596 68.8278 23.1494C68.7824 23.3171 68.1278 24.0597 67.3857 24.8074C65.6137 26.5362 64.5237 28.0207 64.4526 28.7648C64.3691 29.7364 64.7611 30.3076 65.7313 30.6132ZM68.0173 27.0835C68.6354 26.4142 69.4953 25.5722 69.8923 25.1951C70.8621 24.3162 71.2611 23.5006 71.1652 22.6001C71.1162 22.2057 70.7366 21.0627 70.3034 20.0742C69.3372 17.8175 69.2726 17.6125 69.3258 17.422C69.4746 17.0219 72.0026 18.345 73.5221 19.6183C74.4602 20.4135 74.9798 20.3202 77.2827 18.9318C79.5632 17.5717 80.7137 16.9861 80.7932 17.1475C80.8871 17.3382 80.479 18.2863 79.6067 19.9178C78.4986 21.9941 78.2741 22.7602 78.5392 23.5583C78.7396 24.1513 78.812 24.2246 79.6078 24.4709C80.0753 24.6055 81.0749 24.7496 81.8284 24.7625C84.1885 24.8211 85.9826 25.43 85.7516 26.1092C85.5877 26.5912 84.0426 27.1515 81.9724 27.4603C80.1877 27.7201 79.9013 27.8059 79.5049 28.1844C78.99 28.6559 78.8477 29.3641 78.9769 30.9573C79.0646 32.1714 78.8713 33.8507 78.6384 33.8201C78.4338 33.812 77.1209 32.2173 75.9107 30.501L74.8891 29.0551L75.1464 28.7278C75.4414 28.3646 75.2245 27.7416 74.7734 27.6369C74.6272 27.6 74.1808 27.6556 73.7937 27.7545C71.6123 28.3187 68.0716 28.8969 66.9971 28.8606C66.4796 28.8422 66.6857 28.4847 68.0173 27.0835Z" fill="#F65CC7"/>
</svg>
