<svg width="101" height="99" viewBox="0 0 101 99" fill="none" xmlns="http://www.w3.org/2000/svg">
<path fill-rule="evenodd" clip-rule="evenodd" d="M70.294 11.7196C69.5703 11.1179 66.7696 10.4187 64.6251 10.2963C63.9813 10.2666 63.5921 10.1756 63.5879 10.0383C63.5804 9.92131 63.5873 9.64002 63.585 9.39766C63.595 9.14891 63.4345 8.05633 63.2014 6.95857C62.8726 5.26452 62.7316 4.83794 62.2777 4.1451C61.8373 3.44511 61.697 3.31135 61.267 3.21079C60.507 3.0315 59.7285 3.2993 59.1637 3.94608C58.3187 4.88185 56.8634 7.03127 56.6059 7.72219L56.3382 8.40002L55.7762 8.12564C54.8704 7.69596 53.3231 7.26798 52.6106 7.26682C51.7938 7.26481 50.7093 7.88789 50.4309 8.52168C50.0453 9.41683 50.128 9.67396 51.6898 12.1386C52.6995 13.7327 53.1208 14.4814 53.0747 14.65C53.0369 14.7785 52.6181 15.3313 52.1069 15.8738C50.1696 17.9765 49.4728 19.9585 50.2486 21.1176C50.5875 21.6073 51.3455 21.8389 52.1156 21.664C52.85 21.5124 55.1385 20.7431 56.2614 20.2843C56.7217 20.0866 57.1494 19.9975 57.1969 20.0701C57.2445 20.1428 57.5805 20.8947 57.9483 21.7477C59.3478 24.9958 60.5422 26.052 61.8299 25.2085C62.6795 24.652 63.6867 22.1881 64.2971 19.2544L64.5619 17.9359L65.7793 17.2768C66.4428 16.9114 67.7126 16.1488 68.5673 15.5724C69.9634 14.6579 70.194 14.4541 70.5461 13.8775C70.7752 13.4852 70.9234 13.0224 70.885 12.7526C70.846 12.2428 70.7667 12.1217 70.294 11.7196ZM67.616 13.9089C66.6485 14.63 64.01 16.3238 63.5973 16.4886C63.0434 16.7296 62.8838 17.0945 62.4432 19.309C62.0276 21.3507 61.4806 22.9249 61.1163 23.1635C60.9468 23.2745 60.6246 22.7047 59.9098 21.0048C58.8589 18.5531 58.7757 18.3984 58.2261 18.0648C57.649 17.7146 57.5078 17.7379 54.9244 18.7186C53.8091 19.1361 52.704 19.5141 52.4501 19.5766C52.0022 19.6624 51.9939 19.6498 52.1495 19.3567C52.2357 19.1965 52.9585 18.288 53.7433 17.3406C55.878 14.7972 55.9048 14.4156 54.0755 12.0734C53.0357 10.7249 52.3725 9.63206 52.5304 9.5286C52.7368 9.39343 53.7288 9.6629 54.8726 10.1641C55.5739 10.4675 56.3254 10.7396 56.5424 10.754C57.1982 10.8269 57.6284 10.4248 58.0474 9.36941C58.6185 7.93757 60.4109 5.37462 60.6178 5.69049C60.642 5.72738 60.7884 6.48158 60.951 7.36356C61.1049 8.23478 61.279 9.10919 61.3424 9.31152C61.4049 9.5127 61.4329 9.98042 61.3986 10.3505C61.3631 10.7214 61.4208 11.1515 61.5242 11.3094C61.7312 11.6253 62.7926 11.8674 64.7951 12.0647C65.8522 12.1696 68.5697 12.8195 68.7088 13.0068C68.73 13.0391 68.2351 13.4506 67.616 13.9089Z" fill="white"/>
<path fill-rule="evenodd" clip-rule="evenodd" d="M87.6212 39.7594C87.137 39.3648 86.2335 39.072 85.6213 39.1435C85.323 39.166 84.7795 39.2089 84.401 39.2147C83.5231 39.2527 80.5736 40.0217 80.4708 40.262C80.4223 40.3465 80.3089 40.3845 80.2117 40.3444C79.9714 40.2415 77.77 41.1465 75.3238 42.3668L73.3315 43.377L73.0453 42.9401C72.8942 42.7095 72.391 42.2582 71.9227 41.9406C71.0062 41.3086 67.9927 40.0734 66.2724 39.6203C65.6779 39.4546 64.4931 39.1022 63.6582 38.8336C61.1724 38.0319 60.1827 38.0048 59.1025 38.7124C58.3612 39.198 58.1175 39.5652 57.8595 40.6552C57.3888 42.6127 58.6267 46.3307 60.5871 48.8456C61.1096 49.51 61.5235 50.0889 61.5191 50.1099C61.5108 50.15 60.5315 50.7223 59.347 51.3763C57.4264 52.4433 57.0577 52.7029 55.9505 53.6886C54.1213 55.3201 53.3697 56.6626 53.5853 57.8921C53.736 58.7308 53.9997 58.9749 55.5045 59.602C57.3138 60.3773 59.014 60.6689 63.8103 61.0493C64.2129 61.0805 64.8599 61.1426 65.2708 61.1865C65.6818 61.2303 66.1836 61.2821 66.3732 61.2798C66.8199 61.3003 66.8551 61.4848 66.8652 63.5952C66.8687 66.196 67.1278 68.5255 67.5353 69.8895C67.8929 71.0441 67.988 71.2421 68.4703 71.689C69.2058 72.3868 70.0772 72.5804 71.0497 72.2893C71.7111 72.0817 71.9746 71.9256 72.7933 71.2163C74.6459 69.6205 75.2719 68.881 77.834 65.2421C78.2695 64.6092 78.6648 64.0734 78.7017 64.0493C78.7501 64.0176 79.1761 64.1899 79.6485 64.4357C82.4838 65.8239 85.1728 66.2997 87.3152 65.7827C89.0017 65.3896 90.5189 64.343 90.8411 63.351C91.1792 62.3305 90.7929 61.2655 89.6078 60.0122C89.3081 59.6879 88.9017 59.226 88.6907 58.9819C88.4913 58.7303 87.5489 57.7167 86.6076 56.7023C85.6612 55.7077 84.6806 54.6333 84.4209 54.3174C84.158 54.0217 83.8183 53.6364 83.6708 53.4892C83.3595 53.1724 83.433 53.0205 84.7607 50.6235C85.8792 48.6239 87.4467 45.0814 87.8945 43.5392C88.1421 42.6999 88.2905 41.7872 88.2551 41.2552C88.1929 40.3404 88.137 40.2023 87.6212 39.7594ZM86.0499 42.8711C85.5127 44.6464 84.259 47.2898 82.5033 50.2785C81.2618 52.4098 81.1221 52.7271 81.201 53.4562C81.2674 54.141 82.157 55.2601 84.4004 57.5204C86.1173 59.2409 87.4784 60.7102 88.4601 61.8365C89.0259 62.489 88.944 62.7864 88.1068 63.2311C87.3306 63.6357 86.3341 63.7844 84.979 63.7001C83.8314 63.6182 83.3863 63.4946 80.7654 62.5393C79.8702 62.2064 78.9099 61.9326 78.6369 61.9384C77.8729 61.9365 77.174 62.62 75.6587 64.8087C74.2252 66.8581 72.8912 68.4256 71.6354 69.5266C70.7588 70.3085 70.331 70.503 70.0348 70.2621C69.4788 69.8108 69.0064 66.4942 69.0552 63.3896C69.073 61.7997 68.9782 60.9408 68.7298 60.3226C68.3312 59.3695 67.7009 59.1745 64.3525 58.9395C60.5376 58.679 58.551 58.4531 57.2849 58.1375C55.5488 57.713 55.4496 57.6395 55.8399 57.0709C56.6465 55.8653 57.4486 55.1834 59.6501 53.8813C60.8156 53.1705 62.0973 52.4512 62.4933 52.261C63.4464 51.8096 63.8945 51.3267 64.0611 50.575C64.2078 49.8709 64.2237 49.8951 62.0805 46.9958C61.0458 45.5747 60.8822 45.2997 60.5395 44.2737C60.111 42.958 59.9081 41.6674 60.0535 41.1224C60.195 40.5964 60.7029 40.4713 61.5746 40.7685C61.9847 40.9167 63.2381 41.2934 64.3586 41.6005C67.4683 42.4796 68.6471 42.9034 71.1029 44.0543C71.8684 44.4029 72.169 44.6229 72.3084 44.9137C72.4309 45.1811 72.5998 45.3308 72.8434 45.3607C73.2091 45.416 74.5657 44.8914 76.9016 43.7945C78.4011 43.0907 81.2765 41.9699 82.0835 41.7707C83.73 41.3693 85.3578 41.1003 85.7878 41.1481C86.2789 41.2087 86.3138 41.2369 86.2986 41.611C86.3086 41.835 86.1906 42.3967 86.0499 42.8711Z" fill="white"/>
<path fill-rule="evenodd" clip-rule="evenodd" d="M43.2835 70.591C42.3874 70.4152 40.7588 70.7357 38.8039 71.4611C36.7732 72.2015 36.9978 72.2274 36.5781 71.3755C35.9876 70.2351 33.8833 68.1093 32.5967 67.3902C31.8555 66.9729 31.0705 66.9666 30.4514 67.3722C29.9534 67.6984 29.8966 67.8229 29.6747 68.8876C29.5156 69.6508 29.4883 70.4842 29.5905 71.4074C29.677 72.1481 29.7398 72.8022 29.7441 72.834C29.7358 72.874 29.049 73.0982 28.2138 73.3323C25.5425 74.0756 24.0669 75.3717 24.0543 76.9418C24.0217 78.5595 26.1221 79.6483 29.27 79.6324L30.6155 79.6192L30.0224 81.3093C29.6971 82.216 29.399 83.2448 29.3731 83.5749C29.189 85.3084 30.4201 86.4987 31.8536 86.011C32.1242 85.9211 33.3016 85.2009 34.4512 84.4132L36.5516 82.9845L37.6019 83.5289C40.0116 84.7956 41.6914 85.1367 42.8036 84.5812C43.3691 84.2799 43.4111 84.2359 43.5703 83.3672C43.7596 82.3058 43.5956 81.7888 42.2373 79.3984C41.7018 78.4477 41.3373 77.6799 41.3624 77.5069C41.3842 77.3542 41.8809 76.6285 42.4541 75.8889C43.8291 74.1727 44.6292 72.7458 44.6112 72.0821C44.5796 71.2164 44.172 70.7552 43.2835 70.591ZM41.6506 73.9506C41.1782 74.6077 40.5113 75.4432 40.2021 75.8188C39.4424 76.6987 39.179 77.461 39.3611 78.2446C39.447 78.587 39.9056 79.5535 40.3947 80.3781C41.491 82.263 41.5703 82.4368 41.544 82.6105C41.4562 82.9794 39.0839 82.0868 37.6063 81.1289C36.693 80.5294 36.2451 80.668 34.3652 82.1417C32.502 83.5879 31.5511 84.2289 31.4635 84.0951C31.3601 83.9372 31.6172 83.0571 32.2094 81.5242C32.9613 79.5735 33.0763 78.8738 32.756 78.1989C32.5151 77.6977 32.4433 77.641 31.715 77.5101C31.2882 77.442 30.3913 77.4233 29.7256 77.4936C27.6385 77.6977 25.9908 77.3553 26.1208 76.7314C26.213 76.2888 27.5146 75.6273 29.3063 75.1307C30.8516 74.7082 31.0948 74.6016 31.4033 74.2249C31.8062 73.7534 31.8549 73.1136 31.5684 71.723C31.3594 70.6621 31.3478 69.1606 31.5565 69.1623C31.7378 69.1473 33.0681 70.411 34.321 71.793L35.3785 72.957L35.1871 73.2735C34.9664 73.6257 35.2251 74.1514 35.6341 74.1949C35.767 74.2116 36.1546 74.1142 36.4852 73.985C38.3472 73.2512 41.4062 72.3578 42.3575 72.2733C42.8157 72.2335 42.6727 72.571 41.6506 73.9506Z" fill="white"/>
</svg>
